<svg width="50" height="52" viewBox="0 0 50 52" fill="none" xmlns="http://www.w3.org/2000/svg">
<path d="M42.5657 7.25781H15.6564V51.6879H42.5657V7.25781Z" fill="white"/>
<path d="M43.2629 0.436035H6.73834C3.01752 0.436035 0 3.52996 0 7.34656V44.8125C0 48.6291 3.01629 51.723 6.73712 51.723H24.7505L24.7811 33.3953H20.1392C19.5362 33.3953 19.0469 32.8947 19.0445 32.2762L19.0225 26.3681C19.02 25.7458 19.5117 25.2402 20.1184 25.2402H24.7517V19.5316C24.7517 12.9071 28.6964 9.30003 34.4574 9.30003H39.1849C39.7904 9.30003 40.2796 9.80314 40.2796 10.4242V15.4051C40.2796 16.0249 39.7891 16.528 39.1849 16.5292L36.2836 16.5305C33.1511 16.5305 32.5432 18.0574 32.5432 20.2994V25.2414H39.4283C40.0839 25.2414 40.5927 25.8286 40.5157 26.4973L39.8332 32.4054C39.7683 32.9712 39.2999 33.3965 38.7458 33.3965H32.575L32.5444 51.7242H43.2629C46.9837 51.7242 50 48.6303 50 44.8137V7.34656C50.0012 3.52996 46.9837 0.436035 43.2629 0.436035Z" fill="#475993"/>
</svg>
