<svg width="110" height="109" viewBox="0 0 110 109" fill="none" xmlns="http://www.w3.org/2000/svg">
<g clip-path="url(#clip0)">
<path d="M31.8296 42.1169C31.8296 45.9996 34.9664 49.1364 38.8491 49.1364H54.6429V35.0974H38.8491C34.9664 35.0974 31.8296 38.2342 31.8296 42.1169Z" fill="#FDE156"/>
<path d="M100.862 53.6991L99.6992 50.3868C103.187 49.1584 105.556 45.8241 105.556 42.117C105.556 38.4098 103.209 35.0755 99.6992 33.8471L100.862 30.5348C105.754 32.2677 109.044 36.9181 109.044 42.117C109.044 47.3158 105.754 51.9662 100.862 53.6991Z" fill="black"/>
<path d="M85.419 23.8004C86.6474 23.0327 87.8539 22.1991 89.0384 21.3217L86.9545 18.4919C85.8358 19.3036 84.6951 20.0933 83.5544 20.8391L85.419 23.8004Z" fill="black"/>
<path d="M56.3979 77.2144H54.314C54.5114 76.666 54.643 76.0738 54.643 75.4596C54.643 72.564 52.274 70.1949 49.3784 70.1949V66.6852H52.8882V59.6657C68.0678 59.7754 82.2603 66.5536 91.8902 78.3112L94.6103 76.0957C85.0681 64.4258 71.2924 57.3624 56.3979 56.3095V27.9244C71.2924 26.8715 85.0681 19.8082 94.6103 8.13826L91.8902 5.92273C82.1945 17.7681 67.8484 24.5683 52.5153 24.5683H48.9836L47.2287 17.5488H26.938L25.1831 24.5683H17.7907C15.8603 24.5683 14.281 26.1476 14.281 28.078V28.4728L7.26147 30.2277V54.0282L14.281 55.7831V56.1779C14.281 58.1083 15.8603 59.6876 17.7907 59.6876H28.3199V66.7071H31.8297V70.2169H27.5961L20.5766 77.2364H12.5261V80.7461H22.0243L29.0438 73.7266H49.3784C50.3436 73.7266 51.1333 74.5163 51.1333 75.4815C51.1333 76.4467 50.3436 77.2364 49.3784 77.2364H32.8607L25.3367 84.7604L27.8154 87.2392L31.8297 83.2249V105.292H28.9122L21.8927 100.028H12.5261V103.538H20.7082L27.7277 108.802H56.3979C59.2934 108.802 61.6625 106.433 61.6625 103.538C61.6625 102.178 61.1361 100.971 60.3025 100.028C61.1361 99.0845 61.6625 97.8781 61.6625 96.518C61.6625 95.158 61.1361 93.9515 60.3025 93.0083C61.1361 92.065 61.6625 90.8586 61.6625 89.4985C61.6625 88.1385 61.1361 86.932 60.3025 85.9888C61.1361 85.0456 61.6625 83.8391 61.6625 82.4791C61.6625 79.5835 59.2934 77.2144 56.3979 77.2144ZM10.7712 51.2862V32.9697L14.281 32.0923V52.1636L10.7712 51.2862ZM29.68 21.0585H44.4867L45.3641 24.5683H28.8025L29.68 21.0585ZM17.7907 28.078H21.3005V49.1365H24.8102V28.078H52.5153C52.6469 28.078 52.7565 28.078 52.8882 28.078V56.156C52.7565 56.156 52.6469 56.156 52.5153 56.156H24.8102V52.6462H21.3005V56.156H17.7907V28.078ZM49.3784 59.6657V63.1755H31.8297V59.6657H49.3784ZM35.3394 66.6852H45.8687V70.1949H35.3394V66.6852ZM49.3784 80.7242H56.3979C57.3631 80.7242 58.1528 81.5139 58.1528 82.4791C58.1528 83.4442 57.3631 84.2339 56.3979 84.2339H45.8687C44.9035 84.2339 44.1138 83.4442 44.1138 82.4791C44.1138 81.5139 44.9035 80.7242 45.8687 80.7242H49.3784ZM58.1528 89.4985C58.1528 90.4637 57.3631 91.2534 56.3979 91.2534H45.8687C44.9035 91.2534 44.1138 90.4637 44.1138 89.4985C44.1138 88.5334 44.9035 87.7437 45.8687 87.7437H56.3979C57.3631 87.7437 58.1528 88.5334 58.1528 89.4985ZM58.1528 96.518C58.1528 97.4832 57.3631 98.2729 56.3979 98.2729H45.8687C44.9035 98.2729 44.1138 97.4832 44.1138 96.518C44.1138 95.5529 44.9035 94.7632 45.8687 94.7632H56.3979C57.3631 94.7632 58.1528 95.5529 58.1528 96.518ZM35.3394 105.292V80.7242H40.9331C40.7357 81.2726 40.6041 81.8649 40.6041 82.4791C40.6041 83.8391 41.1305 85.0456 41.9641 85.9888C41.1305 86.932 40.6041 88.1385 40.6041 89.4985C40.6041 90.8586 41.1305 92.065 41.9641 93.0083C41.1305 93.9515 40.6041 95.158 40.6041 96.518C40.6041 97.8781 41.1305 99.0845 41.9641 100.028C41.1305 100.971 40.6041 102.178 40.6041 103.538C40.6041 104.152 40.7137 104.744 40.9112 105.292H35.3394ZM56.3979 105.292H45.8687C44.9035 105.292 44.1138 104.503 44.1138 103.538C44.1138 102.572 44.9035 101.783 45.8687 101.783H56.3979C57.3631 101.783 58.1528 102.572 58.1528 103.538C58.1528 104.503 57.3631 105.292 56.3979 105.292Z" fill="black"/>
<path d="M60.127 34.6368C67.7606 33.6935 75.0653 31.3683 81.7996 27.705L80.1325 24.6121C73.7711 28.056 66.9051 30.2715 59.6882 31.149L60.127 34.6368Z" fill="black"/>
<path d="M38.8491 35.0974H42.3589V49.1364H38.8491V35.0974Z" fill="black"/>
<path d="M45.8687 35.0974H49.3784V49.1364H45.8687V35.0974Z" fill="black"/>
<path d="M105.534 85.9888C105.534 96.6277 96.8696 105.292 86.2307 105.292V108.802C98.8 108.802 109.044 98.558 109.044 85.9888H105.534Z" fill="black"/>
<path d="M86.2307 101.783C94.9393 101.783 102.025 94.6973 102.025 85.9888H98.5148C98.5148 92.767 93.0089 98.2729 86.2307 98.2729V101.783Z" fill="black"/>
<path d="M23.0553 3.50974V0C10.486 0 0.241943 10.2441 0.241943 22.8133H3.75169C3.75169 12.1744 12.4164 3.50974 23.0553 3.50974Z" fill="black"/>
<path d="M96.76 82.479C93.8644 82.479 91.4954 80.1099 91.4954 77.2144V7.0195C91.4954 4.12396 93.8644 1.75488 96.76 1.75488C99.6555 1.75488 102.025 4.12396 102.025 7.0195V77.2144C102.025 80.1099 99.6555 82.479 96.76 82.479Z" fill="#FDE156"/>
<path d="M10.7712 22.8134C10.7712 16.0352 16.2771 10.5293 23.0553 10.5293V7.01953C14.3468 7.01953 7.26147 14.1048 7.26147 22.8134H10.7712Z" fill="black"/>
<path d="M14.2809 108.802H0.241943V73.7047H14.2809V108.802Z" fill="#FDE156"/>
</g>
<defs>
<clipPath id="clip0">
<rect x="0.241943" width="108.802" height="108.802" fill="white"/>
</clipPath>
</defs>
</svg>
