<svg width="106" height="105" viewBox="0 0 106 105" fill="none" xmlns="http://www.w3.org/2000/svg">
<path d="M66.9697 61.3102C68.4082 60.7217 75.034 60.4819 75.034 60.4819C76.2327 60.4384 77.2135 59.414 77.2135 58.2152V10.8977C77.2135 9.69893 76.2327 8.71814 75.034 8.71814H30.5716C29.3729 8.71814 28.3921 9.69893 28.3921 10.8977V61.5717C28.3921 62.7704 29.3729 63.7294 30.5716 63.6859C30.5716 63.6859 43.9103 63.3371 44.1501 63.3371C44.4334 63.3371 46.7655 65.5167 45.6104 66.3885C44.4552 67.2603 46.0463 67.4128 43.7142 69.0039C41.3821 70.595 40.2269 71.1834 37.3282 71.1834C34.4294 71.1834 31.5088 70.4642 33.1217 71.336C34.7127 72.2078 40.8154 74.6707 41.4039 74.9758C41.9923 75.2591 44.4552 78.4631 44.6078 79.3349C44.7603 80.2067 44.8911 84.1298 45.1963 85.0016C45.5014 85.8735 42.2975 86.3094 46.0681 86.7453C47.1796 86.876 49.4027 86.9196 49.4027 86.9196C50.6015 86.9414 52.5631 86.9632 53.7618 86.9632H54.5682C55.767 86.9632 57.7285 86.9414 58.9273 86.9196C58.9273 86.9196 64.4633 86.8106 64.2453 86.7453C63.8094 86.5927 62.9376 83.9773 62.9376 82.9747C62.9376 81.9503 63.3735 80.2067 63.8094 79.9233C64.2453 79.64 65.2697 79.64 65.2697 78.0271C65.2697 76.4143 64.9864 73.8207 65.1171 73.0796C65.2697 72.3604 67.7326 70.3116 67.0133 69.7449C66.2941 69.1783 63.5261 66.2577 64.2453 64.7974C64.9428 63.3589 63.7658 62.6179 66.9697 61.3102ZM40.75 48.0586C39.5513 48.0586 38.5705 47.0778 38.5705 45.8791V23.8005C38.5705 22.6017 39.5513 21.6209 40.75 21.6209H64.2889C65.4877 21.6209 66.4685 22.6017 66.4685 23.8005V45.8791C66.4685 47.0778 65.4877 48.0586 64.2889 48.0586H40.75Z" fill="#FDE156"/>
<path d="M70.2392 8.71814H35.3667V12.2054H70.2392V8.71814Z" fill="black"/>
<path d="M86.8036 65.3858C86.8036 62.0294 84.0574 59.2832 80.7009 59.2832H77.2137V34.8724H73.7264V59.2832H69.3674C66.0109 59.2832 63.2647 62.0294 63.2647 65.3858C63.2647 67.0859 63.9839 68.6333 65.1173 69.7449C63.9839 70.8565 63.2647 72.4039 63.2647 74.104C63.2647 75.2809 63.6134 76.3707 64.2019 77.3079C62.1095 78.2887 60.6493 80.381 60.6493 82.8221C60.6493 83.7593 60.889 84.6311 61.2595 85.4375H47.5721C47.5721 80.0977 44.8913 75.3899 40.8156 72.5565C44.7605 71.0526 47.5721 67.2384 47.5721 62.7704C47.5721 61.8114 46.7875 61.0268 45.8285 61.0268H31.8795V43.5906H28.3922V61.0268C25.5153 61.0268 23.1614 63.3807 23.1614 66.2577V104.617H26.6486V66.2577C26.6486 65.2987 27.4333 64.514 28.3922 64.514H43.8669C43.0823 67.5218 40.3579 69.7449 37.1104 69.7449H31.8795C30.9205 69.7449 30.1359 70.5295 30.1359 71.4885C30.1359 72.4475 30.9205 73.2322 31.8795 73.2322C38.6142 73.2322 44.0848 78.7028 44.0848 85.4375V87.1811C44.0848 88.1401 44.8695 88.9248 45.8285 88.9248H56.0287C55.6581 89.7312 55.4184 90.603 55.4184 91.5402C55.4184 94.8967 58.1646 97.6429 61.5211 97.6429V104.617H65.0083V97.6429H71.9828H72.8546C76.2111 97.6429 78.9573 94.8967 78.9573 91.5402C78.9573 90.5812 78.7176 89.7094 78.3252 88.903C81.5727 88.7722 84.1882 86.1132 84.1882 82.8221C84.1882 81.6451 83.8394 80.5554 83.251 79.6182C85.3433 78.6374 86.8036 76.545 86.8036 74.104C86.8036 72.4039 86.0844 70.8565 84.951 69.7449C86.0844 68.6333 86.8036 67.0859 86.8036 65.3858ZM72.8546 94.1556H71.9828H63.2647H61.5211C60.0826 94.1556 58.9056 92.9787 58.9056 91.5402C58.9056 90.1017 60.0826 88.9248 61.5211 88.9248H66.7519H72.8546C74.2931 88.9248 75.4701 90.1017 75.4701 91.5402C75.4701 92.9787 74.2931 94.1556 72.8546 94.1556ZM78.0855 85.4375H72.8546H66.7519C65.3135 85.4375 64.1365 84.2606 64.1365 82.8221C64.1365 81.3836 65.3135 80.2066 66.7519 80.2066H69.3674H78.0855C79.524 80.2066 80.7009 81.3836 80.7009 82.8221C80.7009 84.2606 79.524 85.4375 78.0855 85.4375ZM80.7009 76.7194H78.0855H69.3674C67.9289 76.7194 66.7519 75.5424 66.7519 74.104C66.7519 72.6655 67.9289 71.4885 69.3674 71.4885H80.7009C82.1394 71.4885 83.3164 72.6655 83.3164 74.104C83.3164 75.5424 82.1394 76.7194 80.7009 76.7194ZM80.7009 68.0013H69.3674C67.9289 68.0013 66.7519 66.8243 66.7519 65.3858C66.7519 63.9474 67.9289 62.7704 69.3674 62.7704H80.7009C82.1394 62.7704 83.3164 63.9474 83.3164 65.3858C83.3164 66.8243 82.1394 68.0013 80.7009 68.0013Z" fill="black"/>
<path d="M26.6486 22.1876C26.605 21.6863 26.3653 21.2286 25.973 20.9235L24.164 19.5504C23.7063 17.3491 21.7883 15.6926 19.478 15.6926C16.8843 15.6926 14.7484 17.8068 14.7266 20.4222C13.3317 20.1825 12.0022 19.6376 10.8034 18.8311L10.1932 18.417C9.67009 18.0465 8.97264 18.0247 8.40597 18.3299C7.83929 18.635 7.49056 19.2235 7.49056 19.8773V21.3158C7.49056 23.4082 8.12263 25.4133 9.29957 27.1134L7.99186 28.4429C7.49056 28.9442 7.35979 29.6852 7.62134 30.3391C7.88288 30.9929 8.53674 31.407 9.23419 31.407H17.6908C21.069 31.407 23.837 28.8352 24.2293 25.5441L26.1909 23.5607C26.4961 23.1902 26.6704 22.6889 26.6486 22.1876ZM21.2434 23.5389C20.9165 23.8659 20.7421 24.3018 20.7421 24.7595C20.7421 26.4813 19.3472 27.898 17.6472 27.898H13.2227C13.5061 27.2659 13.3753 26.5031 12.874 25.98C12.0676 25.1518 11.4791 24.1274 11.174 22.994C12.8304 23.6915 14.6176 24.062 16.4484 24.062C17.4074 24.062 18.192 23.2774 18.192 22.3184V20.4876C18.192 19.7683 18.7587 19.1799 19.4562 19.1799C20.1536 19.1799 20.7203 19.7683 20.7203 20.4876C20.7203 21.0325 20.9818 21.5556 21.4178 21.8825L22.246 22.5146L21.2434 23.5389Z" fill="black"/>
<path d="M58.0338 29.6415V26.1543H52.8029C51.8439 26.1543 51.0593 26.9389 51.0593 27.8979V33.1288H47.572V36.616H51.0593V43.5905H54.5465V36.616H58.0338V33.1288H54.5465V29.6415H58.0338Z" fill="black"/>
<path d="M63.2647 19.1798H42.3412C39.4642 19.1798 37.1104 21.5337 37.1104 24.4107V45.3342C37.1104 48.2111 39.4642 50.565 42.3412 50.565H63.2647C66.1417 50.565 68.4956 48.2111 68.4956 45.3342V24.4107C68.4956 21.5337 66.1417 19.1798 63.2647 19.1798ZM65.0083 45.3342C65.0083 46.2931 64.2237 47.0778 63.2647 47.0778H42.3412C41.3822 47.0778 40.5976 46.2931 40.5976 45.3342V24.4107C40.5976 23.4517 41.3822 22.6671 42.3412 22.6671H63.2647C64.2237 22.6671 65.0083 23.4517 65.0083 24.4107V45.3342Z" fill="black"/>
<path d="M26.6485 8.71814H5.72501C2.84803 8.71814 0.494141 11.072 0.494141 13.949V34.8725C0.494141 37.7495 2.84803 40.1033 5.72501 40.1033H26.6485C29.5255 40.1033 31.8794 37.7495 31.8794 34.8725V13.949C31.8794 11.072 29.5255 8.71814 26.6485 8.71814ZM28.3921 34.8725C28.3921 35.8315 27.6075 36.6161 26.6485 36.6161H5.72501C4.76602 36.6161 3.98139 35.8315 3.98139 34.8725V13.949C3.98139 12.99 4.76602 12.2054 5.72501 12.2054H26.6485C27.6075 12.2054 28.3921 12.99 28.3921 13.949V34.8725Z" fill="black"/>
<path d="M99.8807 0H78.9572C76.0802 0 73.7263 2.35389 73.7263 5.23087V26.1543C73.7263 29.0313 76.0802 31.3852 78.9572 31.3852H99.8807C102.758 31.3852 105.112 29.0313 105.112 26.1543V5.23087C105.112 2.35389 102.758 0 99.8807 0ZM101.624 26.1543C101.624 27.1133 100.84 27.898 99.8807 27.898H78.9572C77.9982 27.898 77.2136 27.1133 77.2136 26.1543V17.4362H80.8752C81.6816 21.403 85.2124 24.4107 89.4189 24.4107C93.6254 24.4107 97.1562 21.403 97.9627 17.4362H101.624V26.1543ZM84.1881 15.6926C84.1881 12.8156 86.5419 10.4617 89.4189 10.4617C92.2959 10.4617 94.6498 12.8156 94.6498 15.6926C94.6498 18.5696 92.2959 20.9235 89.4189 20.9235C86.5419 20.9235 84.1881 18.5696 84.1881 15.6926ZM101.624 13.949H97.9627C97.1562 9.98224 93.6254 6.97449 89.4189 6.97449C85.2124 6.97449 81.6816 9.98224 80.8752 13.949H77.2136V5.23087C77.2136 4.27188 77.9982 3.48725 78.9572 3.48725H99.8807C100.84 3.48725 101.624 4.27188 101.624 5.23087V13.949Z" fill="black"/>
<path d="M54.5466 71.4885H51.0593V74.9758H54.5466V71.4885Z" fill="black"/>
</svg>
