<svg width="72" height="97" viewBox="0 0 72 97" fill="none" xmlns="http://www.w3.org/2000/svg">
<path d="M24.8345 9.40477H47.4062C49.4753 9.40477 51.1682 7.71189 51.1682 5.64282C51.1682 3.57374 49.4753 1.88086 47.4062 1.88086H24.8345C22.7654 1.88086 21.0725 3.57374 21.0725 5.64282C21.0725 7.71189 22.7654 9.40477 24.8345 9.40477Z" fill="#F0F0F0"/>
<path d="M47.4062 9.40466H24.8345V18.8096V27.9323V37.055V42.8108L20.3766 50.5417C32.9415 53.9086 41.2366 47.6826 51.9018 50.5417L47.4062 42.7732V9.40466Z" fill="#F0F0F0"/>
<path d="M51.9016 50.5416C41.2364 47.6825 32.9413 53.9086 20.3764 50.5416L15.9185 58.2724C15.8056 58.4417 15.7116 58.611 15.5987 58.7803L3.95545 78.9256C2.8833 80.5056 2.26257 82.4242 2.26257 84.4745C2.26257 89.9669 6.72049 94.4248 12.2129 94.4248H60.065V94.406C61.7579 94.406 63.4696 93.9734 65.0308 93.0705C69.7709 90.3243 71.3885 84.2487 68.6423 79.5087L56.6793 58.7803H56.6605L51.9016 50.5416Z" fill="#FDE156"/>
<path d="M49.2872 42.2656V10.9661C51.4691 10.1949 53.0491 8.10702 53.0491 5.64293C53.0491 2.53932 50.5098 0 47.4062 0H24.8344C21.7308 0 19.1915 2.53932 19.1915 5.64293C19.1915 8.08821 20.7715 10.1949 22.9535 10.9661V42.3032C22.8218 42.5101 23.0475 42.1339 22.9535 42.3032L2.35674 77.9289C1.05887 79.8851 0.381714 82.1423 0.381714 84.4935C0.381714 91.0017 5.68607 96.3061 12.2131 96.3061H60.0652C60.178 96.3061 60.2721 96.3061 60.3661 96.2873C62.3223 96.2308 64.2597 95.6854 65.9714 94.7073C68.6989 93.1272 70.6551 90.5879 71.4639 87.5407C72.2727 84.4935 71.8589 81.3147 70.2789 78.5873L49.2872 42.2656ZM26.4709 43.7516C26.6402 43.4694 26.7154 43.1496 26.7154 42.8111V38.9362H33.2424C34.2769 38.9362 35.1234 38.0898 35.1234 37.0553C35.1234 36.0207 34.2769 35.1743 33.2424 35.1743H26.7154V29.8135H31.8693C32.9038 29.8135 33.7503 28.9671 33.7503 27.9325C33.7503 26.898 32.9038 26.0515 31.8693 26.0515H26.7154V20.6908H33.2424C34.2769 20.6908 35.1234 19.8443 35.1234 18.8098C35.1234 17.7752 34.2769 16.9288 33.2424 16.9288H26.7154V11.2859H45.5252V42.7734C45.5252 43.112 45.6192 43.4318 45.7697 43.7139L48.2526 48.0026C44.359 47.6452 40.7099 48.2283 37.1548 48.7926C32.8286 49.4697 28.3895 50.1657 23.2732 49.2816L26.4709 43.7516ZM24.8344 3.76196H47.4062C48.4407 3.76196 49.2872 4.6084 49.2872 5.64293C49.2872 6.67747 48.4407 7.52391 47.4062 7.52391H24.8344C23.7999 7.52391 22.9535 6.67747 22.9535 5.64293C22.9535 4.6084 23.7999 3.76196 24.8344 3.76196ZM67.006 80.4494C68.0781 82.3116 68.3791 84.4747 67.8148 86.5438C67.2693 88.6129 65.9338 90.3622 64.0716 91.4343C62.849 92.1491 61.4571 92.5253 60.0463 92.5253C59.9523 92.5253 59.8582 92.5253 59.7642 92.5441H12.2131C7.75515 92.5441 4.14367 88.9326 4.14367 84.4935C4.14367 82.8759 4.61391 81.3147 5.51678 79.998C5.53559 79.9604 5.57321 79.9228 5.59202 79.8851L17.2165 59.7399C17.2917 59.6082 17.3669 59.4765 17.4798 59.326C17.4986 59.2884 17.5174 59.2696 17.5362 59.232L21.2982 52.7238C23.7623 53.2693 26.0759 53.4762 28.2766 53.4762C31.7 53.4762 34.8412 52.9872 37.7568 52.5357C42.1018 51.8586 46.24 51.2002 50.6791 52.216L67.006 80.4494Z" fill="black"/>
<path d="M38.8289 20.6908H38.8853C39.9198 20.6908 40.7663 19.8443 40.7663 18.8098C40.7663 17.7753 39.9198 16.9288 38.8853 16.9288H38.8289C37.7943 16.9288 36.9479 17.7753 36.9479 18.8098C36.9479 19.8443 37.7943 20.6908 38.8289 20.6908Z" fill="black"/>
<path d="M38.8289 38.9363H38.8853C39.9198 38.9363 40.7663 38.0898 40.7663 37.0553C40.7663 36.0208 39.9198 35.1743 38.8853 35.1743H38.8289C37.7943 35.1743 36.9479 36.0208 36.9479 37.0553C36.9479 38.0898 37.7943 38.9363 38.8289 38.9363Z" fill="black"/>
<path d="M24.1294 80.8365C23.2794 80.8365 22.4544 80.7315 21.6544 80.5215C20.8544 80.3115 20.2044 80.0315 19.7044 79.6815L20.6794 77.4915C21.1494 77.8015 21.6944 78.0515 22.3144 78.2415C22.9344 78.4315 23.5444 78.5265 24.1444 78.5265C25.2844 78.5265 25.8544 78.2415 25.8544 77.6715C25.8544 77.3715 25.6894 77.1515 25.3594 77.0115C25.0394 76.8615 24.5194 76.7065 23.7994 76.5465C23.0094 76.3765 22.3494 76.1965 21.8194 76.0065C21.2894 75.8065 20.8344 75.4915 20.4544 75.0615C20.0744 74.6315 19.8844 74.0515 19.8844 73.3215C19.8844 72.6815 20.0594 72.1065 20.4094 71.5965C20.7594 71.0765 21.2794 70.6665 21.9694 70.3665C22.6694 70.0665 23.5244 69.9165 24.5344 69.9165C25.2244 69.9165 25.9044 69.9965 26.5744 70.1565C27.2444 70.3065 27.8344 70.5315 28.3444 70.8315L27.4294 73.0365C26.4294 72.4965 25.4594 72.2265 24.5194 72.2265C23.9294 72.2265 23.4994 72.3165 23.2294 72.4965C22.9594 72.6665 22.8244 72.8915 22.8244 73.1715C22.8244 73.4515 22.9844 73.6615 23.3044 73.8015C23.6244 73.9415 24.1394 74.0865 24.8494 74.2365C25.6494 74.4065 26.3094 74.5915 26.8294 74.7915C27.3594 74.9815 27.8144 75.2915 28.1944 75.7215C28.5844 76.1415 28.7794 76.7165 28.7794 77.4465C28.7794 78.0765 28.6044 78.6465 28.2544 79.1565C27.9044 79.6665 27.3794 80.0765 26.6794 80.3865C25.9794 80.6865 25.1294 80.8365 24.1294 80.8365ZM35.4463 80.8365C34.3363 80.8365 33.3363 80.6015 32.4463 80.1315C31.5663 79.6615 30.8713 79.0115 30.3613 78.1815C29.8613 77.3515 29.6113 76.4165 29.6113 75.3765C29.6113 74.3365 29.8613 73.4015 30.3613 72.5715C30.8713 71.7415 31.5663 71.0915 32.4463 70.6215C33.3363 70.1515 34.3363 69.9165 35.4463 69.9165C36.5563 69.9165 37.5513 70.1515 38.4313 70.6215C39.3213 71.0915 40.0163 71.7415 40.5163 72.5715C41.0263 73.4015 41.2813 74.3365 41.2813 75.3765C41.2813 76.4165 41.0263 77.3515 40.5163 78.1815C40.0163 79.0115 39.3213 79.6615 38.4313 80.1315C37.5513 80.6015 36.5563 80.8365 35.4463 80.8365ZM35.4463 78.3765C35.9763 78.3765 36.4563 78.2515 36.8863 78.0015C37.3163 77.7515 37.6563 77.4015 37.9063 76.9515C38.1563 76.4915 38.2813 75.9665 38.2813 75.3765C38.2813 74.7865 38.1563 74.2665 37.9063 73.8165C37.6563 73.3565 37.3163 73.0015 36.8863 72.7515C36.4563 72.5015 35.9763 72.3765 35.4463 72.3765C34.9163 72.3765 34.4363 72.5015 34.0063 72.7515C33.5763 73.0015 33.2363 73.3565 32.9863 73.8165C32.7363 74.2665 32.6113 74.7865 32.6113 75.3765C32.6113 75.9665 32.7363 76.4915 32.9863 76.9515C33.2363 77.4015 33.5763 77.7515 34.0063 78.0015C34.4363 78.2515 34.9163 78.3765 35.4463 78.3765ZM47.7119 80.6415V82.1265H42.3569V80.9415L44.8469 78.7965C45.0969 78.5865 45.2669 78.4115 45.3569 78.2715C45.4469 78.1215 45.4919 77.9815 45.4919 77.8515C45.4919 77.6815 45.4219 77.5465 45.2819 77.4465C45.1419 77.3365 44.9269 77.2815 44.6369 77.2815C44.3669 77.2815 44.1269 77.3365 43.9169 77.4465C43.7169 77.5465 43.5569 77.6965 43.4369 77.8965L41.9819 77.1165C42.2219 76.6965 42.5819 76.3665 43.0619 76.1265C43.5419 75.8865 44.1269 75.7665 44.8169 75.7665C45.6269 75.7665 46.2769 75.9465 46.7669 76.3065C47.2569 76.6565 47.5019 77.1215 47.5019 77.7015C47.5019 78.0215 47.4169 78.3265 47.2469 78.6165C47.0769 78.9065 46.7619 79.2565 46.3019 79.6665L45.1619 80.6415H47.7119Z" fill="black"/>
</svg>
