<svg width="101" height="102" viewBox="0 0 101 102" fill="none" xmlns="http://www.w3.org/2000/svg">
<path d="M1.83803 72.2559L5.88974 73.674L8.32076 77.7257C8.32076 77.7257 8.72593 78.9412 11.7647 79.7515C14.8035 80.5619 14.6009 78.7386 15.2087 80.3593C15.8164 81.9799 16.6268 84.2084 17.0319 85.2213C17.4371 86.2342 18.45 86.6394 19.0578 87.0446C19.6655 87.4497 21.894 88.0575 22.5017 88.2601C23.1095 88.4627 22.9069 91.0963 22.5017 92.3118C22.0966 93.5273 24.1224 92.9195 21.0836 93.9325C18.0448 94.9454 14.8035 94.1351 14.8035 95.7557C14.8035 97.3764 15.2087 100.618 13.9931 100.82C12.7776 101.023 0.825107 101.226 1.02769 100.213C1.23028 99.1997 1.83803 72.2559 1.83803 72.2559Z" fill="#FDE156"/>
<path d="M72.9455 89.6781C72.9455 87.8953 73.4317 86.2544 74.2623 84.816H47.0146C44.3405 84.816 42.1526 87.004 42.1526 89.6781C42.1526 92.3522 44.3405 94.5401 47.0146 94.5401H74.2623C73.4317 93.122 72.9455 91.4608 72.9455 89.6781Z" fill="#FDE156"/>
<path d="M61.6007 49.1611C58.9266 49.1611 56.7386 46.9732 56.7386 44.2991C56.7386 41.6249 58.9266 39.437 61.6007 39.437C64.2748 39.437 66.4627 41.6249 66.4627 44.2991C66.4627 46.9732 64.2748 49.1611 61.6007 49.1611Z" fill="#FDE156"/>
<path d="M8.11818 55.6438C3.64105 55.6438 0.0147705 52.0176 0.0147705 47.5404C0.0147705 43.0633 3.64105 39.437 8.11818 39.437C12.5953 39.437 16.2216 43.0633 16.2216 47.5404C16.2216 52.0176 12.5953 55.6438 8.11818 55.6438Z" fill="#FDE156"/>
<path d="M95.5945 80.3592C96.6074 79.4678 97.2557 78.1712 97.2557 76.7329V16.7677C97.2557 13.2022 94.3384 10.285 90.7729 10.285H67.273C57.2856 10.285 48.1693 16.1599 44.0365 25.256C43.9352 25.4991 43.8542 25.7219 43.7529 25.965L39.4378 19.4823C37.6348 16.7879 34.6568 15.1673 31.4357 15.147C31.3952 15.1065 31.375 15.0457 31.3344 15.0052L18.6526 2.32336C16.6268 0.277245 13.2436 -0.0063737 10.8936 1.67508L5.0794 5.82808C3.72208 6.80049 2.48631 7.97548 1.61519 9.39358C-0.694278 13.1617 -0.329624 17.2944 1.61519 20.4547C1.67597 20.556 1.71649 20.6573 1.73674 20.7586L4.53242 40.3283C5.62638 39.7814 6.82163 39.4572 8.11818 39.4572C8.76645 39.4572 9.39446 39.5585 9.98196 39.7003L15.6138 5.92937C16.566 5.62549 16.2418 5.72679 17.1737 5.42291L26.8776 15.1267H21.0836C18.4095 15.1267 16.2216 17.3147 16.2216 19.9888V22.3185C16.2216 24.547 17.741 26.4918 19.9086 27.0387L23.7578 28.0112L15.6341 53.78L14.5806 52.3822C13.9324 53.2533 13.1018 53.9826 12.1496 54.5296L13.9526 56.9403C14.8643 58.1558 16.3026 58.8851 17.8423 58.8851H20.6785C20.7798 58.8851 20.8608 58.9054 20.9418 58.9257L22.5422 59.4524L19.8276 62.6937L22.3194 64.7804L29.9569 55.6438H32.4284V63.0381C32.4284 64.4967 31.9422 65.9554 30.9293 66.9885C29.8961 68.042 28.5185 68.6092 27.0802 68.6092H15.938C13.122 68.6092 10.5087 67.3937 8.66516 65.2058C7.18629 63.423 6.4975 61.1338 6.4975 58.8041V55.4817C5.30224 55.2386 4.20828 54.6916 3.25613 53.9826V59.1688C3.25613 62.8356 4.79578 66.2592 7.5712 68.6903C9.98196 70.8174 13.1828 71.8506 16.3837 71.8506H27.0802C28.6806 71.8506 30.2405 71.4049 31.6181 70.554C33.9275 69.1157 35.69 65.5502 35.69 62.8355V55.6235C35.69 53.8408 34.2314 52.3822 32.4487 52.3822H29.9771C28.9844 52.3822 28.0728 52.8278 27.4651 53.5774L24.7909 56.7783L21.9953 55.8464C21.5698 55.7046 21.1444 55.6438 20.6987 55.6438H18.4298L26.9181 28.781L28.8021 29.2469C29.3086 29.3685 29.734 29.7331 29.9163 30.2396L40.1672 56.5959L38.9314 73.3497V76.7126C38.9314 78.1712 39.5797 79.4475 40.5926 80.3389C39.2353 81.2708 38.121 82.4863 37.2702 83.9044L32.4284 86.8216V78.3333C32.4284 76.5506 30.9698 75.092 29.187 75.092H25.7836C24.1021 75.092 22.7246 76.348 22.5625 78.0092L21.7927 85.7479L20.1315 85.3225C19.544 85.1807 19.0983 84.735 18.9565 84.1475L18.288 81.4329C17.8423 79.6906 16.5052 78.3333 14.7427 77.8876L11.3595 77.0368C10.9746 76.9355 10.6302 76.6924 10.4074 76.3682L8.46257 73.5118C7.87508 72.6204 6.9837 71.9316 5.95052 71.6075L0.0147705 69.6019V101.023H29.187C30.9698 101.023 32.4284 99.5642 32.4284 97.7815V97.0724L36.7435 94.4794C38.5667 98.3285 42.4766 101.023 47.0145 101.023H89.1522C95.4121 101.023 100.497 95.938 100.497 89.6781C100.497 85.8087 98.5522 82.4053 95.5945 80.3592ZM7.24706 36.459L5.74793 26.0056C5.64664 25.2965 6.41646 24.7698 7.04448 25.1547L8.44231 25.9853C8.74619 26.1676 8.90826 26.512 8.84748 26.8564L7.24706 36.459ZM9.7186 21.5892C9.61731 22.197 8.94878 22.5008 8.42206 22.1767L6.82163 21.2246C3.25613 19.0772 1.87855 14.053 4.97811 10.1431C5.38328 9.61642 5.91 9.19099 6.45698 8.80608L10.8936 5.64575C11.5216 5.20007 12.3725 5.72679 12.2509 6.49661L9.7186 21.5892ZM12.9802 95.8772V97.7815H3.25613V74.0993L4.93759 74.6665C5.28198 74.7881 5.58586 75.0109 5.76819 75.3148L7.69275 78.2118C8.36128 79.2247 9.37421 79.9337 10.5695 80.2376L13.9526 81.0885C14.5401 81.2303 14.9858 81.676 15.1276 82.2635L15.7962 84.9781C16.2418 86.7203 17.5789 88.0777 19.3414 88.5234L21.4685 89.0501L21.2052 91.6026L15.5733 92.7371C14.0742 93.0005 12.9802 94.3375 12.9802 95.8772ZM29.187 97.7815H16.2216V95.8772L24.2034 94.2768L25.8039 78.3333H29.187V97.7815ZM73.229 78.3333L74.0799 73.2079C74.2015 72.4178 74.8903 71.8506 75.6803 71.8506H94.0143V76.7126C94.0143 77.604 93.285 78.3333 92.3936 78.3333H73.229ZM50.1951 52.4024H51.8766C52.768 52.4024 53.4973 53.1317 53.4973 54.0231V63.1192L55.8472 64.2942C56.3942 64.5778 56.7386 65.1248 56.7386 65.7528V71.8506H48.7568L50.1951 52.4024ZM57.2856 61.4175L56.7386 61.1338V54.0231C56.7386 53.2735 56.5563 52.5645 56.2524 51.9365L59.514 48.6748C58.5011 48.1886 57.711 47.3783 57.2248 46.3856L53.9632 49.6473C53.3352 49.3434 52.6261 49.1611 51.8766 49.1611H50.4382L51.5119 34.5344C51.6942 32.3262 52.3223 30.2193 53.3757 28.2543C56.1309 23.1491 61.702 19.9888 67.9011 19.9888H87.5316V39.437H86.9035C84.6751 39.437 82.6493 40.6727 81.6566 42.6783C81.2514 43.4887 81.0286 44.4003 81.0286 45.2917V52.4024H72.9252C70.2511 52.4024 68.0631 54.5903 68.0631 57.2645C68.0631 58.7231 68.7114 60.0196 69.7446 60.911C68.7519 61.5998 67.8403 62.4304 67.0907 63.423C65.6321 65.3679 64.8218 67.7989 64.8218 70.2299V71.8506H59.9597V65.7528C59.98 63.9093 58.9468 62.2278 57.2856 61.4175ZM72.9454 58.8851C72.0541 58.8851 71.3248 58.1558 71.3248 57.2645C71.3248 56.3731 72.0541 55.6438 72.9454 55.6438H81.0488V58.8851H76.1868H72.9454ZM87.5316 58.8851H84.2902V45.2917C84.2902 44.8865 84.3915 44.4813 84.5738 44.1167C85.0195 43.2253 85.9109 42.6581 86.9238 42.6581H87.5518V58.8851H87.5316ZM68.0834 70.2299C68.0834 68.4877 68.6506 66.7657 69.7041 65.3679C71.2235 63.342 73.6545 62.1265 76.1868 62.1265H87.5316V68.6092H75.7006C73.5937 68.6092 71.7907 69.926 71.1222 71.8506H68.0834V70.2299ZM67.273 13.5061H90.7729C92.5557 13.5061 94.0143 14.9647 94.0143 16.7474V68.6092H90.7729V16.7474H67.9011C60.5067 16.7474 53.8417 20.5763 50.5193 26.7146C49.243 29.0646 48.4934 31.6172 48.2706 34.271L45.4951 71.8303H42.2538L45.09 34.0077C45.2723 31.4348 45.9206 28.9228 46.9943 26.5728C50.58 18.6315 58.5619 13.5061 67.273 13.5061ZM32.9349 29.0646C32.3676 27.606 31.1116 26.4918 29.5922 26.1069L20.719 23.8784C19.9897 23.6961 19.4832 23.0478 19.4832 22.2983V19.9888C19.4832 19.0974 20.2125 18.3681 21.1039 18.3681H31.3547C33.5224 18.3681 35.5482 19.4418 36.7435 21.2448L42.4766 29.8547C42.1727 31.131 41.9499 32.4478 41.8689 33.7646L40.7344 49.08L32.9349 29.0646ZM43.7732 78.3333C42.8818 78.3333 42.1525 77.604 42.1525 76.7126V75.092H70.4941L69.9472 78.3333H43.7732ZM32.4284 93.3044V90.61L35.7305 88.6246C35.69 88.969 35.6698 89.3337 35.6698 89.6781C35.6698 90.2251 35.7305 90.7518 35.7913 91.2785L32.4284 93.3044ZM59.9395 97.7815C59.9597 97.7612 59.9597 97.741 59.98 97.741C60.0002 97.7612 60.0002 97.7815 60.0205 97.7815H59.9395ZM66.4627 97.7815C64.3558 97.7815 62.5731 96.4242 61.9045 94.5401H58.0554C57.3869 96.4242 55.6041 97.7815 53.4973 97.7815C51.3904 97.7815 49.6076 96.4242 48.9391 94.5401H47.0145C46.4878 94.5401 45.9813 94.4388 45.5154 94.2768C45.7382 95.5733 46.2852 96.7686 47.055 97.7815H47.0145C42.5374 97.7815 38.9111 94.1552 38.9111 89.6781C38.9111 85.201 42.5374 81.5747 47.0145 81.5747H74.789C73.8368 82.5066 73.0265 83.6005 72.439 84.816H74.2622C73.4316 86.2544 72.9454 87.8953 72.9454 89.6781C72.9454 91.4608 73.4316 93.1018 74.2622 94.5401H71.0209C70.3523 96.4242 68.5696 97.7815 66.4627 97.7815ZM72.9049 97.7815C73.1885 97.3966 73.4519 96.9914 73.6747 96.5457C73.9989 96.9712 74.3635 97.3966 74.7484 97.7815H72.9049ZM82.6695 97.7815C78.1924 97.7815 74.5661 94.1552 74.5661 89.6781C74.5661 85.201 78.1924 81.5747 82.6695 81.5747C87.1467 81.5747 90.7729 85.201 90.7729 89.6781C90.7729 94.1552 87.1467 97.7815 82.6695 97.7815ZM90.7527 97.6194C92.7583 95.5733 94.0143 92.7776 94.0143 89.6781C94.0143 86.5785 92.7785 83.7829 90.7527 81.7368C94.46 82.4863 97.2557 85.7682 97.2557 89.6781C97.2557 93.588 94.46 96.8699 90.7527 97.6194Z" fill="black"/>
<path d="M6.49744 83.1953H9.7388V86.4367H6.49744V83.1953Z" fill="black"/>
<path d="M6.49744 89.6781H9.7388V92.9195H6.49744V89.6781Z" fill="black"/>
<path d="M8.11812 49.1609C9.0132 49.1609 9.7388 48.4353 9.7388 47.5402C9.7388 46.6452 9.0132 45.9196 8.11812 45.9196C7.22304 45.9196 6.49744 46.6452 6.49744 47.5402C6.49744 48.4353 7.22304 49.1609 8.11812 49.1609Z" fill="black"/>
</svg>
