<svg width="50" height="52" viewBox="0 0 50 52" fill="none" xmlns="http://www.w3.org/2000/svg">
<path fill-rule="evenodd" clip-rule="evenodd" d="M50 40.4042C50 46.5958 45.1298 51.6159 39.1213 51.6159H10.8787C4.87114 51.6159 0 46.5958 0 40.4042V11.6477C0 5.45611 4.87018 0.436035 10.8787 0.436035H39.1213C45.1289 0.436035 50 5.45611 50 11.6477V40.4042Z" fill="url(#paint0_radial)"/>
<path fill-rule="evenodd" clip-rule="evenodd" d="M32.526 45.3007H17.3267C11.5106 45.3007 6.75244 40.42 6.75244 34.4542V17.8403C6.75244 11.8746 11.5106 6.9939 17.3267 6.9939H32.526C38.3421 6.9939 43.1002 11.8746 43.1002 17.8403V34.4532C43.1002 40.419 38.3421 45.3007 32.526 45.3007ZM32.526 42.4341C34.593 42.4341 36.5432 41.6004 38.0185 40.0871C39.4938 38.5738 40.3066 36.5734 40.3066 34.4532V17.8403C40.3066 15.7202 39.4938 13.7198 38.0185 12.2065C36.5432 10.6932 34.593 9.85944 32.526 9.85944H17.3267C15.2597 9.85944 13.3095 10.6932 11.8342 12.2065C10.3589 13.7198 9.54607 15.7202 9.54607 17.8403V34.4532C9.54607 36.5734 10.3589 38.5738 11.8342 40.0871C13.3095 41.6004 15.2597 42.4341 17.3267 42.4341H32.526Z" fill="#FEFEFE"/>
<path fill-rule="evenodd" clip-rule="evenodd" d="M34.9912 25.9993C34.9912 31.6695 30.5097 36.2664 24.9818 36.2664C19.4539 36.2664 14.9734 31.6695 14.9734 25.9993C14.9734 20.3291 19.4549 15.7322 24.9828 15.7322C30.5107 15.7322 34.9912 20.3291 34.9912 25.9993ZM24.9339 19.2842C21.3141 19.2842 18.3797 22.2941 18.3797 26.0072C18.3797 29.7202 21.3141 32.7301 24.9339 32.7301C28.5538 32.7301 31.4882 29.7202 31.4882 26.0072C31.4882 22.2941 28.5538 19.2842 24.9339 19.2842Z" fill="#FEFEFE"/>
<path d="M37.4712 16.0629C37.7354 14.7477 36.9102 13.4618 35.628 13.1908C34.3458 12.9198 33.0922 13.7663 32.828 15.0815C32.5638 16.3967 33.389 17.6826 34.6712 17.9536C35.9534 18.2246 37.207 17.3781 37.4712 16.0629Z" fill="#FEFEFE"/>
<defs>
<radialGradient id="paint0_radial" cx="0" cy="0" r="1" gradientUnits="userSpaceOnUse" gradientTransform="translate(14.531 51.4879) scale(50.46 51.7587)">
<stop stop-color="#FDD869"/>
<stop offset="0.25" stop-color="#F2A544"/>
<stop offset="0.38" stop-color="#EA522B"/>
<stop offset="0.55" stop-color="#D83D5F"/>
<stop offset="0.7" stop-color="#C51881"/>
<stop offset="0.85" stop-color="#994B96"/>
<stop offset="0.99" stop-color="#6664AB"/>
<stop offset="1" stop-color="#6664AB"/>
</radialGradient>
</defs>
</svg>
