<svg width="23" height="18" viewBox="0 0 23 18" fill="none" xmlns="http://www.w3.org/2000/svg">
<path d="M21.85 0.123627H1.15C0.516602 0.123627 0 0.620954 0 1.23072V15.9905C0 16.6003 0.516602 17.0976 1.15 17.0976H21.85C22.4834 17.0976 23 16.6003 23 15.9905V1.23072C23 0.620954 22.4834 0.123627 21.85 0.123627ZM22.2318 15.9905C22.2318 16.1938 22.0611 16.3581 21.85 16.3581H1.15C0.938867 16.3581 0.768164 16.1938 0.768164 15.9905V1.23072C0.768164 1.02746 0.938867 0.863131 1.15 0.863131H21.85C22.0611 0.863131 22.2318 1.02746 22.2318 1.23072V15.9905Z" fill="black"/>
<path d="M21.1178 1.60262C21.0145 1.59397 20.9156 1.62424 20.8393 1.68911L11.9941 8.83765C11.7111 9.06685 11.2934 9.06685 11.0059 8.83765L2.16524 1.68479C2.06192 1.5983 1.91817 1.57667 1.7879 1.61992C1.65762 1.66317 1.56329 1.77128 1.54083 1.90102C1.51837 2.03076 1.56778 2.16482 1.6711 2.24698L10.5117 9.40417C11.0822 9.8669 11.9133 9.8669 12.4838 9.40417L21.3289 2.25131C21.4053 2.18644 21.4547 2.09995 21.4637 2.00048C21.4727 1.90102 21.4412 1.80588 21.3738 1.73236C21.3109 1.65452 21.2166 1.61127 21.1178 1.60262Z" fill="black"/>
<path d="M7.37167 9.35228C7.23691 9.32201 7.09316 9.36525 7.00331 9.46472L1.63515 15.0002C1.53633 15.0953 1.50039 15.2337 1.54082 15.3635C1.58125 15.4932 1.68906 15.5883 1.82383 15.6186C1.95859 15.6489 2.10234 15.6056 2.19218 15.5062L7.56034 9.97069C7.65917 9.87555 7.69511 9.73717 7.65468 9.60743C7.61425 9.47769 7.50644 9.38255 7.37167 9.35228Z" fill="black"/>
<path d="M15.9967 9.46472C15.9024 9.36525 15.7631 9.32201 15.6283 9.35228C15.4936 9.38255 15.3858 9.47769 15.3453 9.60743C15.3049 9.73717 15.3408 9.87555 15.4397 9.97069L20.8078 15.5062C20.9515 15.6489 21.1896 15.6532 21.3424 15.5191C21.4951 15.3807 21.5041 15.1515 21.3648 15.0045L15.9967 9.46472Z" fill="black"/>
</svg>
