<svg width="37" height="35" viewBox="0 0 37 35" fill="none" xmlns="http://www.w3.org/2000/svg">
<path d="M36.0384 27.002L28.6836 22.2786C27.7465 21.6839 26.4971 21.8822 25.8085 22.7298L23.6645 25.382C23.3876 25.7306 22.8907 25.8332 22.4932 25.6212L22.0885 25.4025C20.7397 24.6916 19.0572 23.8098 15.6638 20.5492C12.2703 17.2886 11.3546 15.6686 10.6233 14.363L10.4033 13.9733C10.1761 13.5905 10.2826 13.1052 10.6446 12.8386L13.3991 10.7743C14.2794 10.1112 14.4853 8.9013 13.8677 8.00583L8.94794 0.917288C8.31611 0.00131403 7.04536 -0.272111 6.07277 0.295246L2.99883 2.07251C2.03334 2.61936 1.32343 3.50799 1.01816 4.54701C-0.0893068 8.43648 0.741296 15.1422 11.0067 25.0265C19.1707 32.8875 25.2476 34.9997 29.4219 34.9997C30.3803 35.0066 31.3387 34.8835 32.2687 34.6443C33.3478 34.3503 34.2707 33.6668 34.8386 32.7371L36.6915 29.7773C37.2807 28.834 36.9897 27.6104 36.0384 27.002ZM35.6479 29.1826L33.8021 32.1424C33.3975 32.8123 32.7302 33.3113 31.9563 33.5232C28.2293 34.5076 21.7193 33.6941 11.8657 24.2063C2.01205 14.7184 1.16015 8.44331 2.18243 4.85461C2.4025 4.10269 2.92074 3.46698 3.61646 3.07051L6.6904 1.29325C7.11635 1.04717 7.66299 1.16337 7.93985 1.56667L10.602 5.42197L12.8383 8.65522C13.108 9.04485 13.0158 9.57119 12.6324 9.85829L9.87793 11.9226C9.04023 12.5379 8.79885 13.6589 9.31709 14.5407L9.53717 14.9235C10.311 16.2906 11.2765 17.9927 14.7906 21.3763C18.3046 24.76 20.0723 25.6896 21.4922 26.4347L21.8897 26.6466C22.8126 27.1456 23.9698 26.9132 24.6087 26.1066L26.7527 23.4544C27.0508 23.0852 27.5975 23.0032 28.0021 23.2561L35.3568 27.9795C35.7757 28.2393 35.9035 28.7725 35.6479 29.1826Z" fill="black"/>
<path d="M21.2434 5.839C26.9299 5.84583 31.5372 10.2822 31.5443 15.7575C31.5443 16.0788 31.8141 16.3385 32.1478 16.3385C32.4814 16.3385 32.7512 16.0788 32.7512 15.7575C32.7441 9.63961 27.5972 4.68378 21.2434 4.67694C20.9098 4.67694 20.64 4.93669 20.64 5.25797C20.64 5.57924 20.9027 5.839 21.2434 5.839Z" fill="black"/>
<path d="M21.2435 9.33891C24.9208 9.34574 27.9025 12.2167 27.9096 15.7576C27.9096 16.0788 28.1794 16.3386 28.513 16.3386C28.8467 16.3386 29.1165 16.0788 29.1165 15.7576C29.1094 11.5742 25.5882 8.17685 21.2435 8.17685C20.9098 8.17685 20.64 8.4366 20.64 8.75788C20.6329 9.07915 20.9027 9.33891 21.2435 9.33891Z" fill="black"/>
<path d="M21.2434 12.8387C22.9188 12.8387 24.2677 14.1443 24.2748 15.7575C24.2748 16.0788 24.5445 16.3385 24.8782 16.3385C25.2119 16.3385 25.4816 16.0788 25.4816 15.7575C25.4816 13.5017 23.5791 11.6766 21.2434 11.6766C20.9098 11.6766 20.64 11.9364 20.64 12.2577C20.64 12.5789 20.9027 12.8387 21.2434 12.8387Z" fill="black"/>
</svg>
