<svg width="50" height="51" viewBox="0 0 50 51" fill="none" xmlns="http://www.w3.org/2000/svg">
<g clip-path="url(#clip0)">
<path d="M43.2618 0.436035H6.73818C3.01622 0.436035 0 3.4725 0 7.21821V43.9882C0 47.7339 3.01622 50.7716 6.73696 50.7716H24.7511V50.7654H32.5436V50.7716H43.2618C43.3389 50.7716 43.4147 50.7679 43.4918 50.7654H43.5309V50.7642C47.1269 50.6226 50 47.644 50 43.9882V7.21821C50 3.4725 46.9826 0.436035 43.2618 0.436035Z" fill="#44678D"/>
<path d="M12.9529 15.7722C14.1515 18.7508 15.6694 21.5594 17.6705 24.0812C17.9359 24.4174 18.2698 24.7153 18.622 24.9579C19.137 25.3138 19.6226 25.1882 19.8317 24.5959C20.0531 23.9741 20.2561 22.7144 20.2684 22.0606C20.3014 20.354 20.2635 19.2359 20.173 17.5318C20.1143 16.4408 19.729 15.4816 18.134 15.1922C17.6411 15.1023 17.5958 14.6948 17.9126 14.2872C18.5719 13.44 19.4892 13.3046 20.4836 13.2516C22.0969 13.1642 23.7151 13.2356 25.3296 13.2516C25.9877 13.2578 26.6494 13.3108 27.2964 13.4536C28.1416 13.6395 28.5942 14.2355 28.7336 15.0666C28.8058 15.4951 28.8425 15.9347 28.8327 16.3681C28.7911 18.2311 28.7018 20.0917 28.681 21.9535C28.6724 22.6836 28.725 23.4335 28.8804 24.144C29.0981 25.1352 29.7684 25.3852 30.4545 24.6685C31.3254 23.7586 32.0935 22.7341 32.8139 21.6949C34.1239 19.8036 35.1012 17.7275 35.9427 15.5863C36.3781 14.4817 36.712 14.2416 37.8923 14.2392C40.1111 14.2342 42.3286 14.2318 44.5473 14.2392C44.9412 14.2416 45.3522 14.2786 45.724 14.398C46.327 14.5913 46.5655 15.0863 46.4248 15.7143C46.0958 17.1857 45.3057 18.4368 44.4593 19.6386C43.1016 21.5681 41.6791 23.4495 40.2896 25.3569C40.1123 25.5994 39.9557 25.8592 39.8114 26.1215C39.2916 27.0672 39.3283 27.5967 40.0854 28.3835C41.2914 29.6357 42.583 30.808 43.7511 32.0947C44.5999 33.0305 45.3864 34.0464 46.0591 35.1164C46.9104 36.4684 46.3845 37.7428 44.7944 37.9694C43.7939 38.111 38.9087 37.9706 38.6568 37.9694C37.3432 37.9632 36.1922 37.5052 35.2651 36.6063C34.234 35.6065 33.2971 34.5106 32.3063 33.4664C32.0079 33.1524 31.6899 32.8507 31.3462 32.5872C30.5365 31.9654 29.7415 32.1033 29.3635 33.0613C29.0406 33.8838 28.7605 36.0436 28.7483 36.2283C28.6798 37.1924 28.0707 37.8081 26.9968 37.8672C23.8986 38.0371 20.8958 37.6886 18.0998 36.1803C15.7294 34.9021 13.836 33.0958 12.197 30.9877C9.59174 27.641 7.53445 23.9618 5.65573 20.1742C5.56033 19.9809 3.65715 15.9052 3.60578 15.7131C3.43577 15.0691 3.59477 14.4522 4.13539 14.2404C4.47297 14.1087 10.7451 14.2404 10.8503 14.2453C11.8484 14.302 12.5309 14.7268 12.9529 15.7722Z" fill="white"/>
</g>
<defs>
<clipPath id="clip0">
<rect y="0.436035" width="50" height="50.3356" fill="white"/>
</clipPath>
</defs>
</svg>
