<svg width="1089" height="450" viewBox="0 0 1089 450" fill="none" xmlns="http://www.w3.org/2000/svg">
<path d="M1223.79 613.274C1212.88 620.282 1190.28 621.45 1164.17 613.274C1138.07 605.098 1111.18 586.799 1087.41 564.218C1058.96 536.964 1039.87 503.87 1014.93 476.228C977.52 435.347 927.252 422.499 878.543 441.187C869.191 444.691 860.618 449.363 852.045 455.593C825.937 473.891 803.726 500.756 779.956 524.895C772.162 532.681 764.369 540.079 756.186 546.697C730.078 567.722 700.073 581.738 673.185 585.242C669.289 585.631 665.392 586.02 661.885 586.02C637.336 586.41 617.462 578.623 595.641 570.058C565.246 558.378 525.5 547.866 480.298 544.361C463.931 543.193 447.565 543.193 431.199 545.14C422.236 546.308 414.053 547.087 405.87 548.255C361.447 555.263 322.48 563.05 263.25 569.668C228.959 573.562 204.799 590.693 183.367 598.869C153.752 610.159 119.46 629.626 79.7139 598.479" stroke="#FAE26B" stroke-opacity="0.1" stroke-width="1.7459" stroke-miterlimit="10"/>
<path d="M1210.15 579.012C1198.85 586.799 1175.86 589.135 1149.37 581.738C1122.87 574.34 1095.2 556.041 1071.43 533.07C1042.6 505.817 1023.5 471.944 998.173 443.912C961.154 403.032 911.665 389.794 862.956 407.704C853.994 411.208 845.031 415.88 836.458 421.72C810.35 439.63 788.139 466.104 764.369 489.854C756.575 497.641 748.782 504.649 740.599 511.657C714.88 532.681 685.265 547.086 658.768 551.369C654.871 551.759 650.974 552.148 647.467 552.537C622.918 553.316 603.434 546.697 581.612 538.91C551.218 528.398 511.861 518.276 466.659 515.161C450.293 513.993 433.926 513.993 417.95 515.55C408.987 516.329 400.804 517.108 393.011 518.276C348.588 524.505 310.01 530.734 250.78 537.742C216.489 542.025 192.329 559.935 170.897 568.889C141.672 581.348 106.991 602.762 66.4648 572.004" stroke="#FAE26B" stroke-opacity="0.1" stroke-width="1.7828" stroke-miterlimit="10"/>
<path d="M1197.3 544.751C1185.99 553.706 1162.22 556.82 1135.34 549.812C1108.06 542.804 1080 524.505 1055.84 501.535C1026.62 473.892 1007.52 440.019 982.196 411.208C945.956 370.328 896.858 356.312 848.149 373.443C839.186 376.557 830.224 381.229 821.651 387.069C795.543 404.59 772.942 430.675 749.172 454.425C741.768 461.822 733.974 469.22 725.402 476.228C699.683 497.252 670.848 512.047 644.739 516.719C640.843 517.497 637.336 517.887 633.439 517.887C609.279 519.444 589.796 513.604 567.974 506.596C537.579 496.862 498.222 487.908 453.41 484.404C437.044 483.236 421.067 482.846 404.701 484.404C395.738 485.182 387.555 485.961 379.762 486.74C335.729 492.19 296.762 496.862 238.311 504.649C203.63 508.932 179.47 528.009 158.428 537.743C129.202 551.37 94.5214 574.73 53.2161 544.362" stroke="#FAE26B" stroke-opacity="0.1" stroke-width="1.8197" stroke-miterlimit="10"/>
<path d="M1187.16 512.046C1175.47 522.169 1151.31 526.062 1123.65 519.444C1095.98 512.825 1067.14 494.916 1042.6 471.555C1012.98 443.912 993.886 409.261 968.558 380.061C932.708 339.181 884.388 324.386 835.29 341.127C826.327 344.242 817.365 348.525 808.792 354.365C782.684 371.496 760.083 397.192 736.313 420.941C728.909 428.339 721.115 435.736 712.932 442.744C687.604 464.158 659.157 478.953 633.049 484.403C629.153 485.182 625.646 485.571 622.139 485.961C598.369 488.297 578.495 483.235 557.063 477.006C527.058 468.441 487.701 460.265 442.889 456.761C426.912 455.593 410.546 455.203 394.57 456.371C385.997 457.15 377.424 457.539 369.631 458.318C325.987 462.601 287.02 466.494 228.959 474.281C193.888 478.953 170.118 498.809 149.076 509.71C120.24 524.505 85.1694 549.812 43.0847 519.444" stroke="#FAE26B" stroke-opacity="0.1" stroke-width="1.8566" stroke-miterlimit="10"/>
<path d="M1180.15 480.51C1168.46 491.801 1143.91 496.473 1115.46 490.244C1087.02 484.014 1058.18 466.105 1032.85 442.745C1002.85 414.712 983.755 379.672 958.036 350.082C922.576 309.202 874.646 294.018 825.937 309.591C816.975 312.706 808.012 316.989 799.439 322.439C773.331 339.181 750.73 364.877 726.96 388.237C719.556 395.635 711.763 403.032 703.58 410.04C678.641 431.454 650.584 446.638 624.866 452.478C621.359 453.257 617.462 454.035 613.955 454.425C590.575 457.15 570.701 453.257 549.269 447.806C519.265 440.409 479.908 432.622 435.485 429.118C419.508 427.95 403.142 427.56 387.555 428.339C378.982 428.728 370.799 429.118 363.006 429.896C319.752 433.4 280.395 435.736 222.724 443.913C187.653 448.974 163.883 469.609 142.841 481.289C114.005 497.252 78.9343 524.505 35.6807 494.526" stroke="#FAE26B" stroke-opacity="0.1" stroke-width="1.8934" stroke-miterlimit="10"/>
<path d="M1175.86 450.142C1163.78 462.211 1138.84 468.051 1110.01 462.211C1081.17 456.761 1051.56 438.462 1026.23 415.102C995.835 387.069 976.741 351.25 951.022 321.271C916.341 280.391 868.801 264.428 820.092 279.612C811.13 282.338 802.167 286.62 793.595 292.071C767.486 308.423 744.496 333.73 721.115 357.09C713.712 364.488 705.918 371.885 698.125 378.893C673.186 400.307 645.519 415.88 620.58 422.499C617.073 423.278 613.176 424.056 609.669 424.835C586.289 428.339 566.805 425.224 545.373 420.552C515.368 413.934 476.401 407.315 431.978 403.811C416.002 402.643 400.025 401.864 384.048 402.643C375.476 403.032 367.292 403.422 359.499 403.811C316.245 406.536 277.278 407.704 219.996 416.27C184.536 421.72 160.766 443.134 140.113 455.593C111.667 472.334 76.2069 501.924 32.1738 472.334" stroke="#FAE26B" stroke-opacity="0.1" stroke-width="1.9303" stroke-miterlimit="10"/>
<path d="M1173.92 420.942C1161.84 434.179 1136.12 440.798 1106.89 435.736C1077.28 430.675 1047.27 412.766 1021.55 389.016C990.769 360.594 971.285 324.776 945.567 294.018C911.276 253.138 864.515 236.396 815.806 250.801C806.843 253.527 797.881 257.42 789.308 262.871C763.2 278.834 740.209 303.751 716.829 327.112C709.425 334.509 702.021 341.906 693.838 348.525C669.289 369.939 642.012 385.901 617.073 392.909C613.566 394.077 610.059 394.856 606.551 395.245C583.561 399.528 564.077 397.192 542.645 393.299C512.64 387.848 474.063 382.008 429.64 378.115C413.663 376.947 397.687 376.168 382.1 376.557C373.527 376.947 365.344 376.947 357.55 377.336C314.686 378.893 275.33 378.893 218.827 387.848C183.367 393.299 159.597 415.88 138.944 429.118C110.498 447.027 75.0377 478.564 30.2253 448.974" stroke="#FAE26B" stroke-opacity="0.1" stroke-width="1.9672" stroke-miterlimit="10"/>
<path d="M1173.92 392.909C1161.45 407.315 1135.34 414.712 1105.33 410.04C1075.33 405.368 1044.54 387.459 1018.44 363.709C987.262 335.288 967.778 298.69 942.06 267.543C908.158 226.663 862.177 209.532 813.468 223.159C804.505 225.884 795.543 229.777 786.97 234.839C760.472 250.412 737.871 274.94 714.491 298.301C707.087 305.698 699.683 313.095 691.89 319.714C667.73 341.128 640.843 357.48 616.293 364.877C612.786 366.045 609.279 366.824 605.772 367.603C583.171 372.275 563.687 370.717 542.255 367.603C512.251 363.32 473.673 357.869 429.64 354.365C413.663 353.197 397.687 352.029 382.49 352.418C373.917 352.418 365.734 352.418 358.33 352.418C315.855 353.197 276.499 352.029 219.996 360.984C184.146 366.824 160.766 390.184 139.723 404.59C111.667 423.667 75.8171 457.15 30.2253 427.95" stroke="#FAE26B" stroke-opacity="0.1" stroke-width="2.0041" stroke-miterlimit="10"/>
<path d="M1175.86 365.655C1163.39 380.839 1136.51 389.405 1106.11 385.122C1075.33 380.839 1044.15 362.93 1017.66 339.18C986.093 310.369 966.609 273.382 940.891 241.846C907.379 200.966 862.177 183.056 813.468 196.294C804.505 198.63 795.543 202.523 786.97 207.584C760.472 222.769 737.482 246.907 714.491 270.268C707.087 277.665 699.683 285.062 691.89 291.681C667.73 313.095 641.622 329.836 617.462 338.012C613.955 339.18 610.448 340.348 606.941 341.127C584.73 346.578 565.246 345.799 543.814 343.463C513.809 340.348 475.622 335.676 431.588 331.783C415.612 330.226 400.025 329.447 384.438 329.447C375.865 329.447 368.072 329.058 360.278 329.058C318.194 329.058 278.447 326.332 222.724 336.066C186.484 342.295 163.104 366.434 142.451 381.618C114.395 401.864 78.5449 437.293 31.7842 408.482" stroke="#FAE26B" stroke-opacity="0.1" stroke-width="2.041" stroke-miterlimit="10"/>
<path d="M1179.76 339.57C1167.29 355.922 1140.01 365.266 1108.84 361.373C1077.67 357.869 1045.71 339.959 1018.83 315.82C986.872 287.009 967.388 249.633 941.28 217.318C908.548 176.437 863.735 157.749 815.026 170.208C806.064 172.544 797.101 176.048 788.529 181.11C762.031 195.904 739.04 220.043 716.049 243.014C708.646 250.411 701.242 257.42 693.838 264.428C670.068 285.841 644.35 302.972 620.19 311.537C616.683 312.705 613.176 313.873 610.058 315.041C587.847 321.271 568.753 321.271 547.321 319.713C517.706 317.377 479.518 313.873 435.485 309.591C419.898 308.033 403.921 307.255 388.724 306.865C380.151 306.865 372.358 306.476 364.564 306.087C322.48 304.919 282.733 301.025 227.4 311.148C191.16 317.767 167.78 342.684 147.127 358.647C119.46 380.061 83.2207 417.437 35.6807 388.626" stroke="#FAE26B" stroke-opacity="0.1" stroke-width="2.0779" stroke-miterlimit="10"/>
<path d="M1185.22 314.263C1172.36 331.783 1144.69 341.516 1113.13 338.402C1081.17 335.287 1048.83 317.378 1021.94 293.239C989.6 264.038 969.727 226.273 944.008 193.568C911.276 152.688 867.243 133.221 818.534 144.901C809.571 147.237 800.609 150.741 792.036 155.413C765.538 169.819 742.158 193.568 719.557 216.539C712.153 223.937 704.749 230.945 697.345 237.953C673.575 259.366 648.247 276.497 624.866 286.231C621.359 287.399 618.242 288.956 614.735 289.735C592.913 296.353 573.819 297.521 552.387 296.743C522.772 295.575 484.584 292.46 440.941 288.567C425.354 287.009 409.767 285.841 394.18 285.452C385.607 285.063 377.814 284.673 370.41 284.284C328.715 282.337 288.968 277.276 234.024 287.399C197.395 294.017 174.405 320.103 153.752 336.844C126.085 359.426 89.8455 398.749 41.5261 370.327" stroke="#FAE26B" stroke-opacity="0.1" stroke-width="2.1148" stroke-miterlimit="10"/>
<path d="M1191.84 289.735C1178.98 308.423 1150.53 318.935 1118.58 316.599C1086.24 313.874 1053.12 295.964 1025.84 271.436C992.717 242.236 973.234 204.081 947.126 170.598C915.172 129.717 871.919 109.861 823.21 120.763C814.247 122.709 805.285 126.213 796.712 130.885C770.214 144.901 746.834 168.262 723.843 191.232C716.439 198.63 709.425 205.638 701.632 212.646C678.251 234.06 653.312 251.58 630.322 261.703C626.815 263.26 623.697 264.428 620.58 265.596C599.148 272.993 580.054 274.94 558.622 274.94C529.007 274.94 491.208 272.604 447.565 268.321C431.978 266.764 416.391 265.596 401.194 264.817C393.011 264.428 384.828 263.649 377.424 263.26C336.119 260.534 295.982 254.305 241.818 264.817C205.189 271.825 181.808 298.69 161.545 316.21C134.268 339.959 97.6388 381.229 48.54 353.197" stroke="#FAE26B" stroke-opacity="0.1" stroke-width="2.1516" stroke-miterlimit="10"/>
<path d="M1200.02 265.596C1186.77 285.063 1157.94 296.743 1125.21 294.796C1092.08 292.46 1058.96 274.94 1030.91 250.023C997.393 220.433 977.91 181.889 951.802 148.016C920.238 107.136 877.374 86.501 828.665 97.0131C819.702 98.9598 810.74 102.074 802.167 106.747C775.669 120.373 752.289 143.344 729.298 165.926C721.895 173.323 714.88 180.331 707.477 187.339C684.486 208.753 659.937 226.662 636.946 237.564C633.829 239.121 630.321 240.289 627.204 241.846C606.162 250.023 587.068 252.748 565.636 253.527C536.021 254.305 498.222 253.137 454.969 248.855C439.382 247.297 423.795 245.74 408.987 244.961C400.804 244.572 393.011 243.404 385.217 243.014C344.302 239.121 304.165 231.724 250.001 242.625C212.982 250.023 189.991 277.665 169.728 296.354C142.451 321.271 106.211 364.488 55.554 336.455" stroke="#FAE26B" stroke-opacity="0.1" stroke-width="2.1885" stroke-miterlimit="10"/>
<path d="M1208.6 242.235C1195.35 262.87 1166.12 275.329 1132.61 273.772C1099.1 271.825 1065.2 254.305 1036.75 229.387C1002.85 199.798 983.365 160.475 956.867 126.213C926.083 85.3325 883.609 63.9189 834.9 73.6524C825.937 75.5991 816.975 78.7138 808.402 82.9965C781.904 96.234 758.134 118.815 735.533 141.397C728.519 148.405 721.115 155.803 713.712 162.811C690.721 184.224 666.951 202.523 644.35 213.814C641.232 215.371 637.725 216.928 634.608 218.096C613.566 226.662 594.861 230.555 573.429 232.113C543.814 234.059 506.406 233.281 463.152 228.998C447.565 227.441 432.368 225.883 417.171 224.715C408.987 223.936 401.194 223.158 393.79 222.379C352.875 217.707 312.738 209.142 259.353 220.043C221.944 227.83 198.954 256.251 179.08 275.718C152.193 301.804 115.564 346.967 64.127 319.324" stroke="#FAE26B" stroke-opacity="0.1" stroke-width="2.2254" stroke-miterlimit="10"/>
<path d="M1217.95 219.265C1204.31 241.068 1174.69 254.305 1140.79 253.137C1106.5 251.969 1072.21 234.06 1043.76 209.142C1009.47 179.163 989.6 139.84 963.492 104.8C933.097 64.3089 891.402 42.1167 842.693 51.0714C833.731 52.6288 824.768 55.7435 816.196 60.0262C789.698 72.8743 765.928 95.4558 743.327 117.648C736.313 124.656 728.909 132.054 721.895 139.062C699.294 160.864 675.913 179.163 653.702 191.233C650.585 192.79 647.467 194.347 644.35 195.905C623.697 205.249 604.993 209.921 583.561 212.257C553.946 215.372 516.927 215.372 473.673 211.089C458.086 209.532 442.889 207.585 428.081 206.417C419.898 205.638 412.105 204.47 404.701 203.302C364.175 197.851 324.039 187.729 271.043 199.409C233.635 207.585 210.644 236.785 190.771 257.031C163.883 284.284 127.254 331.394 75.0378 304.14" stroke="#FAE26B" stroke-opacity="0.1" stroke-width="2.2623" stroke-miterlimit="10"/>
<path d="M1227.69 196.683C1214.05 219.264 1183.66 233.67 1149.37 232.891C1114.68 232.113 1079.61 214.592 1050.78 189.285C1016.1 159.307 996.224 119.205 970.116 83.7752C940.111 43.2841 899.196 20.3132 850.487 28.4893C841.524 30.0466 832.562 32.772 823.989 37.0547C797.491 49.5135 773.331 71.7057 751.12 93.8979C744.106 100.906 737.092 108.303 729.688 114.922C707.477 136.725 684.096 155.413 662.275 167.872C659.157 169.819 656.04 171.376 652.923 172.933C632.66 183.056 613.566 188.507 592.523 191.622C563.298 195.904 525.889 196.294 483.025 192.011C467.828 190.454 452.241 188.507 437.823 186.949C429.64 186.171 421.847 184.613 414.443 183.445C374.306 176.827 334.17 165.925 281.175 177.605C243.376 186.171 220.775 216.15 200.902 237.174C174.404 265.206 137.385 314.652 84.3899 287.398" stroke="#FAE26B" stroke-opacity="0.1" stroke-width="2.2992" stroke-miterlimit="10"/>
<path d="M1237.43 174.88C1223.4 198.63 1192.62 213.814 1157.55 213.425C1122.09 213.035 1086.63 195.515 1057.4 170.208C1022.33 139.84 1002.46 99.7383 975.961 63.53C946.346 23.0389 906.21 -0.710649 857.501 7.07609C848.538 8.63344 839.576 11.3588 831.003 15.2522C804.116 27.3216 780.346 49.1245 758.134 71.3167C751.12 78.3248 744.106 85.3328 737.092 92.3409C714.881 114.144 692.28 133.221 670.848 146.459C667.73 148.405 664.613 149.963 661.495 151.909C641.232 162.422 622.528 169.04 601.486 172.544C572.26 177.606 535.241 179.163 492.377 174.88C477.18 173.323 461.983 171.376 447.175 169.43C438.992 168.262 431.199 167.094 424.185 165.536C384.438 158.139 343.912 145.68 291.696 157.75C253.898 166.315 230.907 197.462 211.423 219.654C184.926 248.854 147.907 300.247 93.7422 273.383" stroke="#FAE26B" stroke-opacity="0.1" stroke-width="2.3361" stroke-miterlimit="10"/>
<path d="M1247.17 152.688C1233.15 177.606 1201.58 193.569 1166.12 193.958C1130.27 193.958 1094.03 176.827 1064.42 151.131C1028.96 120.763 1008.69 79.8821 982.586 43.2845C953.36 2.79342 914.003 -21.3455 865.294 -14.3374C856.332 -13.1694 847.369 -10.4441 838.796 -6.55069C811.909 5.12942 788.139 26.543 765.928 48.7352C758.914 55.7432 751.899 62.7513 744.885 69.7593C723.064 91.5622 700.852 111.029 679.81 124.656C676.693 126.603 673.575 128.549 670.847 130.107C650.974 141.397 632.27 148.795 611.228 153.077C582.002 159.307 544.983 161.643 502.509 156.971C487.312 155.414 472.114 153.077 457.696 151.131C449.513 149.963 442.11 148.405 434.706 146.848C394.959 138.672 354.823 125.045 302.996 137.115C264.808 146.069 242.207 177.995 222.334 200.966C196.226 231.334 158.817 284.673 103.874 258.198" stroke="#FAE26B" stroke-opacity="0.1" stroke-width="2.373" stroke-miterlimit="10"/>
<path d="M1256.92 130.886C1242.5 156.582 1210.93 173.713 1174.69 174.491C1138.07 175.27 1101.44 157.75 1071.43 132.054C1035.58 101.296 1015.32 60.0262 988.821 23.0392C959.985 -17.4518 921.407 -42.3694 872.698 -36.14C863.736 -34.972 854.773 -32.2466 846.2 -28.7426C819.313 -17.4518 795.153 3.5724 773.332 25.7646C766.317 32.7727 759.303 39.7807 752.679 46.7888C731.247 68.5917 709.425 88.4479 688.773 102.853C685.655 104.8 682.927 106.747 679.81 108.693C660.326 120.763 641.622 128.939 620.58 134C591.354 141.398 554.725 144.123 512.251 139.84C497.054 138.283 482.246 135.947 467.828 133.611C459.645 132.443 452.241 130.496 444.837 128.939C405.48 119.984 364.954 104.8 313.518 117.648C275.33 126.992 252.339 159.697 232.855 183.446C206.747 214.982 169.339 270.268 113.615 243.793" stroke="#FAE26B" stroke-opacity="0.1" stroke-width="2.4098" stroke-miterlimit="10"/>
<path d="M1266.27 109.472C1251.85 136.336 1219.51 154.245 1182.88 155.413C1145.86 156.581 1108.84 139.061 1078.45 113.365C1042.21 82.6074 1021.94 40.9483 995.445 3.18264C967.389 -37.3084 929.201 -63.0046 880.492 -57.1646C871.529 -55.9966 862.567 -53.6605 853.994 -50.1565C827.106 -39.2551 802.947 -18.2309 781.125 3.57197C774.111 10.58 767.486 17.5881 760.472 24.5962C739.04 46.399 717.998 66.6446 697.345 81.4394C694.228 83.386 691.5 85.7221 688.383 87.6688C669.289 100.128 650.585 109.472 629.542 115.312C600.317 123.488 564.077 127.381 521.603 122.709C506.406 121.152 491.598 118.426 477.18 116.09C469.387 114.533 461.593 112.586 454.579 111.029C415.612 100.906 375.086 84.9434 324.039 97.7915C285.461 107.525 262.86 141.008 243.376 165.536C217.658 198.24 179.86 255.473 122.968 229.387" stroke="#FAE26B" stroke-opacity="0.1" stroke-width="2.4467" stroke-miterlimit="10"/>
<path d="M1274.84 87.669C1260.42 115.701 1227.3 134.389 1190.28 135.947C1152.87 137.504 1115.07 120.373 1084.29 94.2877C1047.66 63.1408 1027.01 21.0924 1000.9 -17.0626C973.234 -57.5536 935.825 -83.6392 887.116 -78.9672C878.153 -78.1885 869.191 -75.8525 860.618 -72.3485C833.731 -61.8364 809.181 -41.2015 787.36 -19.3986C780.346 -12.3906 773.721 -5.38252 766.707 1.62554C745.665 23.4284 724.622 44.0633 704.749 59.6367C702.021 61.9728 698.904 63.9195 696.176 65.8661C677.082 79.1036 658.768 89.2263 637.725 95.8451C608.5 105.189 572.26 109.861 530.176 105.189C514.978 103.632 500.171 100.906 486.143 98.1811C478.349 96.6238 470.556 94.6771 463.542 92.3411C424.574 81.4396 384.048 64.3088 333.78 77.1569C294.813 87.2797 272.602 121.541 253.118 146.848C227.4 180.721 189.602 239.9 131.93 214.204" stroke="#FAE26B" stroke-opacity="0.1" stroke-width="2.4836" stroke-miterlimit="10"/>
<path d="M1282.24 65.8663C1267.44 95.0666 1233.92 114.533 1196.13 116.48C1157.94 118.427 1119.75 101.296 1088.58 75.2105C1051.56 43.6742 1030.91 1.62574 1004.41 -37.308C977.13 -77.4097 940.111 -104.663 891.402 -100.381C882.44 -99.6018 873.477 -97.2658 864.904 -94.1511C838.017 -84.0284 813.468 -63.7828 791.646 -41.98C784.632 -34.9719 778.007 -27.9638 771.383 -20.9558C750.341 0.847085 730.078 21.4819 710.594 37.8341C707.866 40.1701 704.749 42.5061 702.021 44.4528C683.317 58.4689 665.002 68.981 643.96 76.7678C615.124 87.2799 578.885 92.3413 536.8 87.6692C521.992 86.1119 507.185 83.3865 493.156 80.2718C485.363 78.7144 477.959 76.3785 470.555 74.0424C431.978 62.3623 391.452 43.6741 341.184 57.3009C302.217 67.813 279.616 102.853 260.522 129.328C235.193 164.369 197.005 225.495 138.554 199.798" stroke="#FAE26B" stroke-opacity="0.1" stroke-width="2.5205" stroke-miterlimit="10"/>
<path d="M1288.87 43.6742C1274.06 73.6531 1240.16 94.288 1201.58 97.0133C1163 99.7387 1124.04 82.2185 1092.47 56.133C1054.68 24.5967 1034.41 -18.2304 1007.91 -57.5534C981.027 -97.6551 944.788 -125.687 896.078 -122.183C887.116 -121.405 878.154 -119.458 869.581 -116.343C842.693 -106.61 818.144 -86.7537 796.322 -64.9508C789.308 -57.9428 782.684 -50.9347 776.059 -43.9266C755.407 -22.1238 735.533 -1.09955 716.05 16.0313C713.322 18.3673 710.594 20.7033 707.477 23.0393C689.162 37.8341 670.848 49.1249 649.805 57.6903C620.969 68.9811 585.12 75.2105 543.035 70.1491C528.227 68.5918 513.42 65.4771 499.392 62.3624C491.598 60.4157 484.194 58.0796 476.791 55.7436C438.603 42.8955 397.687 23.4287 348.199 37.0555C308.842 47.9569 286.63 83.7759 267.536 111.029C242.208 147.238 204.02 210.31 144.789 185.003" stroke="#FAE26B" stroke-opacity="0.1" stroke-width="2.5574" stroke-miterlimit="10"/>
<path d="M1293.93 21.4815C1278.74 52.6285 1244.45 74.042 1205.48 77.1567C1166.12 80.2714 1126.76 63.1405 1095.2 36.6656C1057.01 4.73999 1036.36 -38.0871 1009.86 -78.1888C983.365 -118.29 947.905 -146.712 899.196 -143.987C890.233 -143.597 881.271 -141.651 872.698 -138.536C845.811 -129.192 820.872 -109.725 799.44 -88.3115C792.425 -81.3035 786.191 -74.2954 779.566 -67.2873C759.303 -45.4845 739.82 -24.0709 720.726 -6.55078C717.998 -4.21475 715.27 -1.48939 712.542 0.846633C694.618 16.0308 676.303 28.4896 655.261 37.8336C626.425 50.2924 590.575 57.3005 548.88 52.2391C534.072 50.6818 519.265 47.5671 505.626 44.063C497.833 42.1164 490.429 39.7803 483.415 37.055C445.617 23.4282 404.701 2.40398 355.213 16.4201C315.856 27.7109 293.255 64.3086 274.55 92.3408C249.221 129.717 211.034 194.736 150.634 169.819" stroke="#FAE26B" stroke-opacity="0.1" stroke-width="2.5943" stroke-miterlimit="10"/>
<path d="M1297.44 -1.10033C1282.24 31.2146 1247.17 53.4068 1207.82 56.9109C1168.07 60.4149 1127.93 43.2841 1095.98 16.8092C1057.4 -15.1165 1036.75 -58.7222 1010.25 -99.2132C984.145 -139.315 949.464 -168.515 900.755 -166.569C891.792 -166.179 882.83 -164.232 874.257 -161.507C846.98 -152.552 822.431 -133.086 800.999 -112.061C794.374 -105.443 787.75 -98.4346 781.125 -91.4265C760.862 -69.6236 742.158 -47.8208 723.454 -29.9113C720.726 -27.1859 717.998 -24.8499 715.271 -22.5139C697.346 -6.55105 679.421 6.6864 658.378 16.4198C629.543 30.0466 594.082 37.444 552.387 32.3826C537.58 30.4359 523.162 27.3213 509.134 23.8172C501.34 21.4812 493.936 19.1452 486.922 16.4198C449.124 2.01436 408.208 -20.1778 359.499 -5.77237C319.753 5.90774 297.541 43.2841 278.837 72.095C253.898 110.639 215.32 177.605 154.142 152.688" stroke="#FAE26B" stroke-opacity="0.1" stroke-width="2.6311" stroke-miterlimit="10"/>
<path d="M1299 -24.4605C1283.41 8.63315 1247.95 31.9934 1208.21 35.8867C1167.68 40.1694 1127.15 22.6493 1094.81 -4.21499C1055.84 -36.53 1034.8 -80.1357 1008.69 -121.405C982.975 -161.507 949.074 -191.097 900.365 -189.929C891.402 -189.539 882.44 -187.982 873.867 -185.257C846.59 -176.691 821.651 -157.614 800.609 -136.59C793.984 -129.971 787.36 -122.963 781.125 -115.955C761.252 -94.1518 742.547 -71.9596 724.233 -53.2715C721.505 -50.5461 718.777 -47.8207 716.439 -45.4847C698.904 -28.7432 680.979 -14.7271 659.937 -4.21499C631.101 10.5798 595.641 18.7559 554.335 13.6945C539.528 11.7479 525.11 8.63315 511.471 4.73978C503.678 2.40375 496.274 -0.321606 489.26 -3.04697C451.852 -18.2311 410.936 -41.5913 362.616 -27.1859C322.87 -15.1164 300.658 23.0386 281.954 53.0176C256.625 92.73 217.658 162.032 155.7 137.114" stroke="#FAE26B" stroke-opacity="0.1" stroke-width="2.668" stroke-miterlimit="10"/>
<path d="M1298.61 -47.8203C1283.02 -13.5587 1246.78 10.5802 1206.26 14.8629C1165.34 19.535 1124.04 2.40417 1091.3 -24.8494C1052.34 -56.775 1030.91 -101.159 1004.8 -143.208C979.469 -183.31 946.346 -213.678 897.637 -212.899C888.675 -212.899 879.712 -211.342 871.14 -208.616C843.862 -200.44 818.923 -181.752 797.881 -160.728C791.257 -154.109 784.632 -147.101 778.397 -140.093C758.914 -117.901 740.599 -95.7088 722.674 -76.6312C719.946 -73.9059 717.608 -71.1805 714.881 -68.4552C697.735 -51.3243 679.42 -36.1402 658.768 -24.8494C629.932 -9.27594 594.861 0.0681457 553.556 -5.38257C538.749 -7.32926 524.72 -10.444 511.082 -14.7267C503.288 -17.0627 496.274 -20.1774 489.26 -22.9027C452.241 -39.2549 411.326 -63.7831 363.006 -48.9883C322.87 -36.5295 300.659 2.40417 281.954 33.1618C257.015 74.0422 218.048 144.901 155.311 120.763" stroke="#FAE26B" stroke-opacity="0.1" stroke-width="2.7049" stroke-miterlimit="10"/>
<path d="M1295.88 -71.9591C1279.91 -36.5294 1243.67 -11.6119 1202.36 -6.55051C1160.67 -1.48913 1119.36 -18.62 1086.24 -45.8735C1046.49 -78.5779 1025.06 -122.962 998.952 -165.4C974.013 -205.502 941.67 -236.649 892.961 -236.649C883.999 -236.649 875.036 -235.091 866.464 -232.755C839.187 -224.969 814.247 -206.67 793.205 -185.646C786.581 -179.027 780.346 -172.019 774.111 -165.011C754.628 -142.818 737.092 -120.237 719.557 -100.381C717.219 -97.6554 714.491 -94.93 711.764 -92.2047C694.618 -74.2952 676.693 -58.3323 656.04 -46.2629C627.205 -29.5214 592.524 -19.788 551.218 -24.8493C536.8 -26.796 522.383 -30.3001 508.744 -34.9721C501.34 -37.6975 493.936 -40.4228 486.922 -43.9269C449.903 -61.0577 408.988 -86.7539 361.448 -71.5698C321.311 -58.7217 299.1 -19.0093 280.396 12.527C255.846 54.1861 216.879 127.381 152.973 103.243" stroke="#FAE26B" stroke-opacity="0.1" stroke-width="2.7418" stroke-miterlimit="10"/>
<path d="M1290.82 -96.8765C1274.84 -60.2789 1237.82 -34.5826 1196.13 -29.1319C1154.04 -23.6812 1111.96 -40.812 1078.45 -68.0656C1038.31 -100.77 1016.88 -145.933 990.379 -188.76C965.83 -228.862 934.267 -260.787 885.557 -261.177C876.595 -261.177 867.632 -260.009 859.06 -257.673C831.783 -250.275 806.454 -232.366 785.801 -211.342C779.177 -204.723 772.942 -197.715 766.707 -190.707C747.613 -168.515 730.468 -145.544 712.932 -125.298C710.594 -122.573 707.867 -119.458 705.529 -116.733C688.773 -98.0445 670.848 -81.3031 650.195 -68.455C621.749 -50.5454 586.678 -40.0333 545.763 -45.4841C531.345 -47.4307 516.927 -50.9348 503.678 -55.9961C496.274 -58.7215 488.871 -61.8362 481.856 -65.3402C445.227 -83.2497 404.311 -110.114 357.161 -94.9298C316.635 -81.6924 294.424 -41.2013 276.109 -8.88636C251.949 33.9407 212.592 109.083 147.907 85.3332" stroke="#FAE26B" stroke-opacity="0.1" stroke-width="2.7787" stroke-miterlimit="10"/>
<path d="M1283.02 -122.573C1267.05 -85.1967 1229.25 -58.3324 1187.16 -52.4924C1144.3 -46.6523 1101.83 -63.3938 1067.92 -91.0367C1027.4 -124.13 1005.58 -169.293 979.468 -212.899C955.309 -252.612 924.135 -285.316 875.426 -286.873C866.463 -287.263 857.501 -286.095 848.928 -283.759C821.651 -276.75 796.322 -258.841 775.28 -238.206C768.656 -231.587 762.421 -224.579 756.186 -217.571C737.092 -195.379 720.726 -172.019 703.58 -150.995C701.242 -147.88 698.514 -145.155 696.176 -142.04C679.81 -122.962 661.885 -105.053 641.233 -91.4261C612.786 -72.7379 578.106 -61.0578 537.19 -66.5085C522.772 -68.4552 508.744 -72.3486 495.495 -77.4099C488.091 -80.1353 480.687 -83.6393 474.063 -87.1434C437.823 -105.832 396.518 -134.253 349.757 -118.68C309.231 -105.053 287.02 -63.7832 268.705 -30.6895C244.935 13.3056 205.578 90.3943 140.113 67.0341" stroke="#FAE26B" stroke-opacity="0.1" stroke-width="2.8156" stroke-miterlimit="10"/>
<path d="M1272.5 -149.437C1256.14 -110.893 1217.95 -83.2498 1175.08 -77.0204C1131.83 -70.4017 1088.58 -87.5325 1054.29 -115.175C1013.37 -148.269 991.548 -194.211 965.44 -238.206C941.67 -277.918 911.276 -311.401 862.566 -313.348C853.604 -313.737 844.641 -312.569 836.069 -310.623C808.792 -304.004 783.073 -286.484 762.42 -265.849C755.796 -259.23 749.561 -252.222 743.716 -245.214C725.012 -223.022 708.646 -199.272 692.279 -177.859C689.941 -174.744 687.603 -171.629 684.876 -168.515C668.899 -148.658 650.974 -129.97 630.321 -115.565C601.875 -95.7086 567.194 -83.6392 526.668 -89.0899C512.251 -91.0366 498.222 -94.9299 484.973 -100.381C477.57 -103.495 470.556 -106.61 463.541 -110.503C427.302 -130.36 386.386 -159.56 340.015 -143.597C299.489 -129.97 277.667 -87.5325 259.353 -53.6602C235.193 -8.49712 195.836 70.5383 129.592 47.1781" stroke="#FAE26B" stroke-opacity="0.1" stroke-width="2.8525" stroke-miterlimit="10"/>
<path d="M1258.86 -176.691C1242.5 -136.978 1203.92 -108.557 1160.28 -101.938C1116.24 -94.93 1072.6 -112.061 1037.92 -139.704C996.614 -173.187 974.403 -219.129 948.295 -263.902C924.914 -303.615 895.299 -337.876 846.59 -340.602C837.628 -340.991 828.665 -340.212 820.092 -338.266C792.815 -332.036 767.097 -314.905 746.444 -294.271C739.82 -287.652 733.585 -281.033 727.74 -273.636C709.425 -251.443 693.449 -227.305 677.082 -205.112C674.744 -201.998 672.406 -198.883 670.068 -195.768C654.092 -175.133 636.557 -155.667 615.904 -140.482C587.458 -119.458 553.167 -106.61 512.641 -112.061C498.223 -114.008 484.584 -118.29 471.335 -123.741C463.931 -126.856 456.917 -130.36 449.903 -134.253C414.053 -154.888 373.138 -185.256 327.156 -169.293C286.63 -155.277 264.419 -112.45 246.494 -77.4099C222.724 -31.0788 182.977 49.9033 115.564 26.9324" stroke="#FAE26B" stroke-opacity="0.1" stroke-width="2.8893" stroke-miterlimit="10"/>
<path d="M1241.72 -205.502C1224.96 -165.01 1185.99 -135.421 1141.96 -128.023C1097.54 -120.626 1053.12 -137.368 1018.44 -165.4C976.741 -198.883 954.529 -245.603 928.421 -290.766C905.431 -330.479 876.595 -365.13 827.886 -368.634C818.923 -369.412 809.961 -368.634 801.388 -366.687C774.111 -360.847 748.392 -344.106 727.74 -323.471C721.115 -316.852 715.27 -310.233 709.425 -302.836C691.11 -280.644 675.913 -256.505 659.937 -233.534C657.599 -230.419 655.261 -226.915 652.923 -223.8C637.336 -202.776 619.8 -182.141 599.537 -166.568C571.091 -144.376 537.19 -131.138 496.664 -136.589C482.246 -138.536 468.607 -142.818 455.748 -148.658C448.344 -151.773 441.33 -155.666 434.706 -159.56C399.246 -180.973 357.94 -212.51 312.349 -196.547C271.043 -181.752 248.832 -138.146 231.297 -102.327C207.527 -54.8281 167.78 28.1007 99.5872 5.12981" stroke="#FAE26B" stroke-opacity="0.1" stroke-width="2.9262" stroke-miterlimit="10"/>
</svg>
