<svg width="1440" height="800" viewBox="0 0 1440 800" fill="none" xmlns="http://www.w3.org/2000/svg">
<path d="M-208 1149.22C-202.193 1052.58 -131.267 948.887 -73.1988 875.057C-10.5681 795.836 66.1648 727.813 153.267 676.381C224.608 634.074 302.171 602.967 371.438 557.756C438.216 514.205 494.21 450.33 518.682 374.012C547.301 285.665 514.12 201.052 481.767 118.512C449.83 37.2163 434.483 -45.3235 455.637 -131.181C475.546 -210.818 521.171 -283.818 586.29 -334.005C704.915 -425.255 885.341 -441.846 1037.15 -375.483" stroke="#FFBF00" stroke-opacity="0.5" stroke-width="3" stroke-miterlimit="10"/>
<path opacity="0.9889" d="M1063.28 -377.556C936.773 -432.721 789.114 -427.744 675.881 -367.602C656.801 -357.647 638.551 -345.619 621.545 -332.761C557.256 -282.573 512.045 -209.573 492.136 -130.766C483.841 -98.414 480.937 -66.4765 482.182 -35.3685C483.841 16.0633 496.699 66.6655 515.778 116.438C526.148 144.228 536.932 172.018 545.227 200.637C561.403 255.387 568.455 311.381 549.79 369.45C541.909 393.092 531.125 415.904 518.267 437.058C489.648 483.512 449.415 522.916 404.205 552.779C357.335 583.887 307.148 608.359 257.375 634.49C234.562 646.518 211.75 658.546 189.767 671.819C113.864 717.444 45.8408 775.512 -12.2274 842.705C-20.1081 851.83 -27.574 860.955 -34.6252 870.08C-92.6934 943.495 -163.619 1045.94 -170.256 1140.51" stroke="#FFBF00" stroke-opacity="0.5" stroke-width="2.9579" stroke-miterlimit="10"/>
<path opacity="0.9778" d="M1087.34 -378.386C964.148 -431.891 819.807 -425.67 708.648 -365.113C689.983 -354.744 671.733 -343.13 655.142 -329.857C592.097 -279.67 546.887 -207.084 526.977 -128.692C518.682 -96.7549 515.364 -65.2322 516.193 -34.1242C517.438 16.8928 529.466 66.6655 547.716 116.438C557.671 143.813 568.04 171.603 575.921 199.808C591.267 254.143 597.904 309.722 578.824 366.961C570.943 390.603 560.159 413.001 547.301 434.154C518.682 480.609 479.279 520.012 434.898 549.876C388.858 580.984 339.5 605.87 290.557 632.001C268.159 644.029 245.761 656.473 224.193 669.745C149.534 715.37 81.9262 773.853 24.2728 840.632C16.3921 849.342 8.92619 858.467 1.87505 867.592C-56.1931 940.592 -127.119 1041.38 -134.585 1134.71" stroke="#FFBF00" stroke-opacity="0.5" stroke-width="2.9158" stroke-miterlimit="10"/>
<path opacity="0.9667" d="M1110.56 -377.971C990.694 -429.817 849.256 -421.937 740.171 -361.38C721.506 -351.011 704.086 -339.397 687.495 -326.124C625.279 -275.937 580.898 -203.352 560.159 -125.789C551.864 -93.8515 548.546 -62.7436 548.961 -32.0504C549.79 18.5519 561.404 67.9099 578.824 116.853C588.364 144.228 598.319 171.603 605.784 199.393C620.301 252.899 626.523 308.063 607.444 364.887C599.563 388.115 588.779 410.512 575.921 431.666C547.716 477.705 508.728 517.109 465.591 547.387C420.381 578.91 371.853 603.796 323.739 629.927C301.756 641.955 279.773 654.399 258.205 667.671C184.79 714.126 118.012 772.194 60.3582 838.558C52.8923 847.268 45.4263 856.393 37.9604 865.518C-20.1078 938.103 -90.6191 1037.65 -99.7441 1128.9" stroke="#FFBF00" stroke-opacity="0.5" stroke-width="2.8737" stroke-miterlimit="10"/>
<path opacity="0.9556" d="M1132.55 -376.726C1015.99 -426.914 877.875 -417.789 770.449 -356.817C752.199 -346.448 734.778 -334.834 718.602 -321.562C657.216 -271.374 613.25 -199.204 592.511 -122.056C584.216 -90.5332 580.483 -59.4253 580.898 -28.7321C581.312 21.4554 592.097 69.9838 608.688 118.512C617.813 145.472 627.352 172.433 634.403 199.808C648.091 252.899 653.483 307.234 634.403 364.058C626.523 387.285 615.739 409.683 603.296 430.421C575.091 476.461 536.932 515.45 494.625 545.728C450.244 577.251 402.96 602.552 355.676 629.098C334.108 641.126 312.54 653.569 291.386 667.257C218.801 713.297 152.437 771.365 95.6135 837.314C88.1476 846.024 80.6817 855.149 73.2158 864.274C15.5624 936.03 -55.3638 1034.33 -65.3184 1123.92" stroke="#FFBF00" stroke-opacity="0.5" stroke-width="2.8316" stroke-miterlimit="10"/>
<path opacity="0.9444" d="M1153.28 -374.238C1039.64 -422.766 905.25 -412.397 799.483 -350.596C781.648 -340.227 764.642 -328.198 748.881 -314.925C688.739 -264.738 644.773 -192.982 624.034 -116.249C615.739 -84.7265 611.591 -54.0333 611.591 -23.7549C611.591 26.0178 621.546 74.1315 637.307 121.83C646.017 148.376 654.728 175.336 661.364 202.296C674.222 254.973 679.199 308.893 660.12 364.887C652.239 388.115 641.455 410.098 629.012 430.836C601.222 476.461 563.892 515.865 522 546.143C478.449 577.666 431.995 602.967 385.54 629.927C364.387 642.37 342.818 654.813 322.08 668.086C250.739 714.541 185.205 772.609 128.381 838.143C120.915 846.853 113.449 855.564 105.983 864.689C48.3296 936.029 -22.5965 1033.09 -33.3806 1121.02" stroke="#FFBF00" stroke-opacity="0.5" stroke-width="2.7895" stroke-miterlimit="10"/>
<path opacity="0.9333" d="M1173.19 -370.92C1062.86 -417.789 931.381 -406.175 828.103 -343.96C810.682 -333.59 793.676 -321.562 778.33 -308.289C719.017 -257.687 675.881 -186.346 654.728 -110.442C646.017 -79.3344 642.284 -49.056 641.87 -18.7776C641.455 30.1656 650.58 77.8645 665.512 125.563C673.807 151.694 682.103 178.24 688.324 205.2C700.353 257.046 704.5 310.552 685.421 366.132C677.54 388.944 667.171 410.927 654.313 431.666C626.938 477.291 590.023 516.279 548.96 546.973C506.239 578.495 460.614 604.211 414.989 631.171C394.25 643.615 373.097 656.058 352.773 669.745C282.676 716.2 217.557 774.268 161.148 839.387C153.682 848.098 146.216 856.808 139.165 865.933C81.5115 936.859 10.5853 1032.26 -1.02832 1118.53" stroke="#FFBF00" stroke-opacity="0.5" stroke-width="2.7474" stroke-miterlimit="10"/>
<path opacity="0.9222" d="M1191.86 -366.772C1084.85 -411.982 956.682 -399.124 855.063 -336.494C838.057 -326.124 821.466 -314.096 806.12 -300.823C747.637 -250.221 704.915 -179.295 683.762 -103.806C675.051 -73.1128 670.904 -42.8344 670.489 -12.9707C669.659 35.5577 677.955 82.8419 692.472 129.711C700.353 155.842 708.233 181.973 714.04 208.518C725.239 259.95 728.972 312.626 709.892 368.206C702.012 391.018 691.642 412.586 679.199 433.325C651.824 478.535 615.739 517.939 575.506 548.217C533.614 579.74 488.819 605.87 444.023 632.831C423.284 645.274 402.961 658.132 382.637 671.819C313.37 718.689 249.08 776.757 192.671 841.461C185.205 850.172 177.739 858.882 170.688 867.592C113.034 938.104 42.1082 1032.26 29.665 1116.46" stroke="#FFBF00" stroke-opacity="0.5" stroke-width="2.7053" stroke-miterlimit="10"/>
<path opacity="0.9111" d="M1209.69 -361.795C1106 -405.346 981.154 -390.829 881.194 -328.198C864.188 -317.414 848.012 -305.8 833.08 -292.113C775.841 -241.511 733.12 -170.999 711.966 -95.9253C703.256 -65.2321 699.108 -35.3684 697.864 -5.91955C696.62 42.1941 704.5 88.6486 717.773 135.103C725.239 160.819 732.705 186.535 738.097 213.08C748.881 264.098 751.784 316.359 732.29 371.109C724.409 393.507 714.04 415.49 701.597 435.814C674.637 481.024 638.966 520.012 599.563 550.706C558.5 582.643 514.949 608.359 470.568 635.734C450.245 648.177 430.335 661.035 410.426 674.723C342.404 721.592 278.529 779.66 222.534 843.95C215.068 852.66 207.602 861.371 200.551 870.081C142.898 940.177 71.9717 1033.09 58.699 1115.63" stroke="#FFBF00" stroke-opacity="0.5" stroke-width="2.6632" stroke-miterlimit="10"/>
<path opacity="0.9" d="M1226.28 -355.988C1125.91 -397.88 1003.97 -382.119 906.08 -319.073C889.489 -308.289 873.728 -296.261 858.796 -282.988C802.387 -232.386 760.08 -161.874 738.512 -87.6298C729.801 -57.3514 725.239 -27.4877 723.995 1.54637C721.921 49.2453 729.387 95.2851 741.83 140.91C748.881 166.211 755.932 191.927 760.909 218.058C770.864 268.245 772.938 320.092 753.858 374.427C745.978 396.825 735.608 418.393 723.165 438.717C696.62 483.512 661.779 522.501 623.205 553.609C582.972 585.547 540.25 611.677 497.114 639.052C477.205 651.495 457.296 664.353 437.801 678.456C370.608 725.74 307.978 783.393 251.983 847.268C244.517 855.979 237.051 864.274 230 872.984C172.347 942.251 101.835 1033.92 86.9036 1114.8" stroke="#FFBF00" stroke-opacity="0.5" stroke-width="2.6211" stroke-miterlimit="10"/>
<path opacity="0.8889" d="M1242.46 -349.352C1145.4 -389.585 1026.78 -372.579 930.966 -308.704C914.79 -297.92 899.029 -285.891 884.512 -272.619C828.932 -222.016 787.455 -151.92 765.472 -78.505C756.762 -48.2266 751.785 -18.7777 750.54 9.8416C748.052 57.1257 754.688 102.751 766.716 147.961C773.353 173.262 779.574 198.563 784.552 223.864C793.677 273.637 795.336 325.069 775.841 378.575C767.961 400.972 757.591 422.126 745.563 442.45C719.017 487.245 685.006 526.234 647.262 556.927C607.858 588.864 565.966 615.41 523.659 642.785C504.165 655.643 484.671 668.501 465.591 682.188C399.642 729.472 337.426 787.541 281.847 851.001C274.381 859.296 267.33 868.007 259.864 876.717C202.625 945.569 131.699 1035.99 115.938 1114.8" stroke="#FFBF00" stroke-opacity="0.5" stroke-width="2.579" stroke-miterlimit="10"/>
<path opacity="0.8778" d="M1256.98 -341.886C1163.24 -380.46 1047.93 -362.21 953.779 -297.92C938.018 -287.136 922.671 -275.107 908.154 -261.42C853.404 -210.817 812.341 -141.136 790.358 -68.1356C781.233 -38.2719 776.671 -9.23784 774.597 19.3815C771.694 66.2508 777.501 111.046 788.699 155.842C794.921 180.728 800.728 205.614 804.875 230.916C813.171 279.859 814 330.876 794.506 384.382C786.211 406.365 776.256 427.518 764.228 447.842C738.097 492.223 704.501 531.211 667.586 562.319C629.012 594.257 587.949 621.217 546.472 649.007C527.392 661.865 508.313 674.723 489.233 688.825C424.529 736.524 362.728 794.177 307.563 857.223C300.097 865.518 293.046 874.228 285.995 882.524C228.756 950.961 157.83 1039.72 141.239 1117.29" stroke="#FFBF00" stroke-opacity="0.5" stroke-width="2.5369" stroke-miterlimit="10"/>
<path opacity="0.8667" d="M1271.08 -333.59C1180.66 -370.505 1068.26 -351.011 976.176 -286.306C960.83 -275.522 945.483 -263.494 931.381 -249.806C877.875 -199.204 836.813 -129.937 814.83 -57.3515C805.705 -27.9027 800.727 1.13144 798.654 29.336C795.335 75.7905 800.727 120.171 810.682 164.137C816.074 188.609 821.881 213.495 825.614 238.381C833.08 286.91 833.494 337.097 814 390.188C805.705 412.171 795.75 433.325 783.722 453.234C758.006 497.614 724.824 536.603 688.739 567.711C650.994 600.063 611.176 626.609 570.114 654.813C551.449 667.671 532.784 680.944 514.119 694.631C450.244 742.33 389.273 800.399 334.523 862.614C327.057 870.91 320.006 879.205 312.955 887.916C255.716 955.938 184.79 1043.46 167.369 1118.94" stroke="#FFBF00" stroke-opacity="0.5" stroke-width="2.4948" stroke-miterlimit="10"/>
<path opacity="0.8556" d="M1284.35 -324.88C1196.84 -360.136 1088.17 -339.397 997.745 -274.278C982.398 -263.494 967.881 -251.05 953.779 -237.778C901.103 -186.761 860.87 -117.908 838.472 -46.1527C829.347 -16.7038 823.955 11.9156 821.881 39.7053C818.148 85.3304 822.711 129.296 832.251 172.847C837.643 196.904 842.62 221.376 845.938 246.262C852.574 294.376 852.574 344.149 832.665 396.41C824.37 417.978 814.415 439.132 802.802 459.041C777.086 503.007 745.148 541.995 709.478 573.103C672.563 605.455 633.574 632.416 593.756 660.62C575.506 673.478 556.841 686.751 538.591 700.853C475.961 748.967 415.818 806.62 361.068 868.836C353.603 877.132 346.551 885.427 339.5 893.723C282.262 961.331 211.335 1047.6 193.085 1121.43" stroke="#FFBF00" stroke-opacity="0.5" stroke-width="2.4527" stroke-miterlimit="10"/>
<path opacity="0.8444" d="M1296.8 -314.925C1212.6 -348.522 1107.24 -326.539 1018.9 -260.59C1003.97 -249.391 989.449 -237.363 975.762 -224.09C923.915 -173.073 884.097 -104.636 861.285 -33.2947C852.16 -4.26057 846.768 24.3588 844.279 51.7338C840.131 96.944 843.864 140.495 852.574 183.632C857.137 207.688 862.114 231.745 865.018 256.217C870.824 303.501 869.995 352.859 850.501 404.705C842.205 426.274 832.251 447.012 820.637 466.921C795.336 510.887 763.813 549.876 728.972 580.984C692.887 613.336 654.728 640.711 615.739 668.916C597.904 681.774 579.654 695.046 561.819 709.149C500.018 757.262 440.705 814.916 386.37 876.717C378.904 885.012 371.853 893.308 364.802 901.603C307.563 968.382 236.637 1053.41 217.557 1125.58" stroke="#FFBF00" stroke-opacity="0.5" stroke-width="2.4106" stroke-miterlimit="10"/>
<path opacity="0.8333" d="M1308.41 -304.556C1227.53 -336.493 1125.08 -313.266 1038.81 -246.903C1024.29 -235.704 1010.19 -223.675 996.5 -209.988C945.898 -158.971 906.08 -90.948 883.267 -20.0218C874.142 9.01228 868.335 36.8021 865.432 64.1771C860.87 108.973 863.773 151.694 871.654 194.416C875.801 218.058 880.364 241.7 882.853 266.171C887.83 313.041 886.586 361.569 866.676 413.416C858.381 434.984 848.426 455.308 836.813 475.217C811.512 518.768 780.818 557.757 746.807 589.279C711.551 621.632 674.222 649.007 636.063 677.626C618.642 690.899 600.807 704.172 582.972 718.274C522.415 766.802 463.517 824.456 409.182 885.427C402.131 893.723 394.665 902.018 387.614 909.899C330.79 976.263 259.864 1060.05 239.54 1130.14" stroke="#FFBF00" stroke-opacity="0.5" stroke-width="2.3685" stroke-miterlimit="10"/>
<path opacity="0.8222" d="M1319.19 -293.772C1241.63 -324.05 1142.5 -299.164 1057.89 -232.8C1043.78 -221.602 1029.68 -209.158 1016.82 -195.886C967.051 -144.869 927.648 -76.8458 904.835 -6.7492C895.71 21.8701 889.489 49.6599 886.585 76.6202C881.608 121.001 884.097 163.308 890.733 205.2C894.466 228.427 898.199 252.069 900.688 276.126C904.835 322.166 902.762 370.694 883.267 421.711C874.972 442.865 865.017 463.603 853.404 483.098C828.517 526.649 798.239 565.223 765.472 596.745C731.046 629.512 694.96 656.887 657.216 685.507C640.21 698.779 622.79 712.052 605.37 726.154C546.057 774.683 487.574 832.336 433.654 893.308C426.602 901.603 419.137 909.484 412.5 917.78C355.676 983.728 284.75 1065.85 263.182 1134.71" stroke="#FFBF00" stroke-opacity="0.5" stroke-width="2.3264" stroke-miterlimit="10"/>
<path opacity="0.8111" d="M1329.56 -282.158C1255.32 -310.778 1159.51 -284.647 1076.55 -217.869C1062.45 -206.67 1049.18 -194.226 1036.32 -180.954C987.375 -129.937 948.802 -62.3287 925.574 7.35312C916.035 35.5577 910.228 63.3475 906.91 90.3077C901.517 134.274 903.177 175.751 909.398 217.228C912.716 240.455 916.035 263.268 917.694 286.91C921.427 332.535 918.523 380.234 898.614 430.836C890.319 451.99 880.364 472.313 869.165 491.808C844.694 535.359 815.245 573.933 782.892 605.456C749.296 638.223 714.04 666.012 677.54 694.632C660.949 707.904 643.529 721.592 626.523 735.694C568.04 784.637 510.802 841.876 456.881 902.433C449.83 910.314 442.779 918.609 435.728 926.905C378.904 992.439 307.978 1073.32 285.58 1140.1" stroke="#FFBF00" stroke-opacity="0.5" stroke-width="2.2843" stroke-miterlimit="10"/>
<path opacity="0.8" d="M1339.1 -270.13C1268.18 -297.09 1175.27 -269.715 1094.8 -202.107C1081.11 -190.908 1067.84 -178.465 1055.4 -164.778C1007.7 -113.76 969.125 -46.5672 945.898 22.6998C936.358 50.9044 930.137 78.2794 926.404 104.825C920.182 148.376 921.427 189.438 926.819 230.501C929.722 253.313 932.625 276.126 933.87 299.353C936.773 344.564 933.455 391.433 913.546 442.035C905.25 462.774 895.296 483.098 884.097 503.007C859.625 546.143 831.006 584.717 799.483 616.655C766.716 649.422 732.29 677.626 696.62 706.66C680.029 719.933 663.438 733.621 646.847 747.723C589.608 796.666 532.784 854.319 479.279 914.461C472.228 922.342 465.176 930.638 458.125 938.518C401.301 1003.64 330.375 1083.27 307.148 1147.98" stroke="#FFBF00" stroke-opacity="0.5" stroke-width="2.2422" stroke-miterlimit="10"/>
<path opacity="0.7889" d="M1348.23 -257.687C1280.62 -282.988 1191.03 -254.369 1112.22 -186.346C1098.95 -174.732 1086.09 -162.704 1073.65 -149.016C1026.78 -97.9992 988.62 -30.806 964.977 37.6315C955.438 65.4213 949.216 92.3815 945.068 118.927C938.432 162.063 938.847 202.711 943.409 242.944C945.898 265.342 948.387 288.154 949.216 310.967C951.29 355.347 947.142 402.217 927.233 451.99C918.938 472.728 908.983 492.637 897.784 512.546C873.728 555.683 845.523 594.257 814.83 625.779C782.892 658.546 749.296 686.751 714.455 716.2C698.279 729.473 682.102 743.16 665.512 757.677C609.102 807.035 553.108 864.274 500.017 924.001C492.966 931.882 485.915 939.762 478.864 948.058C422.04 1012.35 351.114 1090.74 327.057 1154.2" stroke="#FFBF00" stroke-opacity="0.5" stroke-width="2.2001" stroke-miterlimit="10"/>
<path opacity="0.7778" d="M1356.52 -244.414C1292.23 -268.056 1205.96 -238.192 1128.81 -169.755C1115.95 -158.141 1103.1 -145.698 1091.07 -132.425C1045.03 -81.4082 1007.7 -14.6298 983.642 53.393C974.103 81.1827 967.466 107.728 963.318 133.859C956.267 176.166 956.267 216.399 960 256.217C962.074 278.2 964.148 300.598 964.563 323.41C965.807 367.376 961.245 413.416 941.336 462.774C933.04 483.098 923.086 503.422 912.301 522.916C888.659 565.637 860.87 604.211 831.006 636.149C799.898 669.331 767.546 697.535 733.12 726.984C717.358 740.672 701.597 754.359 685.421 768.461C630.256 817.819 575.091 875.473 522 934.371C514.949 942.251 507.898 950.132 500.847 958.013C444.438 1021.89 373.097 1099.04 348.21 1160.42" stroke="#FFBF00" stroke-opacity="0.5" stroke-width="2.158" stroke-miterlimit="10"/>
<path opacity="0.7667" d="M1364.4 -230.727C1303.02 -252.71 1220.06 -221.602 1144.99 -152.749C1132.55 -141.136 1120.1 -128.693 1108.07 -115.005C1063.28 -63.5732 1025.95 2.37571 1001.89 69.9837C992.353 97.3587 985.301 123.904 980.739 149.62C973.273 191.512 972.443 231.33 975.347 270.319C977.006 292.302 978.25 314.285 978.665 336.683C979.08 380.234 974.103 425.859 953.779 474.387C945.483 494.711 935.529 514.62 924.745 534.115C901.103 576.836 874.557 614.995 845.108 647.348C814.83 680.529 783.307 709.149 750.125 738.598C734.779 752.285 719.017 765.973 703.256 780.49C649.335 830.262 594.585 887.501 541.909 946.399C534.858 954.279 527.807 962.16 521.171 970.041C464.761 1033.5 393.835 1108.99 367.705 1168.72" stroke="#FFBF00" stroke-opacity="0.5" stroke-width="2.1159" stroke-miterlimit="10"/>
<path opacity="0.7556" d="M1371.45 -216.624C1313.39 -236.948 1233.75 -204.596 1160.75 -135.329C1148.31 -123.715 1136.28 -111.272 1124.66 -97.5845C1080.7 -46.1526 1043.78 19.7962 1019.73 86.5746C1009.77 113.535 1003.14 140.08 998.159 165.381C990.278 206.859 988.619 245.847 990.693 284.836C991.937 306.404 992.767 327.972 992.767 350.37C992.352 393.092 986.545 438.302 966.636 486.83C958.341 507.154 948.386 526.649 937.602 546.143C914.375 588.45 888.244 627.024 859.625 658.961C830.176 692.143 799.483 721.177 767.131 750.626C752.199 764.313 736.852 778.416 721.506 792.933C668.415 842.705 614.494 899.944 562.233 958.427C555.182 966.308 548.131 974.188 541.494 981.654C485.085 1044.7 414.159 1118.94 386.784 1177.01" stroke="#FFBF00" stroke-opacity="0.5" stroke-width="2.0738" stroke-miterlimit="10"/>
<path opacity="0.7444" d="M1378.09 -202.107C1323.34 -220.772 1247.02 -187.175 1175.68 -117.079C1163.65 -105.465 1152.04 -93.0218 1140.43 -79.3343C1097.29 -27.9025 1060.79 37.6317 1036.73 103.995C1026.78 130.956 1019.73 157.086 1014.75 181.973C1006.46 223.035 1003.97 261.609 1005.63 299.768C1006.46 320.922 1006.87 342.49 1006.46 364.473C1005.21 406.779 998.989 451.16 978.665 499.274C970.37 519.183 960.415 539.092 950.046 558.172C927.234 600.478 901.518 638.638 874.143 670.99C845.523 704.172 815.66 733.206 784.137 763.069C769.62 776.757 754.688 790.859 739.341 805.376C687.495 855.564 633.989 912.802 581.728 970.456C574.677 978.336 568.04 985.802 560.989 993.683C504.995 1056.31 433.654 1128.9 405.449 1185.31" stroke="#FFBF00" stroke-opacity="0.5" stroke-width="2.0317" stroke-miterlimit="10"/>
<path opacity="0.7333" d="M1384.73 -187.59C1333.3 -204.596 1259.88 -169.34 1190.61 -99.2435C1179 -87.6299 1167.39 -74.7719 1156.19 -61.4992C1113.88 -10.0673 1078.21 55.052 1053.32 120.586C1043.37 147.132 1035.9 172.847 1030.51 197.734C1021.8 238.382 1018.9 276.126 1019.31 313.87C1019.73 335.024 1019.73 355.762 1018.48 377.331C1016.41 418.808 1009.36 463.188 989.034 510.473C980.739 530.382 970.784 549.876 960.415 568.956C937.603 610.848 912.716 649.422 886.171 681.774C858.381 714.956 829.762 744.404 798.654 774.268C784.551 787.956 770.034 802.058 755.102 816.99C704.5 867.177 651.824 924.416 599.563 982.069C592.511 989.535 585.875 997.416 578.824 1004.88C522.83 1067.1 451.489 1138.44 422.455 1192.77" stroke="#FFBF00" stroke-opacity="0.5" stroke-width="1.9896" stroke-miterlimit="10"/>
<path opacity="0.7222" d="M1390.53 -172.244C1342.42 -188.005 1272.32 -151.09 1204.72 -80.5788C1193.52 -68.9652 1182.32 -56.1072 1171.12 -42.4197C1130.06 9.0121 1094.39 74.1315 1069.5 138.836C1059.55 165.381 1052.08 190.683 1046.27 215.154C1037.15 255.387 1033.42 292.717 1033 329.632C1033 350.37 1032.59 371.109 1030.93 392.262C1028.02 433.325 1020.56 476.876 1000.23 523.745C991.523 543.24 981.984 562.734 971.614 581.813C949.217 623.705 925.16 661.865 899.029 694.217C872.069 727.813 844.279 757.262 814.001 787.126C800.313 801.228 785.796 815.33 771.279 829.848C721.506 880.45 669.66 937.689 617.813 994.512C610.762 1001.98 604.126 1009.86 597.074 1017.32C541.08 1078.71 469.739 1149.22 439.875 1201.9" stroke="#FFBF00" stroke-opacity="0.5" stroke-width="1.9475" stroke-miterlimit="10"/>
<path opacity="0.7111" d="M1395.93 -156.897C1351.13 -170.999 1284.35 -132.84 1218.82 -61.9141C1208.03 -49.8857 1196.84 -37.4425 1186.47 -23.755C1146.23 27.6768 1110.98 92.3814 1086.09 156.671C1076.14 182.802 1068.26 208.103 1062.45 232.16C1052.91 271.978 1048.35 308.893 1047.1 345.393C1046.27 365.717 1045.86 386.455 1043.78 407.194C1040.47 447.842 1032.17 490.978 1011.43 537.433C1002.72 556.927 993.182 576.007 983.228 595.086C960.83 636.563 937.603 674.722 912.302 707.49C886.171 741.086 859.211 770.535 830.177 801.228C816.904 815.33 802.802 829.433 788.699 844.365C740.171 894.967 688.739 952.206 637.307 1009.03C630.256 1016.5 623.62 1023.96 616.569 1031.43C560.574 1092.4 489.233 1161.25 458.54 1212.27" stroke="#FFBF00" stroke-opacity="0.5" stroke-width="1.9054" stroke-miterlimit="10"/>
<path opacity="0.7" d="M1401.32 -141.136C1359.84 -153.579 1295.97 -114.175 1232.51 -42.4196C1221.72 -30.3912 1211.35 -17.948 1200.98 -4.2605C1161.58 47.1713 1127.15 111.461 1101.85 175.336C1091.9 201.052 1084.02 226.353 1077.38 249.995C1067.43 288.984 1062.03 325.484 1060.38 361.569C1059.13 381.478 1057.89 401.802 1055.81 422.541C1051.67 462.359 1042.54 505.081 1022.22 551.12C1013.51 570.615 1003.97 589.694 994.012 608.359C972.029 649.836 949.216 687.995 924.745 720.762C899.444 754.359 873.313 784.223 845.108 814.916C832.25 829.018 818.563 843.12 804.461 858.052C756.762 909.069 706.159 965.893 655.142 1022.3C648.506 1029.77 641.455 1037.23 634.818 1044.7C578.824 1105.26 507.898 1172.86 475.96 1221.81" stroke="#FFBF00" stroke-opacity="0.5" stroke-width="1.8633" stroke-miterlimit="10"/>
<path opacity="0.6889" d="M1406.3 -124.959C1368.14 -135.743 1307.58 -95.0957 1245.78 -22.9252C1235.41 -10.8968 1225.04 1.96113 1215.09 15.6486C1176.93 67.4952 1142.5 131.37 1117.2 194.416C1106.83 220.132 1098.95 244.603 1092.31 268.245C1081.53 306.819 1076.14 342.904 1073.23 378.16C1071.57 398.069 1069.92 417.978 1067.43 438.302C1062.45 477.706 1052.91 519.598 1032.17 565.223C1023.46 584.302 1013.92 603.382 1003.97 622.047C982.398 663.109 960.001 701.268 936.358 734.035C911.887 767.632 887 797.91 859.211 828.603C846.767 842.706 833.495 857.223 819.807 872.155C773.353 923.172 723.58 980.41 672.563 1035.99C665.927 1043.46 658.875 1050.92 652.239 1058.39C596.659 1118.53 525.319 1184.48 492.552 1232.18" stroke="#FFBF00" stroke-opacity="0.5" stroke-width="1.8212" stroke-miterlimit="10"/>
<path opacity="0.6778" d="M1410.86 -108.783C1375.6 -117.908 1318.78 -76.0162 1258.64 -3.43096C1248.68 8.59745 1238.73 21.4554 1228.77 35.1429C1191.44 86.9895 1157.43 150.45 1131.72 213.08C1121.35 238.382 1113.05 262.853 1106.42 286.495C1095.22 324.654 1088.99 359.91 1085.26 395.166C1083.19 414.66 1081.11 434.154 1078.21 454.478C1072.4 493.467 1062.45 534.944 1041.71 579.74C1033 598.819 1023.46 617.484 1013.51 636.149C991.938 677.211 970.785 715.371 947.557 748.138C923.915 782.149 899.859 812.427 872.898 843.121C860.455 857.223 847.597 871.74 834.739 886.672C789.529 938.104 740.171 994.927 689.569 1050.51C682.932 1057.97 675.881 1065.44 669.245 1072.49C613.665 1132.22 542.324 1196.92 508.313 1242.55" stroke="#FFBF00" stroke-opacity="0.5" stroke-width="1.7791" stroke-miterlimit="10"/>
<path opacity="0.6667" d="M1415.01 -92.1924C1383.07 -99.6583 1329.15 -56.5219 1271.49 16.4781C1261.95 28.5065 1252 41.3645 1242.46 55.052C1205.96 106.899 1172.36 169.944 1146.65 232.16C1136.28 257.461 1127.98 281.518 1120.93 304.745C1109.32 342.49 1102.27 377.331 1098.12 411.757C1095.63 430.836 1093.14 450.331 1089.41 470.24C1082.77 508.399 1071.99 549.461 1051.25 594.257C1042.54 612.922 1033 631.586 1023.46 650.251C1002.31 690.899 981.568 729.058 959.586 762.24C936.773 796.251 913.546 826.53 887.83 857.637C875.801 872.155 863.358 886.672 850.5 901.603C806.12 953.035 757.591 1009.86 707.404 1065.02C700.767 1072.49 694.131 1079.54 687.08 1087.01C631.5 1145.9 560.159 1209.78 525.318 1253.33" stroke="#FFBF00" stroke-opacity="0.5" stroke-width="1.737" stroke-miterlimit="10"/>
<path opacity="0.6556" d="M1419.15 -75.6015C1390.53 -81.4083 1339.93 -37.0276 1283.94 36.802C1274.81 48.8304 1264.86 62.1031 1255.73 75.7906C1220.48 127.637 1187.3 190.683 1161.17 252.069C1150.8 276.955 1142.09 301.012 1134.62 323.825C1122.59 361.154 1114.71 395.166 1109.73 429.177C1106.83 448.257 1103.93 466.921 1099.78 486.416C1092.31 524.16 1081.11 564.393 1060.38 608.774C1051.67 627.439 1042.13 646.103 1032.59 664.353C1011.85 705.001 991.523 742.745 970.37 775.927C948.387 809.939 925.989 840.632 901.103 871.74C889.489 886.257 877.461 900.774 865.017 915.706C821.881 967.552 773.767 1024.38 723.58 1078.71C716.944 1086.18 710.307 1093.23 703.256 1100.28C647.676 1158.76 576.336 1220.98 540.665 1263.29" stroke="#FFBF00" stroke-opacity="0.5" stroke-width="1.6949" stroke-miterlimit="10"/>
<path opacity="0.6444" d="M1423.3 -59.0105C1398 -63.1583 1350.72 -17.5333 1296.38 56.7111C1287.26 69.1543 1278.13 82.0122 1269.01 95.6997C1234.58 147.546 1201.81 210.177 1175.68 271.149C1165.31 295.62 1156.19 319.677 1148.72 342.075C1136.28 378.99 1127.57 412.586 1121.76 445.768C1118.44 464.433 1114.71 483.098 1110.56 502.177C1102.27 539.092 1090.24 579.325 1069.5 622.876C1060.79 641.541 1051.25 659.791 1041.71 678.041C1020.97 718.688 1001.48 756.433 981.154 789.615C960 823.626 938.432 854.734 914.375 885.842C903.176 900.359 891.563 914.876 879.12 930.223C836.813 982.069 789.943 1038.89 739.756 1093.23C733.119 1100.28 726.483 1107.75 719.847 1114.8C664.267 1172.86 592.926 1233.84 556.426 1274.07" stroke="#FFBF00" stroke-opacity="0.5" stroke-width="1.6528" stroke-miterlimit="10"/>
<path opacity="0.6333" d="M1427.45 -42.4197C1405.47 -44.9084 1361.09 1.96098 1308.82 76.6201C1300.11 89.0633 1290.99 101.921 1282.28 115.609C1248.68 167.455 1216.33 229.671 1190.2 290.228C1179.83 314.7 1170.7 337.927 1162.82 360.325C1149.97 396.825 1140.84 430.007 1133.79 462.774C1130.06 481.024 1125.91 499.274 1121.35 518.353C1112.22 554.853 1099.78 594.257 1079.04 637.808C1070.33 656.058 1060.79 674.308 1051.67 692.558C1031.34 732.791 1012.68 770.535 992.767 804.132C972.444 838.143 952.12 869.251 928.478 901.189C917.694 915.706 906.08 930.637 894.466 945.569C853.404 997.416 806.949 1054.65 757.176 1108.16C750.54 1115.21 743.904 1122.26 737.267 1129.31C682.103 1186.97 610.762 1246.28 573.017 1284.85" stroke="#FFBF00" stroke-opacity="0.5" stroke-width="1.6107" stroke-miterlimit="10"/>
<path opacity="0.6222" d="M1431.18 -25.4139C1412.52 -26.2434 1371.46 21.8702 1321.27 96.9441C1312.97 109.387 1304.26 122.245 1295.55 136.348C1263.2 188.194 1231.26 250.41 1204.3 310.137C1193.52 334.194 1184.39 357.421 1176.1 379.404C1162.82 415.075 1152.87 447.842 1145.4 480.194C1141.26 498.444 1136.69 516.279 1131.72 534.944C1121.76 571.029 1108.9 609.603 1087.75 652.74C1079.04 670.99 1069.5 688.825 1060.38 707.075C1040.47 747.308 1022.22 785.052 1003.14 818.234C983.642 852.66 964.148 883.768 941.75 915.706C931.381 930.223 920.182 945.154 908.569 960.501C868.75 1012.76 822.711 1069.59 773.353 1122.68C766.716 1129.73 760.08 1136.78 753.444 1143.83C698.279 1201.07 626.938 1259.14 588.364 1296.05" stroke="#FFBF00" stroke-opacity="0.5" stroke-width="1.5686" stroke-miterlimit="10"/>
<path opacity="0.6111" d="M1434.92 -8.4082C1419.57 -7.57866 1381.41 41.7793 1333.3 117.268C1325.42 129.711 1316.71 142.984 1308.41 156.671C1276.89 208.518 1245.36 270.319 1218.4 329.632C1207.62 353.688 1198.08 376.501 1189.78 398.069C1176.1 433.325 1165.31 465.677 1157.02 497.2C1152.46 515.035 1147.48 532.87 1142.09 551.12C1131.3 586.376 1117.61 624.95 1096.88 667.257C1088.17 685.092 1078.63 703.342 1069.5 721.177C1049.59 760.995 1032.17 798.74 1013.92 832.336C995.256 866.762 976.591 898.285 955.023 930.223C945.069 945.155 934.285 960.086 923.086 975.433C884.097 1027.69 838.887 1084.52 789.944 1137.61C783.307 1144.66 776.671 1151.71 770.035 1158.35C714.87 1214.76 643.529 1271.58 604.125 1306.84" stroke="#FFBF00" stroke-opacity="0.5" stroke-width="1.5265" stroke-miterlimit="10"/>
<path opacity="0.6" d="M1438.23 8.18268C1426.2 10.6713 1391.36 61.2736 1344.91 137.592C1337.44 150.035 1329.15 163.308 1320.85 176.995C1290.16 229.257 1259.05 290.228 1232.09 349.126C1221.31 372.768 1211.77 395.581 1203.06 416.734C1188.95 451.575 1177.34 483.098 1168.22 514.206C1163.24 531.626 1157.85 549.046 1151.63 567.296C1140.43 602.137 1125.91 639.882 1104.76 681.774C1096.05 699.609 1086.51 717.444 1077.8 735.279C1058.3 775.098 1041.3 812.427 1024.29 846.439C1006.45 880.865 988.619 912.387 967.881 944.74C958.341 959.672 947.972 974.603 936.773 989.95C899.029 1042.63 854.648 1099.45 805.705 1151.71C799.068 1158.76 792.432 1165.81 785.796 1172.45C730.631 1228.44 659.29 1284.02 618.642 1317.21" stroke="#FFBF00" stroke-opacity="0.5" stroke-width="1.4844" stroke-miterlimit="10"/>
<path opacity="0.5889" d="M1441.97 25.1883C1432.84 29.336 1401.73 81.1826 1356.94 157.916C1349.47 170.359 1341.59 183.631 1334.13 197.319C1304.68 249.58 1273.57 310.552 1246.61 368.205C1235.82 391.433 1225.87 413.83 1216.74 434.984C1202.23 469.41 1190.2 500.518 1180.24 531.211C1174.85 548.217 1168.63 565.637 1162.41 583.473C1150.38 617.484 1135.03 655.228 1113.88 696.706C1104.76 714.126 1095.63 731.961 1086.92 749.797C1067.43 789.2 1051.67 826.944 1035.07 860.541C1018.07 894.967 1001.48 926.905 981.154 959.257C972.029 974.189 961.659 989.12 951.29 1004.88C914.79 1057.56 870.824 1114.38 822.296 1166.64C815.659 1173.69 809.438 1180.33 802.801 1186.97C747.637 1242.55 676.296 1296.88 634.818 1328.4" stroke="#FFBF00" stroke-opacity="0.5" stroke-width="1.4423" stroke-miterlimit="10"/>
<path opacity="0.5778" d="M1445.7 41.7792C1439.89 47.586 1411.69 100.677 1369.38 177.825C1362.33 190.683 1354.86 203.541 1347.4 217.643C1318.78 269.904 1288.5 330.461 1261.13 387.7C1250.34 410.927 1240.39 432.91 1230.85 453.649C1215.5 487.66 1203.06 517.938 1192.27 548.217C1186.05 565.222 1179.83 581.813 1173.19 599.234C1160.34 632.83 1144.57 669.745 1123.42 710.808C1114.3 728.228 1105.17 745.649 1096.46 763.899C1077.38 803.302 1062.03 840.632 1046.27 874.643C1030.1 909.069 1014.34 941.422 995.256 973.774C986.546 988.706 976.591 1004.05 966.222 1019.4C930.552 1072.49 887.415 1129.31 839.301 1180.75C832.665 1187.8 826.444 1194.43 819.807 1201.07C764.642 1256.23 693.301 1308.91 650.995 1338.77" stroke="#FFBF00" stroke-opacity="0.5" stroke-width="1.4002" stroke-miterlimit="10"/>
<path opacity="0.5667" d="M1449.85 58.3702C1447.36 65.8361 1422.47 120.586 1381.82 197.734C1375.19 210.592 1367.72 223.865 1360.67 237.552C1332.88 289.813 1303.02 349.955 1275.64 406.779C1264.44 429.592 1254.49 451.575 1244.95 471.899C1229.19 505.495 1215.92 535.359 1204.3 564.808C1197.67 581.399 1191.03 597.99 1183.98 614.995C1170.29 648.177 1154.11 684.262 1132.55 724.91C1123.42 742.331 1114.3 759.751 1105.59 777.586C1086.92 816.575 1071.99 854.319 1057.06 888.331C1041.71 923.172 1026.78 955.524 1008.53 987.876C999.819 1002.81 990.694 1018.15 980.739 1033.92C946.313 1087.01 903.591 1143.83 855.478 1194.85C849.256 1201.48 842.62 1208.54 835.983 1214.76C781.233 1269.51 709.478 1320.94 666.341 1348.73" stroke="#FFBF00" stroke-opacity="0.5" stroke-width="1.3581" stroke-miterlimit="10"/>
<path opacity="0.5556" d="M1453.58 74.5464C1454.41 83.6714 1432.84 139.666 1393.85 217.643C1387.63 230.501 1380.58 243.774 1373.53 257.461C1346.57 309.723 1317.12 369.865 1289.33 425.859C1278.13 448.672 1267.76 470.24 1257.81 490.149C1241.63 523.331 1227.53 552.78 1215.5 581.399C1208.45 597.575 1201.4 613.751 1193.93 630.757C1179.41 663.109 1162.41 699.194 1141.26 739.013C1132.13 756.018 1123.01 773.439 1114.71 791.274C1096.05 830.263 1081.94 867.592 1067.84 901.604C1053.32 936.444 1039.22 968.797 1021.8 1001.56C1013.51 1016.91 1004.8 1032.26 994.841 1047.6C961.244 1101.11 919.767 1157.52 871.653 1208.54C865.432 1215.17 858.796 1221.81 852.159 1228.44C797.409 1282.37 726.068 1332.55 681.688 1359.1" stroke="#FFBF00" stroke-opacity="0.5" stroke-width="1.316" stroke-miterlimit="10"/>
<path opacity="0.5444" d="M1457.31 90.7224C1461.46 101.507 1442.8 158.745 1405.88 237.137C1399.66 249.995 1393.02 263.268 1386.39 277.37C1360.67 329.632 1331.64 389.359 1303.43 444.938C1292.23 467.336 1281.86 488.49 1271.49 508.813C1254.9 541.166 1239.97 570.2 1227.11 598.819C1219.65 614.995 1212.18 630.757 1204.3 647.348C1188.95 679.285 1171.53 714.541 1149.97 754.359C1140.84 771.365 1131.72 788.37 1123.42 806.206C1105.17 844.78 1091.48 882.109 1078.21 916.535C1064.52 951.376 1051.67 984.143 1034.66 1017.33C1026.78 1032.67 1018.07 1048.02 1008.94 1063.78C976.591 1117.29 935.529 1174.11 887.83 1224.3C881.608 1230.93 874.972 1237.57 868.335 1244.21C813.585 1297.71 742.244 1346.65 697.034 1371.13" stroke="#FFBF00" stroke-opacity="0.5" stroke-width="1.2739" stroke-miterlimit="10"/>
<path opacity="0.5333" d="M1461.05 106.898C1468.51 119.342 1453.17 177.825 1418.32 256.631C1412.52 269.489 1406.3 282.762 1399.66 296.864C1374.77 349.126 1346.15 408.438 1317.95 463.603C1306.75 485.586 1295.97 506.74 1285.6 526.649C1268.59 558.586 1253.24 587.205 1239.14 614.995C1231.26 630.757 1223.38 646.518 1214.67 662.694C1198.49 694.217 1180.24 728.643 1159.09 768.046C1149.97 784.637 1140.84 802.058 1132.55 819.478C1114.71 858.052 1101.85 895.382 1088.99 929.808C1076.14 964.649 1064.11 997.831 1047.93 1031.01C1040.47 1046.36 1032.17 1061.71 1023.05 1077.47C991.938 1131.39 951.29 1187.8 904.006 1237.57C897.784 1244.21 891.148 1250.84 884.926 1257.06C830.176 1310.15 758.835 1357.85 712.381 1380.25" stroke="#FFBF00" stroke-opacity="0.5" stroke-width="1.2318" stroke-miterlimit="10"/>
<path opacity="0.5222" d="M1464.36 122.245C1475.15 136.348 1462.71 196.075 1429.94 275.296C1424.55 288.154 1418.32 301.842 1412.1 315.529C1388.05 367.791 1359.84 427.103 1331.64 481.439C1320.44 503.422 1309.24 524.16 1298.87 543.654C1281.45 575.177 1265.27 602.967 1250.34 630.342C1242.05 645.689 1233.34 661.035 1224.63 677.211C1207.62 707.905 1188.95 742.331 1167.39 780.905C1158.26 797.496 1149.14 814.501 1141.26 831.922C1123.42 870.081 1111.39 907.41 1099.78 941.836C1087.75 977.092 1076.55 1009.86 1061.62 1043.46C1054.57 1058.8 1046.69 1074.56 1037.98 1090.33C1007.7 1144.25 967.881 1200.65 921.012 1250.43C914.79 1257.06 908.569 1263.29 901.932 1269.92C847.182 1322.6 775.841 1368.64 728.557 1389.79" stroke="#FFBF00" stroke-opacity="0.5" stroke-width="1.1897" stroke-miterlimit="10"/>
<path opacity="0.5111" d="M1468.1 137.592C1482.2 153.353 1473.07 214.325 1441.97 293.961C1436.99 306.819 1431.18 320.507 1424.96 334.609C1402.15 387.285 1373.94 445.768 1345.74 499.688C1334.54 521.257 1323.34 541.995 1312.14 561.075C1294.31 592.183 1277.3 619.558 1261.96 646.103C1253.24 661.035 1244.12 676.382 1234.99 692.143C1217.57 722.421 1198.08 756.018 1176.51 794.592C1167.39 811.183 1158.26 827.774 1150.38 845.194C1132.96 883.353 1121.35 920.683 1110.56 955.109C1099.36 990.365 1088.99 1023.55 1074.89 1057.14C1068.26 1072.49 1060.79 1088.25 1052.08 1104.01C1023.05 1158.35 984.057 1214.76 937.188 1263.7C930.966 1270.34 924.745 1276.56 918.108 1282.78C863.773 1335.04 792.017 1379.84 743.904 1398.92" stroke="#FFBF00" stroke-opacity="0.5" stroke-width="1.1476" stroke-miterlimit="10"/>
<path opacity="0.5" d="M1471.42 152.524C1488.42 169.944 1482.61 232.16 1453.58 312.626C1449.02 325.899 1443.21 339.171 1437.4 353.274C1415.42 405.95 1388.05 464.018 1359.01 517.524C1347.4 539.092 1336.2 559.416 1325 578.081C1306.75 608.774 1288.92 635.319 1272.74 661.865C1263.61 676.796 1254.07 691.314 1244.53 706.66C1226.28 736.109 1205.96 769.291 1184.39 807.45C1175.27 823.626 1166.14 840.217 1158.26 857.637C1141.26 895.382 1130.06 932.711 1120.1 967.552C1109.73 1002.81 1100.61 1036.4 1086.92 1070C1080.7 1085.76 1073.23 1101.52 1065.35 1117.29C1037.15 1171.62 998.989 1228.03 952.535 1276.56C946.313 1283.19 940.091 1289.42 933.455 1295.64C879.12 1347.07 807.364 1390.62 758.421 1408.04" stroke="#FFBF00" stroke-opacity="0.5" stroke-width="1.1055" stroke-miterlimit="10"/>
<path opacity="0.4889" d="M1474.73 167.455C1495.06 186.535 1492.57 249.995 1465.19 330.876C1460.63 344.149 1455.65 357.421 1449.85 371.524C1428.69 424.2 1401.73 481.853 1372.7 534.944C1361.09 556.098 1349.89 576.007 1338.27 594.671C1319.61 624.95 1300.94 651.081 1283.94 676.796C1274.4 691.313 1264.44 705.831 1254.49 720.762C1235.41 749.796 1214.67 782.564 1193.1 819.893C1183.98 836.069 1174.85 852.66 1167.39 869.666C1150.38 907.41 1140.43 944.325 1130.89 979.166C1121.35 1014.42 1113.05 1048.43 1100.19 1082.03C1094.39 1097.79 1087.34 1113.55 1079.45 1129.31C1052.49 1184.06 1014.75 1240.47 968.71 1288.59C962.489 1294.81 956.267 1301.44 949.631 1307.25C895.296 1358.27 823.955 1400.57 773.767 1416.34" stroke="#FFBF00" stroke-opacity="0.5" stroke-width="1.0634" stroke-miterlimit="10"/>
<path opacity="0.4778" d="M1478.47 181.558C1502.11 202.296 1502.94 267.001 1477.64 348.296C1473.49 361.569 1468.51 375.257 1463.12 388.944C1443.21 441.62 1416.25 499.274 1387.22 551.535C1375.6 572.689 1363.99 592.183 1351.96 610.433C1332.47 640.296 1313.8 666.012 1295.97 690.899C1286.01 705.001 1275.64 719.103 1265.27 734.035C1245.36 762.654 1223.8 794.592 1202.23 831.507C1193.1 847.268 1183.98 863.859 1176.51 880.865C1159.92 918.609 1150.38 955.524 1141.67 990.365C1132.96 1025.62 1125.49 1059.63 1113.88 1093.64C1108.49 1109.4 1101.85 1125.17 1094.39 1141.34C1068.67 1196.09 1031.34 1252.5 985.301 1300.2C979.08 1306.42 972.858 1312.64 966.637 1318.86C912.301 1369.47 840.96 1410.11 789.943 1424.22" stroke="#FFBF00" stroke-opacity="0.5" stroke-width="1.0213" stroke-miterlimit="10"/>
<path opacity="0.4667" d="M1481.78 195.245C1508.74 217.643 1512.48 283.592 1489.25 365.302C1485.52 378.575 1480.95 392.262 1475.98 406.365C1456.9 459.041 1430.77 516.279 1401.32 568.126C1389.7 588.865 1377.68 608.359 1365.65 626.194C1345.74 655.643 1326.24 680.529 1307.58 705.001C1297.21 719.103 1286.43 732.791 1275.23 747.308C1254.49 775.098 1232.51 807.035 1210.94 843.535C1201.4 859.297 1192.69 875.473 1185.22 892.478C1168.63 929.808 1159.92 966.723 1152.04 1001.98C1144.16 1037.65 1137.94 1071.66 1126.74 1106.09C1121.76 1121.85 1115.54 1138.02 1108.07 1153.79C1083.19 1208.95 1047.1 1264.94 1001.06 1312.64C994.841 1318.86 988.62 1325.09 982.398 1330.89C928.063 1381.08 856.722 1420.48 804.875 1432.51" stroke="#FFBF00" stroke-opacity="0.5" stroke-width="0.9792" stroke-miterlimit="10"/>
<path opacity="0.4556" d="M1485.93 208.518C1516.21 232.575 1523.26 299.768 1501.69 382.308C1498.38 395.581 1493.81 409.268 1489.25 423.37C1471 476.046 1445.28 532.87 1415.84 584.302C1404.22 604.626 1392.19 624.12 1379.75 641.541C1359.43 670.16 1339.1 695.047 1319.61 719.103C1308.41 732.791 1297.21 746.478 1286.01 760.581C1264.44 787.956 1241.63 819.064 1220.06 855.149C1210.52 870.495 1201.81 886.672 1194.76 903.677C1178.59 941.007 1170.29 977.507 1163.24 1012.76C1156.19 1048.43 1150.8 1082.86 1140.43 1117.29C1135.86 1133.05 1129.64 1149.22 1123.01 1165.4C1099.36 1220.56 1063.69 1276.97 1018.07 1323.84C1011.85 1330.06 1005.63 1336.29 999.404 1342.09C945.483 1391.45 873.728 1430.02 820.637 1440.39" stroke="#FFBF00" stroke-opacity="0.5" stroke-width="0.9371" stroke-miterlimit="10"/>
<path opacity="0.4444" d="M1489.67 221.376C1523.26 247.092 1533.22 315.529 1513.72 398.484C1510.4 411.757 1506.67 425.859 1502.11 439.546C1485.1 492.222 1459.39 549.046 1429.52 599.649C1417.49 619.972 1405.47 638.637 1392.61 656.058C1371.87 684.262 1350.72 708.319 1330.81 731.961C1319.19 745.234 1307.58 758.507 1295.97 772.609C1273.57 799.569 1250.34 829.848 1228.36 865.518C1218.82 880.865 1210.11 897.041 1203.06 913.632C1187.3 950.546 1179.42 987.461 1173.61 1022.72C1167.39 1058.39 1162.82 1093.23 1153.28 1127.65C1149.14 1143.83 1143.33 1160.01 1136.69 1176.18C1114.3 1231.76 1079.04 1287.76 1033.83 1334.21C1027.61 1340.43 1021.8 1346.24 1015.17 1352.05C961.245 1400.99 889.489 1437.9 835.569 1446.61" stroke="#FFBF00" stroke-opacity="0.5" stroke-width="0.895" stroke-miterlimit="10"/>
<path opacity="0.4333" d="M1494.23 233.819C1531.14 261.194 1544.42 330.876 1526.99 414.245C1524.09 427.933 1520.36 441.62 1516.21 455.723C1500.03 508.813 1474.73 564.808 1444.87 614.581C1432.84 634.49 1420.4 653.154 1407.54 670.16C1386.39 697.95 1364.4 721.592 1343.67 744.404C1331.64 757.262 1319.61 770.535 1307.58 784.223C1284.35 810.353 1260.71 840.632 1238.73 875.473C1229.19 890.819 1220.48 906.581 1213.43 923.172C1197.67 960.086 1191.03 996.586 1185.64 1031.84C1180.24 1067.51 1176.51 1102.35 1168.22 1137.19C1164.07 1153.37 1159.09 1169.55 1152.87 1185.72C1131.3 1241.3 1096.88 1297.71 1052.08 1343.75C1046.27 1349.97 1040.05 1355.78 1033.42 1361.59C979.495 1410.12 907.739 1445.79 852.989 1452.42" stroke="#FFBF00" stroke-opacity="0.5" stroke-width="0.8529" stroke-miterlimit="10"/>
<path opacity="0.4222" d="M1498.79 245.433C1539.02 274.467 1555.2 345.393 1539.85 429.177C1537.36 442.865 1534.05 456.552 1529.9 470.654C1514.55 523.745 1490.08 579.325 1459.8 628.683C1447.77 648.592 1435.33 666.842 1422.06 683.433C1400.49 710.808 1378.09 733.62 1356.11 756.018C1343.67 768.876 1331.22 781.319 1318.78 794.592C1295.14 820.308 1270.25 849.757 1248.27 884.598C1238.73 899.529 1230.02 915.291 1222.97 931.882C1207.62 968.382 1201.4 1005.3 1196.84 1040.55C1192.27 1076.22 1189.78 1111.48 1181.9 1146.32C1178.17 1162.5 1173.61 1178.67 1167.39 1195.26C1147.06 1251.26 1113.47 1307.25 1068.67 1352.88C1062.86 1359.1 1056.64 1364.9 1050.42 1370.3C996.5 1418.41 925.16 1452.42 869.165 1457.81" stroke="#FFBF00" stroke-opacity="0.5" stroke-width="0.8108" stroke-miterlimit="10"/>
<path opacity="0.4111" d="M1504.18 256.631C1547.73 287.325 1567.23 359.495 1553.54 444.109C1551.47 457.796 1548.15 471.484 1544.42 485.586C1529.9 538.677 1505.84 594.256 1475.56 642.785C1463.53 662.279 1450.68 680.529 1436.99 696.705C1415.01 723.666 1391.78 746.063 1368.97 768.046C1356.11 780.49 1343.25 792.933 1330.39 805.791C1305.92 831.092 1280.62 859.711 1258.64 894.137C1249.1 909.069 1240.39 924.416 1233.75 941.007C1218.82 977.507 1213.01 1014.01 1209.28 1049.68C1205.55 1085.76 1203.89 1121.02 1196.84 1155.86C1193.52 1172.04 1188.95 1188.63 1183.56 1204.8C1164.07 1260.8 1131.3 1316.79 1086.92 1362C1081.11 1368.22 1074.89 1374.03 1068.67 1379.42C1014.75 1426.71 943.409 1459.89 886.586 1463.21" stroke="#FFBF00" stroke-opacity="0.5" stroke-width="0.7687" stroke-miterlimit="10"/>
<path opacity="0.4" d="M1509.57 267.416C1556.03 299.768 1578.84 373.183 1567.23 458.211C1565.57 471.899 1562.67 486.001 1558.93 500.103C1545.66 553.194 1521.6 608.359 1491.32 656.473C1479.3 675.552 1466.02 693.388 1452.34 709.978C1429.94 736.524 1405.88 758.092 1382.65 779.66C1369.38 791.689 1356.11 803.717 1342.42 816.575C1317.12 841.047 1290.99 869.666 1269.01 903.263C1259.47 917.78 1250.76 933.541 1244.12 949.717C1229.19 985.802 1224.21 1022.3 1221.31 1057.97C1218.4 1094.06 1217.57 1129.31 1211.35 1164.57C1208.45 1180.75 1204.3 1197.34 1198.91 1213.93C1180.66 1270.34 1148.31 1326.33 1104.34 1371.13C1098.53 1376.93 1092.31 1382.74 1086.09 1388.55C1032.17 1435.42 960.83 1467.35 903.176 1469.01" stroke="#FFBF00" stroke-opacity="0.5" stroke-width="0.7266" stroke-miterlimit="10"/>
<path opacity="0.3889" d="M1515.8 276.955C1565.57 310.967 1591.7 385.626 1582.16 471.069C1580.5 484.757 1578.01 498.859 1574.69 512.961C1562.25 566.052 1539.02 620.802 1507.92 668.501C1495.89 687.58 1482.61 705.001 1468.51 721.177C1445.7 747.308 1420.81 768.461 1396.76 789.2C1383.07 801.228 1368.97 812.842 1355.28 825.285C1329.15 849.342 1302.6 877.132 1280.62 910.313C1271.08 924.83 1262.37 940.177 1255.73 956.353C1241.22 992.438 1236.65 1028.94 1234.58 1064.61C1232.51 1100.69 1232.51 1136.36 1227.53 1172.04C1225.04 1188.63 1221.31 1204.8 1216.33 1221.39C1199.32 1277.8 1167.39 1333.8 1123.42 1378.18C1117.61 1383.98 1111.39 1389.79 1105.17 1395.18C1051.25 1441.64 979.909 1471.92 921.012 1471.92" stroke="#FFBF00" stroke-opacity="0.5" stroke-width="0.6845" stroke-miterlimit="10"/>
<path opacity="0.3778" d="M1522.43 286.081C1575.52 321.751 1604.56 397.654 1597.09 483.512C1595.85 497.2 1593.77 511.302 1590.46 525.404C1578.84 578.495 1556.03 633.245 1524.92 680.115C1512.48 698.779 1499.21 716.2 1485.1 731.961C1461.88 757.262 1436.16 778.416 1411.27 798.74C1397.17 810.353 1382.65 821.552 1368.55 833.995C1341.59 857.223 1314.22 884.598 1292.23 917.78C1282.69 932.297 1273.98 947.228 1267.76 963.405C1253.24 999.075 1249.93 1035.58 1248.68 1071.66C1247.44 1107.75 1248.68 1143.83 1244.12 1179.5C1242.05 1196.09 1238.73 1212.68 1233.75 1229.27C1217.57 1286.1 1186.88 1341.68 1142.92 1385.64C1137.11 1391.45 1130.89 1397.26 1124.67 1402.65C1071.57 1448.27 999.819 1477.31 940.091 1475.65" stroke="#FFBF00" stroke-opacity="0.5" stroke-width="0.6424" stroke-miterlimit="10"/>
<path opacity="0.3667" d="M1529.9 294.79C1586.31 332.12 1618.66 409.268 1612.85 495.541C1612.02 509.228 1609.95 523.33 1607.05 537.847C1596.68 590.938 1573.86 645.274 1542.76 691.728C1530.31 710.393 1517.04 727.398 1502.11 742.745C1478.05 767.631 1452.34 787.955 1426.62 807.864C1412.1 819.063 1397.17 830.262 1382.65 842.291C1354.86 865.103 1327.07 892.063 1305.09 924.416C1295.55 938.518 1286.84 953.865 1280.62 970.041C1266.52 1005.71 1263.61 1042.21 1263.2 1077.88C1262.78 1113.97 1264.86 1150.47 1261.13 1186.14C1259.47 1202.73 1256.56 1219.32 1252 1235.91C1237.07 1292.73 1206.79 1348.73 1163.24 1392.28C1157.43 1398.09 1151.63 1403.48 1145.4 1408.87C1091.9 1454.5 1020.14 1481.87 959.586 1478.55" stroke="#FFBF00" stroke-opacity="0.5" stroke-width="0.6003" stroke-miterlimit="10"/>
<path opacity="0.3556" d="M1537.78 302.256C1597.51 341.245 1632.76 419.637 1629.03 506.739C1628.61 520.842 1626.96 534.944 1624.05 549.046C1614.93 602.137 1592.53 656.058 1561.42 701.683C1548.98 719.933 1535.29 736.938 1520.36 751.87C1495.89 776.342 1469.34 796.251 1442.8 815.33C1427.45 826.114 1412.52 837.313 1397.59 848.927C1368.97 871.325 1340.76 897.455 1318.36 929.393C1308.82 943.495 1300.11 958.427 1293.89 974.603C1280.21 1009.86 1277.72 1046.36 1278.13 1082.44C1278.55 1118.94 1281.45 1155.03 1278.55 1191.11C1277.3 1207.71 1274.4 1224.71 1270.25 1241.3C1256.15 1298.54 1226.7 1354.12 1183.56 1397.26C1177.76 1403.06 1171.95 1408.46 1165.73 1413.85C1112.22 1458.64 1040.88 1485.19 979.08 1479.8" stroke="#FFBF00" stroke-opacity="0.5" stroke-width="0.5582" stroke-miterlimit="10"/>
<path opacity="0.3444" d="M1546.49 308.893C1609.53 349.541 1648.11 429.177 1646.45 516.694C1646.03 530.796 1644.79 544.899 1642.72 559.001C1634.01 612.507 1612.44 666.012 1580.92 711.223C1568.47 729.058 1554.37 745.649 1539.44 760.581C1514.55 784.637 1487.18 803.717 1459.8 822.382C1444.04 833.166 1428.69 843.535 1413.35 854.734C1383.9 876.302 1354.86 902.018 1332.88 933.956C1322.93 947.643 1314.63 962.575 1308.82 978.751C1295.14 1014.01 1293.48 1050.09 1294.72 1086.59C1295.97 1123.09 1299.7 1159.59 1297.63 1195.68C1296.8 1212.27 1294.31 1229.27 1290.57 1245.86C1277.72 1303.1 1248.68 1359.1 1205.96 1401.82C1200.15 1407.63 1194.35 1413.02 1188.13 1418C1134.62 1462.38 1063.28 1487.26 1000.65 1480.21" stroke="#FFBF00" stroke-opacity="0.5" stroke-width="0.5161" stroke-miterlimit="10"/>
<path opacity="0.3333" d="M1556.03 314.7C1622.39 357.007 1663.87 437.887 1664.28 525.819C1664.28 539.922 1663.46 554.024 1661.38 568.126C1653.92 621.632 1632.35 674.723 1600.41 719.518C1587.97 737.353 1573.86 753.53 1558.1 768.047C1532.8 791.689 1504.6 810.353 1476.39 828.603C1460.22 838.973 1444.04 849.342 1428.28 860.126C1398.42 881.28 1368.55 906.581 1346.15 937.689C1336.2 951.376 1327.9 965.893 1322.1 982.069C1308.82 1016.91 1307.58 1053.41 1309.65 1089.5C1311.73 1126 1316.7 1162.91 1315.46 1199C1315.05 1216 1312.97 1232.59 1309.65 1249.6C1298.04 1307.25 1269.84 1362.83 1227.11 1405.14C1221.31 1410.94 1215.5 1416.34 1209.28 1421.31C1155.77 1465.28 1084.43 1488.92 1020.97 1480.21" stroke="#FFBF00" stroke-opacity="0.5" stroke-width="0.474" stroke-miterlimit="10"/>
<path opacity="0.3222" d="M1565.98 319.677C1635.67 363.643 1680.46 446.183 1682.53 534.115C1682.95 548.217 1682.12 562.319 1680.46 576.836C1673.82 630.342 1652.67 683.018 1620.73 727.399C1608.29 744.819 1593.77 760.995 1578.01 775.098C1552.3 798.325 1523.26 816.16 1494.64 833.995C1478.05 843.95 1461.46 853.904 1445.28 864.689C1414.59 885.012 1383.9 909.899 1361.91 940.592C1351.96 953.865 1343.67 968.797 1337.86 984.558C1325 1019.4 1324.59 1055.48 1327.07 1091.98C1329.98 1128.48 1335.78 1165.4 1335.37 1201.9C1335.37 1218.9 1333.71 1235.91 1330.39 1252.5C1319.61 1310.15 1292.23 1365.73 1249.93 1407.63C1244.12 1413.02 1238.31 1418.41 1232.09 1423.39C1179 1466.94 1107.24 1489.34 1042.95 1478.55" stroke="#FFBF00" stroke-opacity="0.5" stroke-width="0.4319" stroke-miterlimit="10"/>
<path opacity="0.3111" d="M1577.18 323.41C1649.77 369.035 1697.88 452.819 1702.03 541.581C1702.86 555.683 1702.44 570.2 1700.78 584.302C1694.98 637.808 1674.65 690.484 1642.3 734.035C1629.44 751.456 1614.93 767.217 1599.17 780.905C1573.03 803.717 1543.59 821.137 1513.72 838.143C1496.72 848.098 1479.71 857.638 1463.12 868.007C1431.6 887.916 1400.49 911.973 1378.09 942.251C1368.14 955.524 1359.84 970.041 1354.45 985.802C1341.59 1020.64 1342.01 1056.73 1345.32 1093.23C1349.06 1130.14 1355.69 1167.06 1356.11 1203.56C1356.11 1220.56 1354.86 1237.57 1352.38 1254.58C1342.84 1312.64 1315.88 1368.22 1273.98 1409.7C1268.18 1415.09 1262.37 1420.48 1256.15 1425.46C1203.06 1468.6 1131.3 1489.34 1065.77 1476.89" stroke="#FFBF00" stroke-opacity="0.5" stroke-width="0.3898" stroke-miterlimit="10"/>
<path opacity="0.3" d="M1588.8 326.313C1664.7 373.597 1716.13 458.626 1722.35 547.802C1728.57 636.978 1689.59 728.228 1620.73 785.467C1578.84 820.308 1528.24 842.291 1481.37 870.081C1434.5 897.87 1389.71 934.785 1371.04 985.802C1346.15 1054.65 1374.77 1130.56 1377.26 1203.97C1379.75 1279.46 1351.96 1357.02 1298.04 1410.11C1244.12 1463.21 1163.24 1489.34 1089.41 1473.58" stroke="#FFBF00" stroke-opacity="0.5" stroke-width="0.3477" stroke-miterlimit="10"/>
</svg>
