<svg width="670" height="550" viewBox="0 0 670 550" fill="none" xmlns="http://www.w3.org/2000/svg">
<path d="M-208 899.223C-202.193 802.58 -131.267 698.887 -73.1988 625.058C-10.5681 545.836 66.1648 477.813 153.267 426.381C224.608 384.075 302.171 352.967 371.438 307.756C438.216 264.205 494.21 200.33 518.682 124.012C547.301 35.6655 514.12 -48.9482 481.767 -131.488C449.83 -212.783 434.483 -295.323 455.637 -381.181C475.546 -460.818 521.171 -533.818 586.29 -584.005C704.915 -675.255 885.341 -691.846 1037.15 -625.482" stroke="#FFBF00" stroke-opacity="0.5" stroke-width="3" stroke-miterlimit="10"/>
<path opacity="0.9889" d="M1063.28 -627.556C936.773 -682.721 789.114 -677.744 675.881 -617.602C656.801 -607.647 638.551 -595.619 621.545 -582.761C557.256 -532.573 512.045 -459.573 492.136 -380.766C483.841 -348.414 480.937 -316.476 482.182 -285.369C483.841 -233.937 496.699 -183.334 515.778 -133.562C526.148 -105.772 536.932 -77.9822 545.227 -49.3629C561.403 5.38715 568.455 61.3815 549.79 119.45C541.909 143.092 531.125 165.904 518.267 187.058C489.648 233.512 449.415 272.916 404.205 302.779C357.335 333.887 307.148 358.359 257.375 384.49C234.562 396.518 211.75 408.546 189.767 421.819C113.864 467.444 45.8408 525.512 -12.2274 592.705C-20.1081 601.83 -27.574 610.955 -34.6252 620.08C-92.6934 693.495 -163.619 795.944 -170.256 890.512" stroke="#FFBF00" stroke-opacity="0.5" stroke-width="2.9579" stroke-miterlimit="10"/>
<path opacity="0.9778" d="M1087.34 -628.385C964.148 -681.891 819.807 -675.67 708.648 -615.113C689.983 -604.743 671.733 -593.13 655.143 -579.857C592.097 -529.67 546.887 -457.084 526.978 -378.692C518.682 -346.755 515.364 -315.232 516.194 -284.124C517.438 -233.107 529.466 -183.334 547.716 -133.562C557.671 -106.187 568.04 -78.3967 575.921 -50.1921C591.268 4.1431 597.904 59.7227 578.824 116.961C570.944 140.603 560.16 163.001 547.302 184.155C518.682 230.609 479.279 270.012 434.898 299.876C388.858 330.984 339.5 355.87 290.557 382.001C268.159 394.03 245.762 406.473 224.194 419.746C149.534 465.371 81.9265 523.854 24.273 590.632C16.3924 599.342 8.92643 608.467 1.8753 617.592C-56.1929 690.592 -127.119 791.382 -134.585 884.706" stroke="#FFBF00" stroke-opacity="0.5" stroke-width="2.9158" stroke-miterlimit="10"/>
<path opacity="0.9667" d="M1110.56 -627.971C990.694 -679.818 849.256 -671.937 740.171 -611.38C721.506 -601.011 704.086 -589.397 687.495 -576.124C625.279 -525.937 580.898 -453.352 560.159 -375.789C551.864 -343.852 548.546 -312.744 548.961 -282.051C549.79 -231.448 561.404 -182.09 578.824 -133.147C588.364 -105.772 598.319 -78.3971 605.784 -50.6073C620.301 2.89841 626.523 58.0632 607.444 114.887C599.563 138.114 588.779 160.512 575.921 181.665C547.716 227.705 508.728 267.109 465.591 297.387C420.381 328.91 371.853 353.796 323.739 379.927C301.756 391.955 279.773 404.398 258.205 417.671C184.79 464.126 118.012 522.194 60.3582 588.558C52.8923 597.268 45.4263 606.393 37.9604 615.518C-20.1078 688.103 -90.6191 787.649 -99.7441 878.899" stroke="#FFBF00" stroke-opacity="0.5" stroke-width="2.8737" stroke-miterlimit="10"/>
<path opacity="0.9556" d="M1132.55 -626.727C1015.99 -676.914 877.875 -667.789 770.449 -606.817C752.199 -596.448 734.778 -584.834 718.602 -571.562C657.216 -521.374 613.25 -449.204 592.511 -372.056C584.216 -340.533 580.483 -309.425 580.898 -278.732C581.312 -228.545 592.097 -180.016 608.688 -131.488C617.813 -104.528 627.352 -77.5673 634.403 -50.1923C648.091 2.89865 653.483 57.2339 634.403 114.058C626.523 137.285 615.739 159.683 603.296 180.421C575.091 226.461 536.932 265.45 494.625 295.728C450.244 327.251 402.96 352.552 355.676 379.098C334.108 391.126 312.54 403.569 291.386 417.257C218.801 463.297 152.437 521.365 95.6135 587.314C88.1476 596.024 80.6817 605.149 73.2158 614.274C15.5624 686.03 -55.3638 784.331 -65.3184 873.922" stroke="#FFBF00" stroke-opacity="0.5" stroke-width="2.8316" stroke-miterlimit="10"/>
<path opacity="0.9444" d="M1153.28 -624.238C1039.64 -672.766 905.251 -662.397 799.483 -600.596C781.648 -590.227 764.643 -578.198 748.881 -564.925C688.739 -514.738 644.773 -442.982 624.035 -366.249C615.739 -334.726 611.591 -304.033 611.591 -273.755C611.591 -223.982 621.546 -175.868 637.307 -128.17C646.018 -101.624 654.728 -74.6638 661.364 -47.7036C674.222 4.97254 679.199 58.893 660.12 114.887C652.239 138.115 641.455 160.098 629.012 180.836C601.222 226.461 563.893 265.865 522 296.143C478.449 327.666 431.995 352.967 385.54 379.927C364.387 392.37 342.819 404.814 322.08 418.086C250.739 464.541 185.205 522.609 128.381 588.143C120.915 596.853 113.449 605.564 105.983 614.689C48.3299 686.029 -22.5963 783.086 -33.3804 871.018" stroke="#FFBF00" stroke-opacity="0.5" stroke-width="2.7895" stroke-miterlimit="10"/>
<path opacity="0.9333" d="M1173.19 -620.92C1062.86 -667.789 931.381 -656.176 828.103 -593.96C810.682 -583.59 793.676 -571.562 778.33 -558.289C719.017 -507.687 675.881 -436.346 654.728 -360.443C646.017 -329.335 642.284 -299.056 641.87 -268.778C641.455 -219.835 650.58 -172.136 665.512 -124.437C673.807 -98.3061 682.103 -71.7606 688.324 -44.8004C700.353 7.04619 704.5 60.5519 685.421 116.131C677.54 138.944 667.171 160.927 654.313 181.666C626.938 227.291 590.023 266.279 548.96 296.972C506.239 328.495 460.614 354.211 414.989 381.171C394.25 393.614 373.097 406.058 352.773 419.745C282.676 466.2 217.557 524.268 161.148 589.387C153.682 598.098 146.216 606.808 139.165 615.933C81.5115 686.859 10.5853 782.257 -1.02832 868.529" stroke="#FFBF00" stroke-opacity="0.5" stroke-width="2.7474" stroke-miterlimit="10"/>
<path opacity="0.9222" d="M1191.86 -616.772C1084.85 -661.982 956.682 -649.124 855.063 -586.494C838.057 -576.124 821.466 -564.096 806.12 -550.823C747.637 -500.221 704.915 -429.295 683.762 -353.806C675.051 -323.113 670.904 -292.834 670.489 -262.971C669.659 -214.442 677.955 -167.158 692.472 -120.289C700.353 -94.1582 708.233 -68.0275 714.04 -41.482C725.239 9.94983 728.972 62.626 709.892 118.206C702.012 141.018 691.642 162.586 679.199 183.325C651.824 228.535 615.739 267.939 575.506 298.217C533.614 329.74 488.819 355.87 444.023 382.831C423.284 395.274 402.961 408.132 382.637 421.819C313.37 468.689 249.08 526.757 192.671 591.461C185.205 600.172 177.739 608.882 170.688 617.592C113.034 688.103 42.1082 782.257 29.665 866.456" stroke="#FFBF00" stroke-opacity="0.5" stroke-width="2.7053" stroke-miterlimit="10"/>
<path opacity="0.9111" d="M1209.69 -611.795C1106 -655.346 981.154 -640.829 881.194 -578.198C864.188 -567.414 848.012 -555.8 833.08 -542.113C775.841 -491.511 733.12 -420.999 711.966 -345.925C703.256 -315.232 699.108 -285.368 697.864 -255.92C696.62 -207.806 704.501 -161.351 717.773 -114.897C725.239 -89.1809 732.705 -63.465 738.097 -36.9195C748.881 14.0976 751.785 66.359 732.29 121.109C724.41 143.507 714.04 165.49 701.597 185.814C674.637 231.024 638.966 270.012 599.563 300.706C558.5 332.643 514.949 358.359 470.569 385.734C450.245 398.177 430.336 411.035 410.427 424.723C342.404 471.592 278.529 529.66 222.534 593.95C215.069 602.66 207.603 611.371 200.552 620.081C142.898 690.177 71.9719 783.086 58.6992 865.626" stroke="#FFBF00" stroke-opacity="0.5" stroke-width="2.6632" stroke-miterlimit="10"/>
<path opacity="0.9" d="M1226.28 -605.988C1125.91 -647.88 1003.97 -632.118 906.08 -569.073C889.489 -558.289 873.727 -546.261 858.796 -532.988C802.387 -482.385 760.08 -411.874 738.511 -337.63C729.801 -307.351 725.239 -277.488 723.994 -248.454C721.921 -200.755 729.386 -154.715 741.83 -109.09C748.881 -83.7887 755.932 -58.0729 760.909 -31.9422C770.864 18.2454 772.938 70.092 753.858 124.427C745.977 146.825 735.608 168.393 723.165 188.717C696.619 233.513 661.778 272.501 623.205 303.609C582.972 335.547 540.25 361.677 497.114 389.052C477.205 401.496 457.295 414.353 437.801 428.456C370.608 475.74 307.977 533.393 251.983 597.268C244.517 605.979 237.051 614.274 230 622.984C172.347 692.251 101.835 783.916 86.9033 864.797" stroke="#FFBF00" stroke-opacity="0.5" stroke-width="2.6211" stroke-miterlimit="10"/>
<path opacity="0.8889" d="M1242.46 -599.352C1145.4 -639.585 1026.78 -622.579 930.966 -558.704C914.79 -547.92 899.029 -535.892 884.512 -522.619C828.932 -472.017 787.455 -401.92 765.472 -328.505C756.762 -298.227 751.784 -268.778 750.54 -240.159C748.051 -192.874 754.688 -147.249 766.716 -102.039C773.352 -76.7381 779.574 -51.4369 784.551 -26.1358C793.676 23.637 795.335 75.0688 775.841 128.575C767.96 150.972 757.591 172.126 745.563 192.449C719.017 237.245 685.006 276.234 647.262 306.927C607.858 338.864 565.966 365.41 523.659 392.785C504.165 405.643 484.671 418.501 465.591 432.188C399.642 479.472 337.426 537.54 281.847 601.001C274.381 609.296 267.33 618.006 259.864 626.717C202.625 695.569 131.699 785.989 115.938 864.796" stroke="#FFBF00" stroke-opacity="0.5" stroke-width="2.579" stroke-miterlimit="10"/>
<path opacity="0.8778" d="M1256.98 -591.885C1163.24 -630.459 1047.93 -612.209 953.779 -547.919C938.017 -537.135 922.671 -525.107 908.154 -511.419C853.404 -460.817 812.341 -391.135 790.358 -318.135C781.233 -288.272 776.671 -259.238 774.597 -230.618C771.693 -183.749 777.5 -138.953 788.699 -94.158C794.921 -69.2717 800.728 -44.3853 804.875 -19.0841C813.171 29.8591 814 80.8761 794.506 134.382C786.21 156.365 776.256 177.518 764.227 197.842C738.097 242.223 704.5 281.211 667.585 312.319C629.012 344.257 587.949 371.217 546.472 399.007C527.392 411.865 508.313 424.723 489.233 438.825C424.529 486.524 362.727 544.177 307.563 607.223C300.097 615.518 293.046 624.229 285.994 632.524C228.756 700.962 157.83 789.723 141.239 867.286" stroke="#FFBF00" stroke-opacity="0.5" stroke-width="2.5369" stroke-miterlimit="10"/>
<path opacity="0.8667" d="M1271.08 -583.59C1180.66 -620.505 1068.26 -601.011 976.176 -536.306C960.83 -525.522 945.483 -513.494 931.381 -499.806C877.875 -449.204 836.812 -379.937 814.83 -307.352C805.704 -277.903 800.727 -248.869 798.653 -220.664C795.335 -174.209 800.727 -129.829 810.682 -85.8629C816.074 -61.3913 821.881 -36.5049 825.614 -11.6185C833.079 36.9099 833.494 87.0974 814 140.188C805.704 162.171 795.75 183.325 783.722 203.234C758.006 247.614 724.824 286.603 688.739 317.711C650.994 350.063 611.176 376.609 570.114 404.813C551.449 417.671 532.784 430.944 514.119 444.631C450.244 492.33 389.273 550.399 334.523 612.614C327.057 620.91 320.006 629.205 312.954 637.916C255.716 705.938 184.79 793.455 167.369 868.944" stroke="#FFBF00" stroke-opacity="0.5" stroke-width="2.4948" stroke-miterlimit="10"/>
<path opacity="0.8556" d="M1284.35 -574.88C1196.84 -610.135 1088.17 -589.397 997.745 -524.278C982.398 -513.493 967.881 -501.05 953.779 -487.777C901.103 -436.76 860.87 -367.908 838.472 -296.152C829.347 -266.704 823.955 -238.084 821.881 -210.294C818.148 -164.669 822.711 -120.704 832.251 -77.1524C837.643 -53.0955 842.62 -28.624 845.938 -3.73759C852.574 44.3761 852.574 94.1488 832.665 146.41C824.37 167.978 814.415 189.132 802.802 209.041C777.086 253.007 745.148 291.995 709.478 323.103C672.563 355.456 633.574 382.416 593.756 410.621C575.506 423.478 556.841 436.751 538.591 450.853C475.961 498.967 415.818 556.62 361.068 618.836C353.603 627.132 346.551 635.427 339.5 643.723C282.262 711.331 211.335 797.604 193.085 871.433" stroke="#FFBF00" stroke-opacity="0.5" stroke-width="2.4527" stroke-miterlimit="10"/>
<path opacity="0.8444" d="M1296.8 -564.925C1212.6 -598.522 1107.24 -576.539 1018.9 -510.59C1003.97 -499.391 989.449 -487.363 975.762 -474.09C923.915 -423.073 884.097 -354.636 861.285 -283.295C852.16 -254.261 846.768 -225.641 844.279 -198.266C840.131 -153.056 843.864 -109.505 852.574 -66.3685C857.137 -42.3117 862.114 -18.2548 865.018 6.21676C870.824 53.5009 869.995 102.859 850.501 154.705C842.205 176.274 832.251 197.012 820.637 216.921C795.336 260.887 763.813 299.876 728.972 330.984C692.887 363.336 654.728 390.711 615.739 418.916C597.904 431.774 579.654 445.046 561.819 459.149C500.018 507.262 440.705 564.916 386.37 626.717C378.904 635.012 371.853 643.308 364.802 651.603C307.563 718.382 236.637 803.41 217.557 875.581" stroke="#FFBF00" stroke-opacity="0.5" stroke-width="2.4106" stroke-miterlimit="10"/>
<path opacity="0.8333" d="M1308.41 -554.556C1227.53 -586.493 1125.08 -563.266 1038.81 -496.902C1024.29 -485.704 1010.19 -473.675 996.501 -459.988C945.898 -408.971 906.08 -340.948 883.268 -270.022C874.143 -240.988 868.336 -213.198 865.432 -185.823C860.87 -141.027 863.773 -98.3058 871.654 -55.5842C875.802 -31.9421 880.364 -8.30003 882.853 16.1716C887.83 63.0409 886.586 111.569 866.677 163.416C858.381 184.984 848.427 205.308 836.813 225.217C811.512 268.768 780.819 307.757 746.807 339.28C711.552 371.632 674.222 399.007 636.063 427.626C618.642 440.899 600.807 454.172 582.972 468.274C522.415 516.802 463.517 574.456 409.182 635.427C402.131 643.723 394.665 652.018 387.614 659.899C330.79 726.263 259.864 810.047 239.54 880.143" stroke="#FFBF00" stroke-opacity="0.5" stroke-width="2.3685" stroke-miterlimit="10"/>
<path opacity="0.8222" d="M1319.19 -543.772C1241.63 -574.05 1142.5 -549.164 1057.89 -482.8C1043.78 -471.602 1029.68 -459.158 1016.82 -445.886C967.051 -394.869 927.648 -326.846 904.835 -256.749C895.71 -228.13 889.489 -200.34 886.585 -173.38C881.608 -128.999 884.097 -86.6923 890.733 -44.8003C894.466 -21.573 898.199 2.06904 900.687 26.1259C904.835 72.1657 902.761 120.694 883.267 171.711C874.972 192.865 865.017 213.603 853.403 233.098C828.517 276.649 798.239 315.223 765.472 346.745C731.045 379.512 694.96 406.887 657.216 435.507C640.21 448.779 622.79 462.052 605.369 476.154C546.057 524.683 487.574 582.336 433.653 643.308C426.602 651.603 419.136 659.484 412.5 667.78C355.676 733.728 284.75 815.853 263.182 884.706" stroke="#FFBF00" stroke-opacity="0.5" stroke-width="2.3264" stroke-miterlimit="10"/>
<path opacity="0.8111" d="M1329.56 -532.159C1255.32 -560.778 1159.51 -534.647 1076.55 -467.869C1062.45 -456.67 1049.18 -444.227 1036.32 -430.954C987.376 -379.937 948.802 -312.329 925.575 -242.647C916.035 -214.443 910.228 -186.653 906.91 -159.693C901.518 -115.727 903.177 -74.2493 909.398 -32.772C912.717 -9.54476 916.035 13.2677 917.694 36.9098C921.427 82.5348 918.523 130.234 898.614 180.836C890.319 201.989 880.364 222.313 869.166 241.808C844.694 285.359 815.245 323.933 782.893 355.455C749.296 388.222 714.04 416.012 677.54 444.631C660.95 457.904 643.529 471.592 626.523 485.694C568.04 534.637 510.802 591.876 456.881 652.433C449.83 660.313 442.779 668.609 435.728 676.904C378.904 742.438 307.978 823.319 285.58 890.098" stroke="#FFBF00" stroke-opacity="0.5" stroke-width="2.2843" stroke-miterlimit="10"/>
<path opacity="0.8" d="M1339.1 -520.13C1268.18 -547.09 1175.27 -519.715 1094.8 -452.107C1081.11 -440.908 1067.84 -428.465 1055.4 -414.777C1007.7 -363.76 969.125 -296.567 945.898 -227.3C936.358 -199.096 930.137 -171.721 926.404 -145.175C920.182 -101.624 921.427 -60.5615 926.819 -19.499C929.722 3.31351 932.625 26.1261 933.87 49.3534C936.773 94.5636 933.455 141.433 913.546 192.035C905.25 212.774 895.296 233.098 884.097 253.007C859.625 296.143 831.006 334.717 799.483 366.655C766.716 399.422 732.29 427.626 696.62 456.66C680.029 469.933 663.438 483.621 646.847 497.723C589.608 546.666 532.784 604.319 479.279 664.461C472.228 672.342 465.176 680.638 458.125 688.518C401.301 753.638 330.375 833.274 307.148 897.979" stroke="#FFBF00" stroke-opacity="0.5" stroke-width="2.2422" stroke-miterlimit="10"/>
<path opacity="0.7889" d="M1348.23 -507.687C1280.62 -532.988 1191.03 -504.368 1112.22 -436.346C1098.95 -424.732 1086.09 -412.704 1073.65 -399.016C1026.78 -347.999 988.62 -280.806 964.978 -212.368C955.438 -184.579 949.216 -157.618 945.069 -131.073C938.432 -87.9365 938.847 -47.2887 943.41 -7.05578C945.898 15.342 948.387 38.1545 949.216 60.967C951.29 105.348 947.143 152.217 927.233 201.99C918.938 222.728 908.983 242.637 897.785 262.547C873.728 305.683 845.523 344.257 814.83 375.78C782.893 408.547 749.296 436.751 714.455 466.2C698.279 479.473 682.103 493.16 665.512 507.677C609.103 557.035 553.108 614.274 500.017 674.001C492.966 681.882 485.915 689.763 478.864 698.058C422.04 762.348 351.114 840.74 327.057 904.2" stroke="#FFBF00" stroke-opacity="0.5" stroke-width="2.2001" stroke-miterlimit="10"/>
<path opacity="0.7778" d="M1356.52 -494.414C1292.23 -518.056 1205.96 -488.193 1128.81 -419.755C1115.95 -408.141 1103.1 -395.698 1091.07 -382.425C1045.03 -331.408 1007.7 -264.63 983.642 -196.607C974.103 -168.817 967.466 -142.272 963.318 -116.141C956.267 -73.8344 956.267 -33.6014 960 6.21675C962.074 28.1997 964.148 50.5975 964.563 73.41C965.807 117.376 961.245 163.416 941.336 212.774C933.04 233.098 923.086 253.421 912.301 272.916C888.659 315.637 860.87 354.211 831.006 386.149C799.898 419.331 767.546 447.535 733.12 476.984C717.358 490.672 701.597 504.359 685.421 518.461C630.256 567.819 575.091 625.473 522 684.37C514.949 692.251 507.898 700.132 500.847 708.012C444.438 771.887 373.097 849.035 348.21 910.422" stroke="#FFBF00" stroke-opacity="0.5" stroke-width="2.158" stroke-miterlimit="10"/>
<path opacity="0.7667" d="M1364.4 -480.727C1303.02 -502.71 1220.06 -471.602 1144.99 -402.75C1132.55 -391.136 1120.1 -378.693 1108.07 -365.005C1063.28 -313.573 1025.95 -247.625 1001.89 -180.017C992.353 -152.642 985.301 -126.096 980.739 -100.38C973.273 -58.4881 972.443 -18.6699 975.347 20.3188C977.006 42.3018 978.25 64.2847 978.665 86.6825C979.08 130.234 974.103 175.859 953.779 224.387C945.483 244.711 935.529 264.62 924.745 284.114C901.103 326.836 874.557 364.995 845.108 397.347C814.83 430.529 783.307 459.148 750.125 488.597C734.779 502.285 719.017 515.972 703.256 530.489C649.335 580.262 594.585 637.501 541.909 696.399C534.858 704.279 527.807 712.16 521.171 720.041C464.761 783.501 393.835 858.99 367.705 918.717" stroke="#FFBF00" stroke-opacity="0.5" stroke-width="2.1159" stroke-miterlimit="10"/>
<path opacity="0.7556" d="M1371.45 -466.624C1313.39 -486.948 1233.75 -454.596 1160.75 -385.329C1148.31 -373.715 1136.28 -361.272 1124.66 -347.584C1080.7 -296.152 1043.78 -230.204 1019.73 -163.425C1009.77 -136.465 1003.14 -109.919 998.159 -84.6183C990.279 -43.141 988.62 -4.15238 990.693 34.8363C991.938 56.4044 992.767 77.9726 992.767 100.37C992.352 143.092 986.546 188.302 966.637 236.831C958.341 257.154 948.387 276.649 937.603 296.143C914.375 338.45 888.244 377.024 859.625 408.961C830.176 442.143 799.483 471.177 767.131 500.626C752.199 514.314 736.852 528.416 721.506 542.933C668.415 592.706 614.494 649.944 562.233 708.427C555.182 716.308 548.131 724.189 541.494 731.655C485.085 794.7 414.159 868.944 386.784 927.013" stroke="#FFBF00" stroke-opacity="0.5" stroke-width="2.0738" stroke-miterlimit="10"/>
<path opacity="0.7444" d="M1378.09 -452.107C1323.34 -470.772 1247.02 -437.175 1175.68 -367.079C1163.65 -355.465 1152.04 -343.022 1140.43 -329.334C1097.29 -277.903 1060.79 -212.368 1036.73 -146.005C1026.78 -119.045 1019.73 -92.9138 1014.75 -68.0275C1006.46 -26.965 1003.97 11.609 1005.63 49.7681C1006.46 70.9215 1006.87 92.4896 1006.46 114.473C1005.21 156.779 998.989 201.16 978.665 249.274C970.37 269.183 960.415 289.092 950.046 308.171C927.234 350.478 901.518 388.637 874.143 420.99C845.523 454.172 815.66 483.206 784.137 513.069C769.62 526.757 754.688 540.859 739.341 555.376C687.495 605.564 633.989 662.802 581.728 720.456C574.677 728.336 568.04 735.802 560.989 743.683C504.995 806.314 433.654 878.899 405.449 935.308" stroke="#FFBF00" stroke-opacity="0.5" stroke-width="2.0317" stroke-miterlimit="10"/>
<path opacity="0.7333" d="M1384.73 -437.59C1333.3 -454.596 1259.88 -419.34 1190.61 -349.243C1179 -337.63 1167.39 -324.772 1156.19 -311.499C1113.88 -260.067 1078.21 -194.948 1053.32 -129.414C1043.37 -102.868 1035.9 -77.1523 1030.51 -52.2659C1021.8 -11.6182 1018.9 26.1261 1019.31 63.8705C1019.73 85.0239 1019.73 105.763 1018.48 127.331C1016.41 168.808 1009.36 213.189 989.034 260.473C980.739 280.382 970.784 299.876 960.415 318.956C937.603 360.848 912.716 399.422 886.171 431.774C858.381 464.956 829.762 494.405 798.654 524.268C784.551 537.956 770.034 552.058 755.102 566.99C704.5 617.177 651.824 674.416 599.563 732.07C592.511 739.535 585.875 747.416 578.824 754.882C522.83 817.098 451.489 888.439 422.455 942.774" stroke="#FFBF00" stroke-opacity="0.5" stroke-width="1.9896" stroke-miterlimit="10"/>
<path opacity="0.7222" d="M1390.53 -422.244C1342.42 -438.005 1272.32 -401.09 1204.72 -330.579C1193.52 -318.965 1182.32 -306.107 1171.12 -292.42C1130.06 -240.988 1094.39 -175.868 1069.5 -111.164C1059.55 -84.6184 1052.08 -59.3173 1046.27 -34.8457C1037.15 5.38727 1033.42 42.7169 1033 79.6316C1033 100.37 1032.59 121.109 1030.93 142.262C1028.02 183.325 1020.56 226.876 1000.23 273.745C991.523 293.24 981.984 312.734 971.614 331.814C949.217 373.706 925.16 411.865 899.029 444.217C872.069 477.814 844.279 507.262 814.001 537.126C800.313 551.228 785.796 565.331 771.279 579.848C721.506 630.45 669.66 687.689 617.813 744.512C610.762 751.978 604.126 759.859 597.074 767.325C541.08 828.711 469.739 899.223 439.875 951.899" stroke="#FFBF00" stroke-opacity="0.5" stroke-width="1.9475" stroke-miterlimit="10"/>
<path opacity="0.7111" d="M1395.93 -406.897C1351.13 -420.999 1284.35 -382.84 1218.82 -311.914C1208.03 -299.886 1196.84 -287.442 1186.47 -273.755C1146.23 -222.323 1110.98 -157.618 1086.09 -93.3287C1076.14 -67.198 1068.26 -41.8969 1062.45 -17.84C1052.91 21.9782 1048.35 58.893 1047.1 95.393C1046.27 115.717 1045.86 136.455 1043.78 157.194C1040.47 197.842 1032.17 240.978 1011.43 287.433C1002.72 306.927 993.182 326.007 983.228 345.086C960.83 386.564 937.603 424.723 912.302 457.49C886.171 491.086 859.211 520.535 830.177 551.228C816.904 565.331 802.802 579.433 788.699 594.365C740.171 644.967 688.739 702.206 637.307 759.03C630.256 766.495 623.62 773.961 616.569 781.427C560.574 842.399 489.233 911.251 458.54 962.268" stroke="#FFBF00" stroke-opacity="0.5" stroke-width="1.9054" stroke-miterlimit="10"/>
<path opacity="0.7" d="M1401.32 -391.136C1359.84 -403.579 1295.97 -364.175 1232.51 -292.42C1221.72 -280.391 1211.35 -267.948 1200.98 -254.26C1161.58 -202.829 1127.15 -138.539 1101.85 -74.6638C1091.9 -48.9479 1084.02 -23.6468 1077.38 -0.00470184C1067.43 38.9839 1062.03 75.4839 1060.38 111.569C1059.13 131.478 1057.89 151.802 1055.81 172.541C1051.67 212.359 1042.54 255.081 1022.22 301.12C1013.51 320.615 1003.97 339.694 994.012 358.359C972.029 399.836 949.216 437.995 924.745 470.763C899.444 504.359 873.313 534.223 845.108 564.916C832.25 579.018 818.563 593.121 804.461 608.052C756.762 659.069 706.159 715.893 655.142 772.302C648.506 779.768 641.455 787.234 634.818 794.7C578.824 855.257 507.898 922.865 475.96 971.808" stroke="#FFBF00" stroke-opacity="0.5" stroke-width="1.8633" stroke-miterlimit="10"/>
<path opacity="0.6889" d="M1406.3 -374.959C1368.14 -385.743 1307.58 -345.095 1245.78 -272.925C1235.41 -260.897 1225.04 -248.039 1215.09 -234.351C1176.93 -182.505 1142.5 -118.63 1117.2 -55.5841C1106.83 -29.8682 1098.95 -5.39655 1092.31 18.2455C1081.53 56.8194 1076.14 92.9046 1073.23 128.16C1071.57 148.069 1069.92 167.979 1067.43 188.302C1062.45 227.706 1052.91 269.598 1032.17 315.223C1023.46 334.302 1013.92 353.382 1003.97 372.047C982.398 413.109 960 451.268 936.358 484.035C911.887 517.632 887 547.91 859.21 578.604C846.767 592.706 833.495 607.223 819.807 622.155C773.353 673.172 723.58 730.41 672.563 785.99C665.926 793.456 658.875 800.922 652.239 808.388C596.659 868.53 525.318 934.479 492.551 982.178" stroke="#FFBF00" stroke-opacity="0.5" stroke-width="1.8212" stroke-miterlimit="10"/>
<path opacity="0.6778" d="M1410.86 -358.783C1375.6 -367.908 1318.78 -326.016 1258.64 -253.431C1248.68 -241.403 1238.73 -228.545 1228.77 -214.857C1191.44 -163.011 1157.43 -99.5504 1131.72 -36.9197C1121.35 -11.6185 1113.05 12.853 1106.42 36.4951C1095.22 74.6542 1088.99 109.91 1085.26 145.166C1083.19 164.66 1081.11 184.154 1078.21 204.478C1072.4 243.467 1062.45 284.944 1041.71 329.74C1033 348.819 1023.46 367.484 1013.51 386.149C991.938 427.211 970.785 465.37 947.557 498.137C923.915 532.149 899.859 562.427 872.898 593.12C860.455 607.223 847.597 621.74 834.739 636.672C789.529 688.103 740.171 744.927 689.569 800.507C682.932 807.973 675.881 815.439 669.245 822.49C613.665 882.217 542.324 946.922 508.313 992.547" stroke="#FFBF00" stroke-opacity="0.5" stroke-width="1.7791" stroke-miterlimit="10"/>
<path opacity="0.6667" d="M1415.01 -342.192C1383.07 -349.658 1329.15 -306.522 1271.49 -233.522C1261.95 -221.493 1252 -208.635 1242.46 -194.948C1205.96 -143.101 1172.36 -80.0557 1146.65 -17.8398C1136.28 7.46133 1127.98 31.5182 1120.93 54.7454C1109.32 92.4898 1102.27 127.331 1098.12 161.757C1095.63 180.836 1093.14 200.331 1089.41 220.24C1082.77 258.399 1071.99 299.461 1051.25 344.257C1042.54 362.922 1033 381.586 1023.46 400.251C1002.31 440.899 981.568 479.058 959.586 512.24C936.773 546.251 913.546 576.53 887.83 607.638C875.801 622.155 863.358 636.672 850.5 651.604C806.12 703.035 757.591 759.859 707.404 815.024C700.767 822.49 694.131 829.541 687.08 837.007C631.5 895.905 560.159 959.78 525.318 1003.33" stroke="#FFBF00" stroke-opacity="0.5" stroke-width="1.737" stroke-miterlimit="10"/>
<path opacity="0.6556" d="M1419.15 -325.601C1390.53 -331.408 1339.93 -287.028 1283.94 -213.198C1274.81 -201.17 1264.86 -187.897 1255.73 -174.209C1220.48 -122.363 1187.3 -59.3172 1161.17 2.0692C1150.8 26.9556 1142.09 51.0123 1134.62 73.8248C1122.59 111.154 1114.71 145.166 1109.73 179.177C1106.83 198.257 1103.93 216.922 1099.78 236.416C1092.31 274.16 1081.11 314.393 1060.38 358.774C1051.67 377.439 1042.13 396.103 1032.59 414.353C1011.85 455.001 991.523 492.745 970.37 525.927C948.387 559.939 925.989 590.632 901.103 621.74C889.489 636.257 877.461 650.774 865.017 665.706C821.881 717.552 773.767 774.376 723.58 828.711C716.944 836.177 710.307 843.228 703.256 850.28C647.676 908.763 576.336 970.978 540.665 1013.29" stroke="#FFBF00" stroke-opacity="0.5" stroke-width="1.6949" stroke-miterlimit="10"/>
<path opacity="0.6444" d="M1423.3 -309.011C1398 -313.158 1350.72 -267.533 1296.38 -193.289C1287.26 -180.846 1278.13 -167.988 1269.01 -154.3C1234.58 -102.454 1201.81 -39.8231 1175.68 21.1485C1165.31 45.6201 1156.19 69.6769 1148.72 92.0747C1136.28 128.989 1127.57 162.586 1121.76 195.768C1118.44 214.433 1114.71 233.097 1110.56 252.177C1102.27 289.092 1090.24 329.325 1069.5 372.876C1060.79 391.541 1051.25 409.791 1041.71 428.041C1020.97 468.688 1001.48 506.433 981.154 539.615C960 573.626 938.432 604.734 914.375 635.842C903.176 650.359 891.563 664.876 879.12 680.223C836.813 732.069 789.943 788.893 739.756 843.228C733.119 850.279 726.483 857.745 719.847 864.797C664.267 922.865 592.926 983.836 556.426 1024.07" stroke="#FFBF00" stroke-opacity="0.5" stroke-width="1.6528" stroke-miterlimit="10"/>
<path opacity="0.6333" d="M1427.45 -292.42C1405.47 -294.908 1361.09 -248.039 1308.82 -173.38C1300.11 -160.937 1290.99 -148.079 1282.28 -134.391C1248.68 -82.5446 1216.33 -20.3287 1190.2 40.2281C1179.83 64.6997 1170.7 87.927 1162.82 110.325C1149.97 146.825 1140.84 180.007 1133.79 212.774C1130.06 231.024 1125.91 249.274 1121.35 268.353C1112.22 304.853 1099.78 344.257 1079.04 387.808C1070.33 406.058 1060.79 424.308 1051.66 442.558C1031.34 482.791 1012.68 520.535 992.767 554.132C972.443 588.143 952.119 619.251 928.477 651.189C917.693 665.706 906.08 680.637 894.466 695.569C853.403 747.416 806.949 804.654 757.176 858.16C750.54 865.211 743.903 872.262 737.267 879.314C682.102 936.967 610.761 996.279 573.017 1034.85" stroke="#FFBF00" stroke-opacity="0.5" stroke-width="1.6107" stroke-miterlimit="10"/>
<path opacity="0.6222" d="M1431.18 -275.414C1412.52 -276.243 1371.45 -228.13 1321.27 -153.056C1312.97 -140.613 1304.26 -127.755 1295.55 -113.652C1263.2 -61.8058 1231.26 0.410202 1204.3 60.1375C1193.52 84.1943 1184.39 107.422 1176.1 129.405C1162.82 165.075 1152.87 197.842 1145.4 230.194C1141.26 248.444 1136.69 266.28 1131.72 284.944C1121.76 321.03 1108.9 359.603 1087.75 402.74C1079.04 420.99 1069.5 438.825 1060.38 457.075C1040.47 497.308 1022.22 535.052 1003.14 568.234C983.642 602.66 964.148 633.768 941.75 665.706C931.381 680.223 920.182 695.155 908.568 710.501C868.75 762.763 822.71 819.586 773.352 872.677C766.716 879.729 760.08 886.78 753.443 893.831C698.279 951.069 626.938 1009.14 588.364 1046.05" stroke="#FFBF00" stroke-opacity="0.5" stroke-width="1.5686" stroke-miterlimit="10"/>
<path opacity="0.6111" d="M1434.92 -258.408C1419.57 -257.579 1381.41 -208.221 1333.3 -132.732C1325.42 -120.289 1316.71 -107.016 1308.41 -93.3286C1276.89 -41.482 1245.36 20.3191 1218.4 79.6317C1207.62 103.688 1198.08 126.501 1189.78 148.069C1176.1 183.325 1165.31 215.677 1157.02 247.2C1152.46 265.035 1147.48 282.87 1142.09 301.12C1131.3 336.376 1117.61 374.95 1096.88 417.257C1088.17 435.092 1078.63 453.342 1069.5 471.177C1049.59 510.995 1032.17 548.74 1013.92 582.336C995.256 616.762 976.591 648.285 955.023 680.223C945.069 695.155 934.285 710.086 923.086 725.433C884.097 777.694 838.887 834.518 789.944 887.609C783.307 894.66 776.671 901.711 770.035 908.348C714.87 964.757 643.529 1021.58 604.125 1056.84" stroke="#FFBF00" stroke-opacity="0.5" stroke-width="1.5265" stroke-miterlimit="10"/>
<path opacity="0.6" d="M1438.23 -241.817C1426.2 -239.329 1391.36 -188.726 1344.91 -112.408C1337.44 -99.9651 1329.15 -86.6924 1320.85 -73.0048C1290.16 -20.7435 1259.05 40.2281 1232.09 99.1259C1221.31 122.768 1211.77 145.58 1203.06 166.734C1188.95 201.575 1177.34 233.098 1168.22 264.205C1163.24 281.626 1157.85 299.046 1151.63 317.296C1140.43 352.137 1125.91 389.882 1104.76 431.774C1096.05 449.609 1086.51 467.444 1077.8 485.279C1058.3 525.098 1041.3 562.427 1024.29 596.438C1006.45 630.865 988.619 662.387 967.881 694.74C958.341 709.672 947.972 724.603 936.773 739.95C899.029 792.626 854.648 849.45 805.705 901.711C799.068 908.763 792.432 915.814 785.796 922.45C730.631 978.444 659.29 1034.02 618.642 1067.21" stroke="#FFBF00" stroke-opacity="0.5" stroke-width="1.4844" stroke-miterlimit="10"/>
<path opacity="0.5889" d="M1441.97 -224.812C1432.84 -220.664 1401.73 -168.817 1356.94 -92.0842C1349.47 -79.6411 1341.59 -66.3683 1334.13 -52.6808C1304.68 -0.419445 1273.57 60.5522 1246.61 118.206C1235.82 141.433 1225.87 163.831 1216.74 184.984C1202.23 219.41 1190.2 250.518 1180.24 281.211C1174.85 298.217 1168.63 315.638 1162.41 333.473C1150.38 367.484 1135.03 405.228 1113.88 446.706C1104.76 464.126 1095.63 481.961 1086.92 499.797C1067.43 539.2 1051.67 576.944 1035.07 610.541C1018.07 644.967 1001.48 676.905 981.154 709.257C972.029 724.189 961.659 739.121 951.29 754.882C914.79 807.558 870.824 864.382 822.296 916.643C815.659 923.695 809.438 930.331 802.801 936.967C747.637 992.547 676.296 1046.88 634.818 1078.4" stroke="#FFBF00" stroke-opacity="0.5" stroke-width="1.4423" stroke-miterlimit="10"/>
<path opacity="0.5778" d="M1445.7 -208.221C1439.89 -202.414 1411.69 -149.323 1369.38 -72.1752C1362.33 -59.3173 1354.86 -46.4593 1347.4 -32.357C1318.78 19.9044 1288.5 80.4612 1261.13 137.7C1250.34 160.927 1240.39 182.91 1230.85 203.649C1215.5 237.66 1203.06 267.939 1192.27 298.217C1186.05 315.223 1179.83 331.814 1173.19 349.234C1160.34 382.831 1144.57 419.745 1123.42 460.808C1114.3 478.228 1105.17 495.649 1096.46 513.899C1077.38 553.302 1062.03 590.632 1046.27 624.643C1030.1 659.069 1014.34 691.422 995.256 723.774C986.546 738.706 976.591 754.052 966.222 769.399C930.552 822.49 887.415 879.314 839.301 930.746C832.665 937.797 826.444 944.433 819.807 951.069C764.642 1006.23 693.301 1058.91 650.995 1088.77" stroke="#FFBF00" stroke-opacity="0.5" stroke-width="1.4002" stroke-miterlimit="10"/>
<path opacity="0.5667" d="M1449.85 -191.63C1447.36 -184.164 1422.47 -129.414 1381.82 -52.2662C1375.19 -39.4083 1367.72 -26.1355 1360.67 -12.448C1332.88 39.8134 1303.02 99.9554 1275.64 156.779C1264.44 179.592 1254.49 201.575 1244.95 221.899C1229.19 255.495 1215.92 285.359 1204.3 314.808C1197.67 331.399 1191.03 347.99 1183.98 364.995C1170.29 398.177 1154.11 434.262 1132.55 474.91C1123.42 492.331 1114.3 509.751 1105.59 527.586C1086.92 566.575 1071.99 604.319 1057.06 638.331C1041.71 673.172 1026.78 705.524 1008.53 737.876C999.819 752.808 990.694 768.155 980.739 783.916C946.313 837.007 903.591 893.831 855.478 944.848C849.256 951.484 842.62 958.535 835.983 964.757C781.233 1019.51 709.478 1070.94 666.341 1098.73" stroke="#FFBF00" stroke-opacity="0.5" stroke-width="1.3581" stroke-miterlimit="10"/>
</svg>
