<svg width="400" height="200" viewBox="0 0 400 200" fill="none" xmlns="http://www.w3.org/2000/svg">
<path opacity="0.8889" d="M8.46081 -1161.35C-88.596 -1201.58 -207.221 -1184.58 -303.034 -1120.7C-319.21 -1109.92 -334.971 -1097.89 -349.488 -1084.62C-405.068 -1034.02 -446.545 -963.92 -468.528 -890.505C-477.238 -860.227 -482.215 -830.778 -483.46 -802.158C-485.948 -754.874 -479.312 -709.249 -467.284 -664.039C-460.647 -638.738 -454.426 -613.437 -449.448 -588.136C-440.323 -538.363 -438.664 -486.931 -458.159 -433.425C-466.039 -411.028 -476.409 -389.874 -488.437 -369.55C-514.983 -324.755 -548.994 -285.766 -586.738 -255.073C-626.142 -223.136 -668.034 -196.59 -710.341 -169.215C-729.835 -156.357 -749.329 -143.499 -768.409 -129.812C-834.358 -82.5276 -896.574 -24.4594 -952.153 39.0009C-959.619 47.2963 -966.67 56.0066 -974.136 64.7168C-1031.37 133.569 -1102.3 223.99 -1118.06 302.796" stroke="#FFBF00" stroke-opacity="0.5" stroke-width="2.579" stroke-miterlimit="10"/>
<path opacity="0.8778" d="M22.9776 -1153.89C-70.7611 -1192.46 -186.068 -1174.21 -280.221 -1109.92C-295.983 -1099.14 -311.329 -1087.11 -325.846 -1073.42C-380.596 -1022.82 -421.659 -953.136 -443.642 -880.136C-452.767 -850.272 -457.329 -821.238 -459.403 -792.619C-462.307 -745.749 -456.5 -700.954 -445.301 -656.158C-439.079 -631.272 -433.272 -606.386 -429.125 -581.084C-420.829 -532.141 -420 -481.124 -439.494 -427.618C-447.79 -405.635 -457.744 -384.482 -469.773 -364.158C-495.903 -319.777 -529.5 -280.789 -566.415 -249.681C-604.988 -217.743 -646.051 -190.783 -687.528 -162.993C-706.608 -150.135 -725.687 -137.277 -744.767 -123.175C-809.471 -75.4763 -871.273 -17.8228 -926.437 45.2226C-933.903 53.5181 -940.954 62.2283 -948.006 70.5238C-1005.24 138.961 -1076.17 227.723 -1092.76 305.285" stroke="#FFBF00" stroke-opacity="0.5" stroke-width="2.5369" stroke-miterlimit="10"/>
<path opacity="0.8667" d="M37.0798 -1145.59C-53.3406 -1182.5 -165.744 -1163.01 -257.824 -1098.31C-273.17 -1087.52 -288.517 -1075.49 -302.619 -1061.81C-356.125 -1011.2 -397.187 -941.937 -419.17 -869.352C-428.295 -839.903 -433.273 -810.869 -435.346 -782.664C-438.665 -736.209 -433.273 -691.829 -423.318 -647.863C-417.926 -623.391 -412.119 -598.505 -408.386 -573.619C-400.92 -525.09 -400.506 -474.903 -420 -421.812C-428.295 -399.829 -438.25 -378.675 -450.278 -358.766C-475.994 -314.386 -509.176 -275.397 -545.261 -244.289C-583.006 -211.937 -622.824 -185.391 -663.886 -157.187C-682.551 -144.329 -701.216 -131.056 -719.881 -117.369C-783.756 -69.6696 -844.727 -11.6014 -899.477 50.6145C-906.943 58.9099 -913.994 67.2054 -921.045 75.9156C-978.284 143.938 -1049.21 231.455 -1066.63 306.944" stroke="#FFBF00" stroke-opacity="0.5" stroke-width="2.4948" stroke-miterlimit="10"/>
<path opacity="0.8556" d="M50.3528 -1136.88C-37.1643 -1172.14 -145.835 -1151.4 -236.255 -1086.28C-251.602 -1075.49 -266.119 -1063.05 -280.221 -1049.78C-332.897 -998.761 -373.13 -929.908 -395.528 -858.153C-404.653 -828.704 -410.045 -800.084 -412.119 -772.295C-415.852 -726.67 -411.289 -682.704 -401.749 -639.153C-396.357 -615.096 -391.38 -590.624 -388.062 -565.738C-381.426 -517.624 -381.426 -467.851 -401.335 -415.59C-409.63 -394.022 -419.585 -372.868 -431.198 -352.959C-456.914 -308.993 -488.852 -270.005 -524.522 -238.897C-561.437 -206.545 -600.426 -179.584 -640.244 -151.38C-658.494 -138.522 -677.159 -125.249 -695.409 -111.147C-758.039 -63.0332 -818.182 -5.37976 -872.932 56.8362C-880.397 65.1316 -887.449 73.4271 -894.5 81.7225C-951.738 149.331 -1022.66 235.603 -1040.91 309.433" stroke="#FFBF00" stroke-opacity="0.5" stroke-width="2.4527" stroke-miterlimit="10"/>
<path opacity="0.8444" d="M62.7961 -1126.93C-21.4028 -1160.52 -126.755 -1138.54 -215.102 -1072.59C-230.034 -1061.39 -244.551 -1049.36 -258.238 -1036.09C-310.085 -985.073 -349.903 -916.636 -372.715 -845.295C-381.84 -816.261 -387.232 -787.641 -389.721 -760.266C-393.869 -715.056 -390.136 -671.505 -381.426 -628.368C-376.863 -604.312 -371.886 -580.255 -368.982 -555.783C-363.176 -508.499 -364.005 -459.141 -383.499 -407.295C-391.795 -385.726 -401.749 -364.988 -413.363 -345.079C-438.664 -301.113 -470.187 -262.124 -505.028 -231.016C-541.113 -198.664 -579.272 -171.289 -618.261 -143.084C-636.096 -130.226 -654.346 -116.954 -672.181 -102.851C-733.982 -54.7377 -793.295 2.91587 -847.63 64.717C-855.096 73.0125 -862.147 81.3079 -869.198 89.6034C-926.437 156.382 -997.363 241.41 -1016.44 313.581" stroke="#FFBF00" stroke-opacity="0.5" stroke-width="2.4106" stroke-miterlimit="10"/>
<path opacity="0.8333" d="M74.4096 -1116.56C-6.47113 -1148.49 -108.92 -1125.27 -195.193 -1058.9C-209.71 -1047.7 -223.812 -1035.68 -237.5 -1021.99C-288.102 -970.971 -327.92 -902.948 -350.733 -832.022C-359.858 -802.988 -365.665 -775.198 -368.568 -747.823C-373.13 -703.027 -370.227 -660.306 -362.346 -617.584C-358.199 -593.942 -353.636 -570.3 -351.147 -545.829C-346.17 -498.959 -347.414 -450.431 -367.324 -398.584C-375.619 -377.016 -385.574 -356.692 -397.187 -336.783C-422.488 -293.232 -453.182 -254.243 -487.193 -222.721C-522.449 -190.368 -559.778 -162.993 -597.937 -134.374C-615.358 -121.101 -633.193 -107.828 -651.028 -93.7262C-711.585 -45.1977 -770.483 12.4557 -824.818 73.4273C-831.869 81.7228 -839.335 90.0183 -846.386 97.899C-903.21 164.263 -974.136 248.047 -994.46 318.143" stroke="#FFBF00" stroke-opacity="0.5" stroke-width="2.3685" stroke-miterlimit="10"/>
<path opacity="0.8222" d="M85.1936 -1105.77C7.63105 -1136.05 -91.4997 -1111.16 -176.113 -1044.8C-190.216 -1033.6 -204.318 -1021.16 -217.176 -1007.89C-266.949 -956.869 -306.352 -888.846 -329.165 -818.749C-338.29 -790.13 -344.511 -762.34 -347.415 -735.38C-352.392 -690.999 -349.903 -648.692 -343.267 -606.8C-339.534 -583.573 -335.801 -559.931 -333.312 -535.874C-329.165 -489.834 -331.238 -441.306 -350.733 -390.289C-359.028 -369.135 -368.983 -348.397 -380.596 -328.902C-405.483 -285.351 -435.761 -246.777 -468.528 -215.255C-502.954 -182.488 -539.04 -155.113 -576.784 -126.493C-593.79 -113.221 -611.21 -99.9479 -628.63 -85.8456C-687.943 -37.3172 -746.426 20.3363 -800.346 81.3079C-807.398 89.6034 -814.863 97.484 -821.5 105.78C-878.324 171.728 -949.25 253.853 -970.818 322.706" stroke="#FFBF00" stroke-opacity="0.5" stroke-width="2.3264" stroke-miterlimit="10"/>
<path opacity="0.8111" d="M95.5631 -1094.16C21.3188 -1122.78 -74.4937 -1096.65 -157.448 -1029.87C-171.551 -1018.67 -184.823 -1006.23 -197.681 -992.954C-246.625 -941.937 -285.198 -874.329 -308.426 -804.647C-317.965 -776.442 -323.772 -748.653 -327.09 -721.692C-332.483 -677.726 -330.823 -636.249 -324.602 -594.772C-321.284 -571.545 -317.965 -548.732 -316.306 -525.09C-312.573 -479.465 -315.477 -431.766 -335.386 -381.164C-343.681 -360.01 -353.636 -339.687 -364.835 -320.192C-389.306 -276.641 -418.755 -238.067 -451.108 -206.544C-484.704 -173.777 -519.96 -145.988 -556.46 -117.368C-573.051 -104.096 -590.471 -90.408 -607.477 -76.3057C-665.96 -27.3625 -723.198 29.8761 -777.119 90.433C-784.17 98.3136 -791.221 106.609 -798.272 114.905C-855.096 180.439 -926.022 261.319 -948.42 328.098" stroke="#FFBF00" stroke-opacity="0.5" stroke-width="2.2843" stroke-miterlimit="10"/>
<path opacity="0.8" d="M105.103 -1082.13C34.1766 -1109.09 -58.7325 -1081.72 -139.198 -1014.11C-152.886 -1002.91 -166.159 -990.465 -178.602 -976.777C-226.301 -925.76 -264.875 -858.567 -288.102 -789.3C-297.642 -761.096 -303.863 -733.721 -307.596 -707.175C-313.818 -663.624 -312.573 -622.562 -307.181 -581.499C-304.278 -558.686 -301.375 -535.874 -300.13 -512.647C-297.227 -467.436 -300.545 -420.567 -320.454 -369.965C-328.75 -349.226 -338.704 -328.902 -349.903 -308.993C-374.375 -265.857 -402.994 -227.283 -434.517 -195.345C-467.284 -162.578 -501.71 -134.374 -537.38 -105.34C-553.971 -92.0669 -570.562 -78.3795 -587.153 -64.2772C-644.392 -15.334 -701.216 42.3194 -754.721 102.461C-761.772 110.342 -768.824 118.638 -775.875 126.518C-832.699 191.638 -903.625 271.274 -926.852 335.979" stroke="#FFBF00" stroke-opacity="0.5" stroke-width="2.2422" stroke-miterlimit="10"/>
<path opacity="0.7889" d="M114.228 -1069.69C46.6197 -1094.99 -42.9713 -1066.37 -121.778 -998.346C-135.051 -986.732 -147.909 -974.704 -160.352 -961.016C-207.221 -909.999 -245.38 -842.806 -269.023 -774.368C-278.562 -746.579 -284.784 -719.618 -288.932 -693.073C-295.568 -649.937 -295.153 -609.289 -290.591 -569.056C-288.102 -546.658 -285.613 -523.846 -284.784 -501.033C-282.71 -456.652 -286.858 -409.783 -306.767 -360.01C-315.062 -339.272 -325.017 -319.363 -336.216 -299.454C-360.272 -256.317 -388.477 -217.743 -419.17 -186.221C-451.108 -153.454 -484.704 -125.249 -519.545 -95.8001C-535.721 -82.5274 -551.898 -68.8399 -568.488 -54.3228C-624.898 -4.96488 -680.892 52.2739 -733.983 112.001C-741.034 119.882 -748.085 127.762 -755.136 136.058C-811.96 200.348 -882.886 278.74 -906.943 342.2" stroke="#FFBF00" stroke-opacity="0.5" stroke-width="2.2001" stroke-miterlimit="10"/>
<path opacity="0.7778" d="M122.523 -1056.41C58.2334 -1080.06 -28.0395 -1050.19 -105.187 -981.755C-118.045 -970.141 -130.903 -957.698 -142.931 -944.425C-188.971 -893.408 -226.301 -826.63 -250.358 -758.607C-259.897 -730.817 -266.534 -704.272 -270.682 -678.141C-277.733 -635.834 -277.733 -595.601 -274 -555.783C-271.926 -533.8 -269.852 -511.402 -269.437 -488.59C-268.193 -444.624 -272.755 -398.584 -292.664 -349.226C-300.96 -328.902 -310.914 -308.578 -321.699 -289.084C-345.341 -246.363 -373.13 -207.789 -402.994 -175.851C-434.102 -142.669 -466.454 -114.465 -500.88 -85.0158C-516.642 -71.3283 -532.403 -57.6408 -548.579 -43.5385C-603.744 5.81946 -658.909 63.4729 -712 122.371C-719.051 130.251 -726.102 138.132 -733.153 146.013C-789.562 209.888 -860.903 287.035 -885.79 348.422" stroke="#FFBF00" stroke-opacity="0.5" stroke-width="2.158" stroke-miterlimit="10"/>
<path opacity="0.7667" d="M130.404 -1042.73C69.0175 -1064.71 -13.9371 -1033.6 -89.011 -964.749C-101.454 -953.136 -113.897 -940.692 -125.926 -927.005C-170.721 -875.573 -208.051 -809.624 -232.108 -742.016C-241.647 -714.641 -248.699 -688.096 -253.261 -662.38C-260.727 -620.488 -261.557 -580.67 -258.653 -541.681C-256.994 -519.698 -255.75 -497.715 -255.335 -475.317C-254.92 -431.766 -259.897 -386.141 -280.221 -337.613C-288.517 -317.289 -298.471 -297.38 -309.255 -277.885C-332.897 -235.164 -359.443 -197.005 -388.892 -164.652C-419.17 -131.471 -450.693 -102.851 -483.875 -73.4024C-499.221 -59.7149 -514.983 -46.0274 -530.744 -31.5103C-584.665 18.2624 -639.415 75.501 -692.091 134.399C-699.142 142.279 -706.193 150.16 -712.829 158.041C-769.239 221.501 -840.165 296.99 -866.295 356.717" stroke="#FFBF00" stroke-opacity="0.5" stroke-width="2.1159" stroke-miterlimit="10"/>
<path opacity="0.7556" d="M137.455 -1028.62C79.3863 -1048.95 -0.249987 -1016.6 -73.25 -947.329C-85.6932 -935.715 -97.7216 -923.272 -109.335 -909.584C-153.301 -858.153 -190.216 -792.204 -214.273 -725.425C-224.227 -698.465 -230.864 -671.92 -235.841 -646.619C-243.722 -605.141 -245.381 -566.153 -243.307 -527.164C-242.063 -505.596 -241.233 -484.028 -241.233 -461.63C-241.648 -418.908 -247.455 -373.698 -267.364 -325.17C-275.659 -304.846 -285.614 -285.351 -296.398 -265.857C-319.625 -223.55 -345.756 -184.976 -374.375 -153.039C-403.824 -119.857 -434.517 -90.8231 -466.869 -61.3742C-481.801 -47.6867 -497.148 -33.5844 -512.494 -19.0673C-565.585 30.7054 -619.506 87.9441 -671.767 146.427C-678.818 154.308 -685.869 162.188 -692.506 169.654C-748.915 232.7 -819.841 306.944 -847.216 365.012" stroke="#FFBF00" stroke-opacity="0.5" stroke-width="2.0738" stroke-miterlimit="10"/>
<path opacity="0.7444" d="M144.092 -1014.11C89.3415 -1032.77 13.0234 -999.175 -58.3176 -929.079C-70.346 -917.465 -81.9596 -905.022 -93.5733 -891.334C-136.71 -839.902 -173.21 -774.368 -197.266 -708.005C-207.221 -681.044 -214.272 -654.914 -219.249 -630.027C-227.545 -588.965 -230.034 -550.391 -228.374 -512.232C-227.545 -491.078 -227.13 -469.51 -227.545 -447.527C-228.789 -405.221 -235.011 -360.84 -255.335 -312.726C-263.63 -292.817 -273.585 -272.908 -283.954 -253.828C-306.766 -211.522 -332.482 -173.362 -359.857 -141.01C-388.477 -107.828 -418.34 -78.7944 -449.863 -48.9307C-464.38 -35.2432 -479.312 -21.1409 -494.659 -6.62384C-546.505 43.5637 -600.011 100.802 -652.272 158.456C-659.323 166.336 -665.96 173.802 -673.011 181.683C-729.005 244.314 -800.346 316.899 -828.551 373.308" stroke="#FFBF00" stroke-opacity="0.5" stroke-width="2.0317" stroke-miterlimit="10"/>
<path opacity="0.7333" d="M150.728 -999.59C99.2958 -1016.6 25.881 -981.34 -43.3861 -911.244C-54.9997 -899.63 -66.6134 -886.772 -77.8123 -873.499C-120.119 -822.067 -155.79 -756.948 -180.676 -691.414C-190.63 -664.868 -198.096 -639.153 -203.488 -614.266C-212.199 -573.618 -215.102 -535.874 -214.687 -498.13C-214.273 -476.976 -214.272 -456.238 -215.517 -434.67C-217.591 -393.192 -224.642 -348.812 -244.966 -301.527C-253.261 -281.618 -263.216 -262.124 -273.585 -243.044C-296.397 -201.152 -321.284 -162.578 -347.829 -130.226C-375.619 -97.0444 -404.238 -67.5956 -435.346 -37.7319C-449.449 -24.0444 -463.966 -9.94219 -478.898 4.98964C-529.5 55.1772 -582.176 112.416 -634.437 170.069C-641.489 177.535 -648.125 185.416 -655.176 192.882C-711.17 255.098 -782.511 326.439 -811.545 380.774" stroke="#FFBF00" stroke-opacity="0.5" stroke-width="1.9896" stroke-miterlimit="10"/>
<path opacity="0.7222" d="M156.535 -984.244C108.421 -1000.01 38.3247 -963.09 -29.2833 -892.579C-40.4821 -880.965 -51.681 -868.107 -62.8799 -854.42C-103.942 -802.988 -139.613 -737.869 -164.499 -673.164C-174.454 -646.619 -181.92 -621.317 -187.727 -596.846C-196.852 -556.613 -200.584 -519.283 -200.999 -482.368C-200.999 -461.63 -201.414 -440.891 -203.073 -419.738C-205.976 -378.675 -213.443 -335.124 -233.766 -288.255C-242.477 -268.76 -252.016 -249.266 -262.386 -230.187C-284.783 -188.295 -308.84 -150.135 -334.971 -117.783C-361.931 -84.1865 -389.721 -54.7377 -419.999 -24.8741C-433.687 -10.7718 -448.204 3.33044 -462.721 17.8475C-512.494 68.4498 -564.34 125.688 -616.187 182.512C-623.238 189.978 -629.874 197.859 -636.926 205.325C-692.92 266.711 -764.261 337.223 -794.125 389.899" stroke="#FFBF00" stroke-opacity="0.5" stroke-width="1.9475" stroke-miterlimit="10"/>
<path opacity="0.7111" d="M161.927 -968.897C117.131 -982.999 50.3528 -944.84 -15.1813 -873.914C-25.9654 -861.886 -37.1642 -849.443 -47.5336 -835.755C-87.7665 -784.323 -123.022 -719.619 -147.909 -655.329C-157.863 -629.198 -165.744 -603.897 -171.551 -579.84C-181.091 -540.022 -185.653 -503.107 -186.897 -466.607C-187.727 -446.283 -188.142 -425.545 -190.216 -404.806C-193.534 -364.158 -201.829 -321.022 -222.568 -274.567C-231.278 -255.073 -240.818 -235.993 -250.772 -216.914C-273.17 -175.437 -296.397 -137.278 -321.698 -104.51C-347.829 -70.9139 -374.789 -41.465 -403.823 -10.7718C-417.096 3.33048 -431.198 17.4327 -445.301 32.3646C-493.829 82.9668 -545.261 140.206 -596.693 197.029C-603.744 204.495 -610.38 211.961 -617.431 219.427C-673.426 280.399 -744.767 349.251 -775.46 400.268" stroke="#FFBF00" stroke-opacity="0.5" stroke-width="1.9054" stroke-miterlimit="10"/>
<path opacity="0.7" d="M167.319 -953.136C125.841 -965.579 61.9663 -926.175 -1.49391 -854.42C-12.278 -842.391 -22.6472 -829.948 -33.0165 -816.26C-72.42 -764.829 -106.846 -700.539 -132.147 -636.664C-142.102 -610.948 -149.983 -585.647 -156.619 -562.005C-166.573 -523.016 -171.966 -486.516 -173.625 -450.431C-174.869 -430.522 -176.113 -410.198 -178.187 -389.459C-182.335 -349.641 -191.46 -306.919 -211.784 -260.88C-220.494 -241.385 -230.034 -222.306 -239.988 -203.641C-261.971 -162.164 -284.784 -124.005 -309.255 -91.2375C-334.556 -57.6409 -360.687 -27.7773 -388.892 2.91587C-401.75 17.0181 -415.437 31.1205 -429.539 46.0523C-477.238 97.0694 -527.841 153.893 -578.858 210.302C-585.494 217.768 -592.545 225.234 -599.182 232.7C-655.176 293.257 -726.102 360.865 -758.04 409.808" stroke="#FFBF00" stroke-opacity="0.5" stroke-width="1.8633" stroke-miterlimit="10"/>
<path opacity="0.6889" d="M172.296 -936.959C134.137 -947.743 73.5802 -907.096 11.779 -834.925C1.4097 -822.897 -8.95959 -810.039 -18.9141 -796.351C-57.0732 -744.505 -91.4994 -680.63 -116.801 -617.584C-127.17 -591.868 -135.051 -567.397 -141.687 -543.755C-152.471 -505.181 -157.863 -469.096 -160.767 -433.84C-162.426 -413.931 -164.085 -394.022 -166.573 -373.698C-171.551 -334.294 -181.09 -292.402 -201.829 -246.777C-210.539 -227.698 -220.079 -208.618 -230.033 -189.953C-251.602 -148.891 -273.999 -110.732 -297.642 -77.9649C-322.113 -44.3683 -347 -14.0898 -374.789 16.6034C-387.233 30.7057 -400.505 45.2227 -414.193 60.1546C-460.647 111.172 -510.42 168.41 -561.437 223.99C-568.073 231.456 -575.125 238.922 -581.761 246.387C-637.341 306.53 -708.681 372.478 -741.448 420.177" stroke="#FFBF00" stroke-opacity="0.5" stroke-width="1.8212" stroke-miterlimit="10"/>
<path opacity="0.6778" d="M176.859 -920.783C141.603 -929.908 84.7792 -888.016 24.6371 -815.431C14.6826 -803.403 4.72795 -790.545 -5.22659 -776.857C-42.5561 -725.01 -76.5675 -661.55 -102.283 -598.92C-112.653 -573.618 -120.948 -549.147 -127.585 -525.505C-138.783 -487.346 -145.005 -452.09 -148.738 -416.834C-150.812 -397.34 -152.886 -377.846 -155.789 -357.522C-161.596 -318.533 -171.551 -277.056 -192.289 -232.26C-200.999 -213.181 -210.539 -194.516 -220.494 -175.851C-242.062 -134.789 -263.215 -96.6295 -286.443 -63.8624C-310.085 -29.8511 -334.141 0.427332 -361.102 31.1205C-373.545 45.2228 -386.403 59.7399 -399.261 74.6717C-444.471 126.104 -493.829 182.927 -544.431 238.507C-551.068 245.973 -558.119 253.439 -564.755 260.49C-620.335 320.217 -691.676 384.922 -725.687 430.547" stroke="#FFBF00" stroke-opacity="0.5" stroke-width="1.7791" stroke-miterlimit="10"/>
<path opacity="0.6667" d="M181.006 -904.192C149.069 -911.658 95.1482 -868.522 37.4947 -795.522C27.955 -783.494 18.0004 -770.636 8.46065 -756.948C-28.0394 -705.101 -61.636 -642.056 -87.3519 -579.84C-97.7212 -554.539 -106.017 -530.482 -113.068 -507.255C-124.682 -469.51 -131.733 -434.67 -135.88 -400.243C-138.369 -381.164 -140.858 -361.67 -144.591 -341.76C-151.227 -303.601 -162.011 -262.539 -182.75 -217.743C-191.46 -199.079 -201 -180.414 -210.539 -161.749C-231.693 -121.101 -252.432 -82.9421 -274.414 -49.7603C-297.227 -15.7489 -320.454 14.5295 -346.17 45.6374C-358.199 60.1545 -370.642 74.6716 -383.5 89.6034C-427.88 141.035 -476.409 197.859 -526.596 253.024C-533.233 260.49 -539.869 267.541 -546.92 275.007C-602.5 333.904 -673.841 397.779 -708.682 441.331" stroke="#FFBF00" stroke-opacity="0.5" stroke-width="1.737" stroke-miterlimit="10"/>
<path opacity="0.6556" d="M185.154 -887.602C156.535 -893.408 105.932 -849.028 49.938 -775.198C40.813 -763.17 30.8584 -749.897 21.7334 -736.209C-13.5223 -684.363 -46.7041 -621.317 -72.8348 -559.931C-83.2041 -535.045 -91.9143 -510.988 -99.3802 -488.175C-111.409 -450.846 -119.289 -416.834 -124.267 -382.823C-127.17 -363.743 -130.073 -345.079 -134.221 -325.584C-141.687 -287.84 -152.886 -247.607 -173.625 -203.226C-182.335 -184.562 -191.875 -165.897 -201.414 -147.647C-222.153 -106.999 -242.477 -69.2547 -263.63 -36.0729C-285.613 -2.0615 -308.011 28.6317 -332.897 59.7397C-344.511 74.2567 -356.539 88.7738 -368.983 103.706C-412.119 155.552 -460.233 212.376 -510.42 266.711C-517.056 274.177 -523.693 281.228 -530.744 288.279C-586.324 346.762 -657.664 408.978 -693.335 451.285" stroke="#FFBF00" stroke-opacity="0.5" stroke-width="1.6949" stroke-miterlimit="10"/>
<path opacity="0.6444" d="M189.301 -871.011C164 -875.158 116.716 -829.533 62.3811 -755.289C53.2561 -742.846 44.131 -729.988 35.006 -716.3C0.579882 -664.454 -32.1872 -601.823 -58.3179 -540.851C-68.6872 -516.38 -77.8122 -492.323 -85.2781 -469.925C-97.7213 -433.01 -106.432 -399.414 -112.238 -366.232C-115.557 -347.567 -119.29 -328.902 -123.437 -309.823C-131.733 -272.908 -143.761 -232.675 -164.5 -189.124C-173.21 -170.459 -182.75 -152.209 -192.29 -133.959C-213.028 -93.3115 -232.522 -55.5671 -252.846 -22.3853C-274 11.6261 -295.568 42.734 -319.625 73.8419C-330.824 88.359 -342.437 102.876 -354.88 118.223C-397.187 170.069 -444.057 226.893 -494.244 281.228C-500.881 288.28 -507.517 295.746 -514.153 302.797C-569.733 360.865 -641.074 421.836 -677.574 462.069" stroke="#FFBF00" stroke-opacity="0.5" stroke-width="1.6528" stroke-miterlimit="10"/>
<path opacity="0.6333" d="M193.449 -854.42C171.466 -856.908 127.086 -810.039 74.8244 -735.38C66.1142 -722.937 56.9891 -710.079 48.2788 -696.391C14.6822 -644.545 -17.67 -582.329 -43.8007 -521.772C-54.17 -497.3 -63.295 -474.073 -71.1757 -451.675C-84.0337 -415.175 -93.1587 -381.993 -100.21 -349.226C-103.943 -330.976 -108.09 -312.726 -112.653 -293.647C-121.778 -257.147 -134.221 -217.743 -154.96 -174.192C-163.67 -155.942 -173.21 -137.692 -182.335 -119.442C-202.659 -79.2093 -221.323 -41.4649 -241.233 -7.86827C-261.556 26.1431 -281.88 57.251 -305.522 89.1886C-316.306 103.706 -327.92 118.637 -339.534 133.569C-380.596 185.416 -427.051 242.654 -476.824 296.16C-483.46 303.211 -490.096 310.262 -496.733 317.314C-551.897 374.967 -623.238 434.279 -660.983 472.853" stroke="#FFBF00" stroke-opacity="0.5" stroke-width="1.6107" stroke-miterlimit="10"/>
<path opacity="0.6222" d="M197.182 -837.414C178.518 -838.243 137.455 -790.13 87.2676 -715.056C78.9721 -702.613 70.2619 -689.755 61.5516 -675.652C29.1994 -623.806 -2.73815 -561.59 -29.6984 -501.863C-40.4825 -477.806 -49.6074 -454.579 -57.9029 -432.596C-71.1756 -396.925 -81.1303 -364.158 -88.5962 -331.806C-92.7439 -313.556 -97.3063 -295.721 -102.284 -277.056C-112.238 -240.971 -125.096 -202.397 -146.25 -159.26C-154.96 -141.01 -164.5 -123.175 -173.625 -104.925C-193.534 -64.6922 -211.784 -26.9478 -230.863 6.23404C-250.358 40.6602 -269.852 71.7681 -292.25 103.706C-302.619 118.223 -313.818 133.154 -325.431 148.501C-365.25 200.762 -411.289 257.586 -460.647 310.677C-467.284 317.728 -473.92 324.78 -480.556 331.831C-535.721 389.069 -607.062 447.137 -645.636 484.052" stroke="#FFBF00" stroke-opacity="0.5" stroke-width="1.5686" stroke-miterlimit="10"/>
<path opacity="0.6111" d="M200.916 -820.408C185.569 -819.579 147.41 -770.221 99.2962 -694.732C91.4155 -682.289 82.7052 -669.016 74.4098 -655.329C42.8871 -603.482 11.3643 -541.681 -15.596 -482.368C-26.3801 -458.312 -35.9198 -435.499 -44.2153 -413.931C-57.9028 -378.675 -68.6868 -346.323 -76.9823 -314.8C-81.5448 -296.965 -86.5221 -279.13 -91.9141 -260.88C-102.698 -225.624 -116.386 -187.05 -137.124 -144.743C-145.835 -126.908 -155.374 -108.658 -164.499 -90.8227C-184.408 -51.0045 -201.829 -13.2603 -220.079 20.3363C-238.744 54.7625 -257.409 86.2852 -278.977 118.223C-288.931 133.155 -299.715 148.086 -310.914 163.433C-349.903 215.694 -395.113 272.518 -444.056 325.609C-450.693 332.66 -457.329 339.711 -463.965 346.348C-519.13 402.757 -590.471 459.581 -629.875 494.836" stroke="#FFBF00" stroke-opacity="0.5" stroke-width="1.5265" stroke-miterlimit="10"/>
<path opacity="0.6" d="M204.233 -803.817C192.205 -801.329 157.364 -750.726 110.909 -674.408C103.443 -661.965 95.148 -648.692 86.8525 -635.005C56.1593 -582.743 25.0514 -521.772 -1.90884 -462.874C-12.6929 -439.232 -22.2327 -416.42 -30.9429 -395.266C-45.0452 -360.425 -56.659 -328.902 -65.784 -297.795C-70.7612 -280.374 -76.1533 -262.954 -82.3749 -244.704C-93.5737 -209.863 -108.091 -172.118 -129.244 -130.226C-137.954 -112.391 -147.494 -94.5558 -156.204 -76.7206C-175.699 -36.9024 -192.704 0.427125 -209.71 34.4385C-227.545 68.8646 -245.381 100.387 -266.119 132.74C-275.659 147.672 -286.028 162.603 -297.227 177.95C-334.971 230.626 -379.352 287.45 -428.295 339.711C-434.932 346.763 -441.568 353.814 -448.204 360.45C-503.369 416.444 -574.71 472.024 -615.358 505.206" stroke="#FFBF00" stroke-opacity="0.5" stroke-width="1.4844" stroke-miterlimit="10"/>
<path opacity="0.5889" d="M207.966 -786.812C198.841 -782.664 167.733 -730.817 122.938 -654.084C115.472 -641.641 107.591 -628.369 100.125 -614.681C70.6765 -562.42 39.5686 -501.448 12.6084 -443.795C1.82427 -420.567 -8.13032 -398.17 -17.2553 -377.016C-31.7724 -342.59 -43.8007 -311.482 -53.7553 -280.789C-59.1473 -263.783 -65.369 -246.363 -71.5906 -228.527C-83.619 -194.516 -98.9655 -156.772 -120.119 -115.295C-129.244 -97.8741 -138.369 -80.0388 -147.079 -62.2036C-166.573 -22.8001 -182.335 14.9441 -198.926 48.5407C-215.931 82.9669 -232.522 114.904 -252.846 147.257C-261.971 162.189 -272.341 177.12 -282.71 192.882C-319.21 245.558 -363.176 302.382 -411.704 354.643C-418.341 361.694 -424.562 368.331 -431.199 374.967C-486.363 430.547 -557.704 484.882 -599.182 516.405" stroke="#FFBF00" stroke-opacity="0.5" stroke-width="1.4423" stroke-miterlimit="10"/>
<path opacity="0.5778" d="M211.699 -770.221C205.893 -764.414 177.688 -711.323 135.381 -634.175C128.33 -621.317 120.864 -608.459 113.398 -594.357C84.7789 -542.096 54.5005 -481.539 27.1255 -424.3C16.3414 -401.073 6.38679 -379.09 -3.15299 -358.351C-18.4996 -324.34 -30.9427 -294.062 -41.7268 -263.783C-47.9484 -246.778 -54.17 -230.187 -60.8064 -212.766C-73.6643 -179.17 -89.4257 -142.255 -110.579 -101.192C-119.704 -83.7717 -128.829 -66.3513 -137.539 -48.1013C-156.619 -8.69786 -171.966 28.6317 -187.727 62.6431C-203.903 97.0693 -219.664 129.422 -238.744 161.774C-247.454 176.706 -257.409 192.052 -267.778 207.399C-303.448 260.49 -346.585 317.314 -394.699 368.745C-401.335 375.797 -407.556 382.433 -414.193 389.069C-469.358 444.234 -540.699 496.91 -583.005 526.774" stroke="#FFBF00" stroke-opacity="0.5" stroke-width="1.4002" stroke-miterlimit="10"/>
<path opacity="0.5667" d="M215.847 -753.63C213.359 -746.164 188.472 -691.414 147.824 -614.266C141.188 -601.408 133.722 -588.135 126.671 -574.448C98.8814 -522.187 69.0177 -462.045 41.6427 -405.221C30.4439 -382.408 20.4892 -360.425 10.9494 -340.101C-4.81194 -306.505 -18.0846 -276.641 -29.6983 -247.192C-36.3346 -230.601 -42.971 -214.01 -50.0221 -197.005C-63.7096 -163.823 -79.8857 -127.738 -101.454 -87.0899C-110.579 -69.6694 -119.704 -52.249 -128.414 -34.4138C-147.079 4.57485 -162.011 42.3192 -176.943 76.3306C-192.289 111.172 -207.221 143.524 -225.471 175.876C-234.181 190.808 -243.306 206.155 -253.261 221.916C-287.687 275.007 -330.409 331.831 -378.522 382.848C-384.744 389.484 -391.38 396.535 -398.017 402.757C-452.767 457.507 -524.522 508.939 -567.659 536.728" stroke="#FFBF00" stroke-opacity="0.5" stroke-width="1.3581" stroke-miterlimit="10"/>
<path opacity="0.5556" d="M219.58 -737.454C220.409 -728.329 198.841 -672.334 159.853 -594.357C153.631 -581.499 146.58 -568.226 139.529 -554.539C112.568 -502.277 83.1196 -442.135 55.3298 -386.141C44.1309 -363.328 33.7616 -341.76 23.807 -321.851C7.63088 -288.669 -6.47132 -259.22 -18.4997 -230.601C-25.5509 -214.425 -32.6021 -198.249 -40.068 -181.243C-54.585 -148.891 -71.5908 -112.806 -92.7442 -72.9875C-101.869 -55.9818 -110.994 -38.5613 -119.29 -20.726C-137.954 18.2626 -152.057 55.5922 -166.159 89.6036C-180.676 124.444 -194.778 156.797 -212.199 189.564C-220.494 204.91 -229.204 220.257 -239.159 235.604C-272.756 289.109 -314.233 345.519 -362.347 396.536C-368.568 403.172 -375.204 409.808 -381.841 416.445C-436.591 470.365 -507.932 520.553 -552.312 547.098" stroke="#FFBF00" stroke-opacity="0.5" stroke-width="1.316" stroke-miterlimit="10"/>
<path opacity="0.5444" d="M223.313 -721.278C227.461 -710.493 208.796 -653.255 171.881 -574.863C165.659 -562.005 159.023 -548.732 152.387 -534.63C126.671 -482.368 97.6367 -422.641 69.4321 -367.062C58.2333 -344.664 47.864 -323.51 37.4947 -303.187C20.9038 -270.834 5.97191 -241.8 -6.88605 -213.181C-14.352 -197.005 -21.8179 -181.243 -29.6986 -164.652C-45.0452 -132.715 -62.4656 -97.4591 -84.0338 -57.6409C-93.1588 -40.6352 -102.284 -23.6295 -110.579 -5.79429C-128.829 32.7796 -142.517 70.1091 -155.789 104.535C-169.477 139.376 -182.335 172.143 -199.341 205.325C-207.221 220.672 -215.932 236.018 -225.057 251.78C-257.409 305.285 -298.471 362.109 -346.17 412.297C-352.392 418.933 -359.028 425.569 -365.665 432.206C-420.415 485.711 -491.756 534.655 -536.966 559.126" stroke="#FFBF00" stroke-opacity="0.5" stroke-width="1.2739" stroke-miterlimit="10"/>
<path opacity="0.5333" d="M227.046 -705.102C234.512 -692.658 219.165 -634.175 184.324 -555.369C178.517 -542.511 172.296 -529.238 165.66 -515.136C140.773 -462.874 112.154 -403.562 83.9492 -348.397C72.7503 -326.414 61.9663 -305.261 51.597 -285.351C34.5913 -253.414 19.2446 -224.795 5.14237 -197.005C-2.73831 -181.243 -10.619 -165.482 -19.3292 -149.306C-35.5053 -117.783 -53.7553 -83.3571 -74.9087 -43.9537C-84.0337 -27.3628 -93.1587 -9.94233 -101.454 7.47813C-119.289 46.052 -132.147 83.3816 -145.005 117.808C-157.863 152.649 -169.892 185.83 -186.068 219.012C-193.534 234.359 -201.829 249.706 -210.954 265.467C-242.062 319.387 -282.71 375.796 -329.994 425.569C-336.216 432.206 -342.852 438.842 -349.074 445.063C-403.824 498.154 -475.165 545.853 -521.619 568.251" stroke="#FFBF00" stroke-opacity="0.5" stroke-width="1.2318" stroke-miterlimit="10"/>
<path opacity="0.5222" d="M230.364 -689.755C241.148 -675.652 228.705 -615.925 195.938 -536.703C190.546 -523.846 184.324 -510.158 178.103 -496.471C154.046 -444.209 125.841 -384.897 97.6369 -330.561C86.438 -308.578 75.239 -287.84 64.8697 -268.345C47.4493 -236.823 31.2732 -209.033 16.3414 -181.658C8.04592 -166.311 -0.664358 -150.965 -9.37459 -134.789C-26.3803 -104.095 -45.045 -69.6692 -66.6132 -31.0953C-75.7382 -14.5044 -84.8633 2.5012 -92.744 19.9217C-110.579 58.0808 -122.608 95.4103 -134.221 129.836C-146.25 165.092 -157.448 197.859 -172.38 231.456C-179.431 246.802 -187.312 262.564 -196.022 278.325C-226.301 332.246 -266.119 388.655 -312.988 438.427C-319.21 445.064 -325.431 451.286 -332.068 457.922C-386.818 510.598 -458.159 556.638 -505.443 577.791" stroke="#FFBF00" stroke-opacity="0.5" stroke-width="1.1897" stroke-miterlimit="10"/>
<path opacity="0.5111" d="M234.097 -674.408C248.199 -658.647 239.074 -597.675 207.966 -518.039C202.989 -505.181 197.182 -491.493 190.961 -477.391C168.148 -424.715 139.944 -366.232 111.739 -312.311C100.54 -290.743 89.3415 -270.005 78.1426 -250.925C60.3074 -219.817 43.3017 -192.442 27.9551 -165.897C19.2448 -150.965 10.1198 -135.618 0.994831 -119.857C-16.4256 -89.5784 -35.92 -55.9819 -57.4882 -17.408C-66.6132 -0.817129 -75.7381 15.7738 -83.6188 33.1943C-101.039 71.3534 -112.653 108.683 -123.437 143.109C-134.636 178.365 -145.005 211.547 -159.108 245.143C-165.744 260.49 -173.21 276.251 -181.92 292.013C-210.954 346.348 -249.943 402.757 -296.812 451.7C-303.034 458.336 -309.255 464.558 -315.892 470.78C-370.227 523.041 -441.983 567.836 -490.096 586.916" stroke="#FFBF00" stroke-opacity="0.5" stroke-width="1.1476" stroke-miterlimit="10"/>
<path opacity="0.5" d="M237.415 -659.476C254.421 -642.056 248.614 -579.84 219.58 -499.374C215.018 -486.101 209.211 -472.829 203.404 -458.726C181.421 -406.05 154.046 -347.982 125.012 -294.476C113.398 -272.908 102.199 -252.584 91.0006 -233.919C72.7506 -203.226 54.9154 -176.681 38.7392 -150.135C29.6142 -135.203 20.0745 -120.686 10.5347 -105.34C-7.71528 -75.8909 -28.0392 -42.7091 -49.6073 -4.55002C-58.7323 11.6261 -67.8574 28.2171 -75.7381 45.6375C-92.7438 83.3818 -103.943 120.711 -113.897 155.552C-124.266 190.808 -133.391 224.405 -147.079 258.001C-153.301 273.763 -160.767 289.524 -168.647 305.285C-196.852 359.621 -235.011 416.03 -281.465 464.558C-287.687 471.194 -293.909 477.416 -300.545 483.638C-354.88 535.069 -426.636 578.621 -475.579 596.041" stroke="#FFBF00" stroke-opacity="0.5" stroke-width="1.1055" stroke-miterlimit="10"/>
<path opacity="0.4889" d="M240.733 -644.545C261.057 -625.465 258.568 -562.005 231.193 -481.124C226.631 -467.851 221.654 -454.579 215.847 -440.476C194.693 -387.8 167.733 -330.147 138.699 -277.056C127.085 -255.902 115.887 -235.993 104.273 -217.329C85.6081 -187.05 66.9434 -160.92 49.9378 -135.204C40.398 -120.687 30.4434 -106.169 20.4889 -91.2377C1.4093 -62.2036 -19.3294 -29.4365 -40.8976 7.89302C-50.0226 24.0692 -59.1475 40.6601 -66.6134 57.6658C-83.6191 95.4101 -93.5738 132.325 -103.114 167.166C-112.653 202.421 -120.949 236.433 -133.807 270.03C-139.614 285.791 -146.665 301.552 -154.545 317.314C-181.506 372.064 -219.25 428.473 -265.29 476.586C-271.511 482.808 -277.733 489.444 -284.369 495.251C-338.704 546.268 -410.045 588.575 -460.233 604.336" stroke="#FFBF00" stroke-opacity="0.5" stroke-width="1.0634" stroke-miterlimit="10"/>
<path opacity="0.4778" d="M244.466 -630.442C268.108 -609.704 268.938 -544.999 243.637 -463.704C239.489 -450.431 234.512 -436.743 229.12 -423.056C209.211 -370.38 182.25 -312.726 153.216 -260.465C141.603 -239.311 129.989 -219.817 117.961 -201.567C98.4662 -171.704 79.8015 -145.988 61.9662 -121.101C52.0117 -106.999 41.6424 -92.8967 31.2731 -77.9649C11.364 -49.3456 -10.2043 -17.4081 -31.7725 19.5067C-40.8975 35.2681 -50.0225 51.8591 -57.4884 68.8648C-74.0793 106.609 -83.6191 143.524 -92.3293 178.365C-101.04 213.62 -108.505 247.632 -120.119 281.643C-125.511 297.405 -132.147 313.166 -139.613 329.342C-165.329 384.092 -202.659 440.501 -248.699 488.2C-254.92 494.422 -261.142 500.643 -267.363 506.865C-321.699 557.467 -393.04 598.115 -444.057 612.217" stroke="#FFBF00" stroke-opacity="0.5" stroke-width="1.0213" stroke-miterlimit="10"/>
<path opacity="0.4667" d="M247.785 -616.755C274.745 -594.357 278.478 -528.408 255.251 -446.698C251.518 -433.425 246.955 -419.738 241.978 -405.635C222.898 -352.959 196.767 -295.721 167.319 -243.874C155.705 -223.135 143.677 -203.641 131.648 -185.806C111.739 -156.357 92.2447 -131.471 73.5799 -106.999C63.2106 -92.8966 52.4266 -79.2091 41.2277 -64.692C20.489 -36.9022 -1.49392 -4.96467 -23.0621 31.5353C-32.6019 47.2967 -41.3122 63.4728 -48.7781 80.4785C-65.369 117.808 -74.0792 154.723 -81.9599 189.979C-89.8406 225.649 -96.0622 259.66 -107.261 294.087C-112.238 309.848 -118.46 326.024 -125.926 341.785C-150.812 396.95 -186.897 452.945 -232.937 500.643C-239.159 506.865 -245.38 513.087 -251.602 518.893C-305.937 569.081 -377.278 608.484 -429.125 620.513" stroke="#FFBF00" stroke-opacity="0.5" stroke-width="0.9792" stroke-miterlimit="10"/>
<path opacity="0.4556" d="M251.932 -603.482C282.211 -579.425 289.262 -512.232 267.694 -429.692C264.376 -416.419 259.813 -402.732 255.251 -388.63C237.001 -335.954 211.285 -279.13 181.836 -227.698C170.222 -207.374 158.194 -187.88 145.75 -170.459C125.427 -141.84 105.103 -116.953 85.6084 -92.8965C74.4095 -79.209 63.2108 -65.5215 52.0119 -51.4193C30.4437 -24.0442 7.6311 7.06367 -13.9371 43.1489C-23.4769 58.4955 -32.187 74.6717 -39.2381 91.6774C-55.4143 129.007 -63.7097 165.507 -70.7609 200.763C-77.812 236.433 -83.2041 270.859 -93.5734 305.285C-98.1359 321.047 -104.358 337.223 -110.994 353.399C-134.636 408.564 -170.306 464.973 -215.931 511.842C-222.153 518.064 -228.375 524.285 -234.596 530.092C-288.517 579.45 -360.272 618.024 -413.363 628.393" stroke="#FFBF00" stroke-opacity="0.5" stroke-width="0.9371" stroke-miterlimit="10"/>
<path opacity="0.4444" d="M255.666 -590.624C289.262 -564.908 299.217 -496.471 279.722 -413.516C276.404 -400.244 272.671 -386.141 268.109 -372.454C251.103 -319.778 225.387 -262.954 195.523 -212.351C183.495 -192.028 171.467 -173.363 158.609 -155.942C137.87 -127.738 116.717 -103.681 96.8076 -80.0389C85.194 -66.7662 73.5803 -53.4934 61.9667 -39.3911C39.569 -12.4309 16.3416 17.8475 -5.64134 53.518C-15.1811 68.8646 -23.8912 85.0407 -30.9424 101.632C-46.7038 138.546 -54.5845 175.461 -60.3913 210.717C-66.6129 246.387 -71.1754 281.228 -80.7151 315.654C-84.8629 331.831 -90.6697 348.007 -97.306 364.183C-119.704 419.762 -154.96 475.757 -200.17 522.211C-206.391 528.433 -212.198 534.24 -218.835 540.046C-272.755 588.99 -344.511 625.905 -398.431 634.615" stroke="#FFBF00" stroke-opacity="0.5" stroke-width="0.895" stroke-miterlimit="10"/>
<path opacity="0.4333" d="M260.228 -578.181C297.143 -550.806 310.415 -481.124 292.995 -397.755C290.091 -384.067 286.359 -370.38 282.211 -356.277C266.035 -303.186 240.734 -247.192 210.87 -197.419C198.842 -177.51 186.398 -158.846 173.54 -141.84C152.387 -114.05 130.404 -90.408 109.665 -67.5955C97.637 -54.7376 85.6085 -41.4648 73.5801 -27.7773C50.3528 -1.6466 26.7107 28.6318 4.72776 63.4727C-4.81202 78.8193 -13.5221 94.5807 -20.5733 111.172C-36.3347 148.086 -42.9711 184.586 -48.3631 219.842C-53.7552 255.513 -57.4882 290.354 -65.7836 325.194C-69.9314 341.371 -74.9086 357.547 -81.1301 373.723C-102.698 429.303 -137.125 485.711 -181.92 531.751C-187.727 537.973 -193.948 543.78 -200.585 549.587C-254.505 598.115 -326.261 633.785 -381.011 640.422" stroke="#FFBF00" stroke-opacity="0.5" stroke-width="0.8529" stroke-miterlimit="10"/>
<path opacity="0.4222" d="M264.79 -566.567C305.023 -537.533 321.199 -466.607 305.853 -382.823C303.364 -369.135 300.046 -355.448 295.898 -341.346C280.552 -288.255 256.08 -232.675 225.802 -183.317C213.773 -163.408 201.33 -145.158 188.057 -128.567C166.489 -101.192 144.092 -78.3797 122.109 -55.982C109.665 -43.124 97.2222 -30.6809 84.779 -17.4082C61.137 8.30775 36.2506 37.7567 14.2676 72.5976C4.72786 87.5294 -3.98239 103.291 -11.0335 119.882C-26.3801 156.382 -32.6017 193.297 -37.1642 228.552C-41.7267 264.223 -44.2153 299.478 -52.096 334.319C-55.829 350.495 -60.3915 366.672 -66.6131 383.262C-86.9369 439.257 -120.534 495.251 -165.329 540.876C-171.136 547.098 -177.357 552.905 -183.579 558.297C-237.5 606.41 -308.84 640.422 -364.835 645.814" stroke="#FFBF00" stroke-opacity="0.5" stroke-width="0.8108" stroke-miterlimit="10"/>
<path opacity="0.4111" d="M270.182 -555.369C313.733 -524.675 333.228 -452.505 319.54 -367.891C317.466 -354.204 314.148 -340.516 310.415 -326.414C295.898 -273.323 271.841 -217.744 241.563 -169.215C229.534 -149.721 216.677 -131.471 202.989 -115.295C181.006 -88.3345 157.779 -65.9367 134.966 -43.9537C122.108 -31.5105 109.25 -19.0673 96.3924 -6.20937C71.9208 19.0918 46.6197 47.711 24.6367 82.1372C15.097 97.069 6.38674 112.416 -0.249629 129.007C-15.1815 165.507 -20.9882 202.007 -24.7212 237.677C-28.4542 273.762 -30.1132 309.018 -37.1644 343.859C-40.4826 360.035 -45.0451 376.626 -50.4372 392.802C-69.9315 448.796 -102.698 504.791 -147.079 550.001C-152.886 556.223 -159.108 562.029 -165.329 567.421C-219.25 614.706 -290.591 647.887 -347.415 651.206" stroke="#FFBF00" stroke-opacity="0.5" stroke-width="0.7687" stroke-miterlimit="10"/>
<path opacity="0.4" d="M275.574 -544.584C322.029 -512.232 344.841 -438.817 333.228 -353.789C331.569 -340.101 328.665 -325.999 324.932 -311.897C311.659 -258.806 287.603 -203.641 257.324 -155.527C245.296 -136.448 232.023 -118.613 218.335 -102.022C195.938 -75.4762 171.881 -53.908 148.654 -32.3398C135.381 -20.3114 122.108 -8.2829 108.421 4.57506C83.1195 29.0467 56.9889 57.666 35.006 91.2626C25.4662 105.78 16.756 121.541 10.1196 137.717C-4.81222 173.802 -9.7895 210.302 -12.6929 245.973C-15.5963 282.058 -16.4258 317.314 -22.6474 352.569C-25.5508 368.746 -29.6986 385.336 -35.0906 401.927C-53.3406 458.336 -85.693 514.331 -129.659 559.126C-135.466 564.933 -141.687 570.74 -147.909 576.547C-201.829 623.416 -273.17 655.354 -330.824 657.013" stroke="#FFBF00" stroke-opacity="0.5" stroke-width="0.7266" stroke-miterlimit="10"/>
<path opacity="0.3889" d="M281.796 -535.045C331.569 -501.033 357.699 -426.374 348.16 -340.931C346.501 -327.244 344.012 -313.141 340.694 -299.039C328.251 -245.948 305.023 -191.198 273.915 -143.499C261.887 -124.42 248.614 -106.999 234.512 -90.8229C211.699 -64.6922 186.813 -43.5389 162.756 -22.8002C149.069 -10.7718 134.966 0.841761 121.279 13.2849C95.1482 37.3418 68.6027 65.1316 46.6197 98.3134C37.08 112.83 28.3697 128.177 21.7334 144.353C7.21632 180.438 2.65379 216.938 0.579924 252.609C-1.49394 288.694 -1.49386 324.365 -6.47114 360.035C-8.95978 376.626 -12.6928 392.802 -17.6701 409.393C-34.6757 465.802 -66.6132 521.797 -110.579 566.177C-116.386 571.984 -122.608 577.791 -128.829 583.183C-182.75 629.637 -254.091 659.916 -312.988 659.916" stroke="#FFBF00" stroke-opacity="0.5" stroke-width="0.6845" stroke-miterlimit="10"/>
<path opacity="0.3778" d="M288.432 -525.919C341.523 -490.249 370.558 -414.346 363.092 -328.488C361.847 -314.8 359.773 -300.698 356.455 -286.596C344.842 -233.505 322.029 -178.755 290.921 -131.885C278.478 -113.221 265.205 -95.8001 251.103 -80.0387C227.876 -54.7375 202.16 -33.5841 177.273 -13.2602C163.171 -1.6466 148.654 9.55227 134.552 21.9955C107.591 45.2227 80.2165 72.5978 58.2336 105.78C48.6938 120.297 39.9834 135.228 33.7619 151.405C19.2448 187.075 15.9267 223.575 14.6824 259.66C13.4381 295.746 14.6824 331.831 10.1199 367.501C8.04602 384.092 4.72783 400.683 -0.249442 417.274C-16.4256 474.098 -47.1187 529.677 -91.0847 573.643C-96.8915 579.45 -103.113 585.257 -109.335 590.649C-162.426 636.274 -234.181 665.308 -293.909 663.649" stroke="#FFBF00" stroke-opacity="0.5" stroke-width="0.6424" stroke-miterlimit="10"/>
<path opacity="0.3667" d="M295.898 -517.209C352.307 -479.88 384.659 -402.732 378.853 -316.459C378.023 -302.772 375.949 -288.67 373.046 -274.153C362.677 -221.062 339.864 -166.726 308.756 -120.272C296.313 -101.607 283.04 -84.6014 268.108 -69.2549C244.051 -44.3685 218.336 -24.0446 192.62 -4.13547C178.103 7.06339 163.171 18.2622 148.654 30.2906C120.864 53.1031 93.0741 80.0634 71.0912 112.416C61.5514 126.518 52.8412 141.865 46.6196 158.041C32.5173 193.711 29.614 230.211 29.1992 265.882C28.7844 301.967 30.8583 338.467 27.1254 374.137C25.4663 390.728 22.5628 407.319 18.0003 423.91C3.06848 480.734 -27.2099 536.728 -70.7611 580.279C-76.5679 586.086 -82.3748 591.478 -88.5964 596.87C-142.102 642.495 -213.858 669.87 -274.415 666.552" stroke="#FFBF00" stroke-opacity="0.5" stroke-width="0.6003" stroke-miterlimit="10"/>
<path opacity="0.3556" d="M303.779 -509.744C363.506 -470.755 398.762 -392.363 395.029 -305.261C394.614 -291.158 392.955 -277.056 390.052 -262.954C380.927 -209.863 358.529 -155.942 327.421 -110.317C314.978 -92.0674 301.291 -75.0617 286.359 -60.1299C261.887 -35.6583 235.342 -15.7492 208.796 3.33034C193.45 14.1144 178.518 25.3133 163.586 36.927C134.967 59.3247 106.762 85.4554 84.3643 117.393C74.8245 131.495 66.1143 146.427 59.8927 162.603C46.2052 197.859 43.7165 234.359 44.1312 270.444C44.546 306.944 47.4494 343.029 44.546 379.115C43.3017 395.705 40.3983 412.711 36.2506 429.302C22.1483 486.541 -7.30056 542.12 -50.4369 585.257C-56.2438 591.063 -62.0505 596.456 -68.2721 601.848C-121.778 646.643 -193.119 673.189 -254.92 667.797" stroke="#FFBF00" stroke-opacity="0.5" stroke-width="0.5582" stroke-miterlimit="10"/>
<path opacity="0.3444" d="M312.489 -503.107C375.535 -462.459 414.108 -382.823 412.449 -295.306C412.035 -281.204 410.79 -267.101 408.716 -252.999C400.006 -199.493 378.438 -145.988 346.915 -100.777C334.472 -82.9422 320.37 -66.3512 305.438 -51.4194C280.551 -27.3626 253.177 -8.28304 225.802 10.3817C210.04 21.1658 194.694 31.5351 179.347 42.734C149.898 64.3022 120.864 90.0181 98.881 121.956C88.9265 135.643 80.6311 150.575 74.8242 166.751C61.1367 202.007 59.4776 238.092 60.7219 274.592C61.9662 311.092 65.6992 347.592 63.6253 383.677C62.7958 400.268 60.3071 417.274 56.5741 433.865C43.7162 491.103 14.6821 547.098 -28.0395 589.819C-33.8463 595.626 -39.6531 601.018 -45.8747 605.996C-99.3804 650.376 -170.721 675.263 -233.352 668.212" stroke="#FFBF00" stroke-opacity="0.5" stroke-width="0.5161" stroke-miterlimit="10"/>
<path opacity="0.3333" d="M322.029 -497.3C388.393 -454.993 429.87 -374.113 430.285 -286.181C430.285 -272.078 429.455 -257.976 427.381 -243.874C419.915 -190.368 398.347 -137.277 366.41 -92.4819C353.966 -74.6467 339.864 -58.4705 324.103 -43.9534C298.802 -20.3114 270.597 -1.64658 242.393 16.6034C226.216 26.9727 210.04 37.3421 194.279 48.1262C164.415 69.2796 134.552 94.5807 112.154 125.689C102.199 139.376 93.9039 153.893 88.097 170.069C74.8243 204.91 73.58 241.41 75.6538 277.496C77.7277 313.996 82.705 350.91 81.4606 386.996C81.0459 404.001 78.972 420.592 75.6538 437.598C64.0402 495.251 35.8357 550.831 -6.88592 593.138C-12.6927 598.945 -18.4995 604.336 -24.7211 609.314C-78.2268 653.28 -149.568 676.922 -213.028 668.212" stroke="#FFBF00" stroke-opacity="0.5" stroke-width="0.474" stroke-miterlimit="10"/>
<path opacity="0.3222" d="M331.983 -492.323C401.665 -448.357 446.46 -365.817 448.534 -277.885C448.949 -263.783 448.119 -249.681 446.46 -235.164C439.824 -181.658 418.671 -128.982 386.733 -84.6012C374.29 -67.1808 359.773 -51.0046 344.011 -36.9023C318.296 -13.6751 289.261 4.1601 260.642 21.9953C244.051 31.9499 227.46 41.9044 211.284 52.6885C180.591 73.0124 149.898 97.8988 127.915 128.592C117.96 141.865 109.665 156.797 103.858 172.558C91.0001 207.399 90.5853 243.484 93.074 279.984C95.9774 316.484 101.784 353.399 101.369 389.899C101.369 406.905 99.7103 423.91 96.3921 440.501C85.608 498.155 58.233 553.734 15.9262 595.626C10.1194 601.018 4.3126 606.41 -1.90899 611.388C-54.9999 654.939 -126.756 677.336 -191.045 666.552" stroke="#FFBF00" stroke-opacity="0.5" stroke-width="0.4319" stroke-miterlimit="10"/>
<path opacity="0.3111" d="M343.182 -488.59C415.768 -442.965 463.881 -359.181 468.029 -270.419C468.859 -256.317 468.444 -241.8 466.785 -227.698C460.978 -174.192 440.654 -121.516 408.302 -77.9648C395.444 -60.5443 380.927 -44.7829 365.165 -31.0954C339.035 -8.28288 309.586 9.13753 279.722 26.1432C262.717 36.0978 245.711 45.6376 229.12 56.0069C197.597 75.916 166.489 99.9728 144.091 130.251C134.137 143.524 125.842 158.041 120.45 173.802C107.592 208.643 108.006 244.729 111.324 281.229C115.057 318.143 121.694 355.058 122.109 391.558C122.109 408.564 120.864 425.569 118.376 442.575C108.836 500.643 81.8755 556.223 39.9835 597.7C34.1767 603.092 28.3699 608.484 22.1483 613.462C-30.9426 656.598 -102.698 677.337 -168.232 664.893" stroke="#FFBF00" stroke-opacity="0.5" stroke-width="0.3898" stroke-miterlimit="10"/>
<path opacity="0.3" d="M354.796 -485.687C430.7 -438.403 482.132 -353.374 488.353 -264.198C494.575 -175.022 455.586 -83.7717 386.734 -26.5331C344.842 8.30786 294.239 30.2908 247.37 58.0806C200.501 85.8704 155.705 122.785 137.041 173.802C112.154 242.654 140.774 318.558 143.262 391.973C145.751 467.461 117.961 545.024 64.0405 598.115C10.12 651.206 -70.7608 677.336 -144.59 661.575" stroke="#FFBF00" stroke-opacity="0.5" stroke-width="0.3477" stroke-miterlimit="10"/>
</svg>
